<svg width="46" height="46" viewBox="0 0 46 46" fill="none" xmlns="http://www.w3.org/2000/svg">
<path fill-rule="evenodd" clip-rule="evenodd" d="M42.2459 23.4689C42.2459 18.2402 40.1688 13.2257 36.4716 9.52848C32.7743 5.83125 27.7598 3.75417 22.5312 3.75417C17.3025 3.75417 12.288 5.83125 8.59074 9.52847C4.89351 13.2257 2.81643 18.2402 2.81643 23.4689C2.81643 28.6976 4.89351 33.7121 8.59073 37.4093C12.288 41.1065 17.3025 43.1836 22.5311 43.1836C27.7598 43.1836 32.7743 41.1065 36.4716 37.4093C40.1688 33.7121 42.2459 28.6976 42.2459 23.4689ZM4.01167e-05 23.4689C4.06391e-05 17.4933 2.37385 11.7624 6.59925 7.53699C10.8247 3.31159 16.5555 0.93778 22.5312 0.93778C28.5068 0.937781 34.2376 3.31159 38.463 7.53699C42.6885 11.7624 45.0623 17.4933 45.0623 23.4689C45.0623 29.4445 42.6885 35.1754 38.463 39.4008C34.2376 43.6262 28.5068 46 22.5311 46C16.5555 46 10.8247 43.6262 6.59925 39.4008C2.37385 35.1754 3.95943e-05 29.4445 4.01167e-05 23.4689ZM32.3885 24.8771C32.762 24.8771 33.1202 24.7287 33.3843 24.4646C33.6483 24.2005 33.7967 23.8424 33.7967 23.4689C33.7967 23.0954 33.6483 22.7372 33.3843 22.4731C33.1202 22.2091 32.762 22.0607 32.3885 22.0607L16.0732 22.0607L22.12 16.0167C22.2509 15.8858 22.3547 15.7304 22.4256 15.5593C22.4965 15.3882 22.5329 15.2049 22.5329 15.0197C22.5329 14.8346 22.4965 14.6512 22.4256 14.4802C22.3547 14.3091 22.2509 14.1537 22.12 14.0227C21.989 13.8918 21.8336 13.7879 21.6625 13.7171C21.4915 13.6462 21.3081 13.6098 21.123 13.6098C20.9378 13.6098 20.7544 13.6462 20.5834 13.7171C20.4123 13.7879 20.2569 13.8918 20.126 14.0227L11.6768 22.4719C11.5456 22.6027 11.4416 22.7581 11.3706 22.9292C11.2996 23.1003 11.2631 23.2837 11.2631 23.4689C11.2631 23.6541 11.2996 23.8375 11.3706 24.0086C11.4416 24.1797 11.5456 24.3351 11.6768 24.4659L20.126 32.9151C20.2569 33.046 20.4123 33.1498 20.5834 33.2207C20.7544 33.2916 20.9378 33.328 21.123 33.328C21.3081 33.328 21.4915 33.2916 21.6625 33.2207C21.8336 33.1498 21.989 33.046 22.12 32.9151C22.2509 32.7841 22.3547 32.6287 22.4256 32.4576C22.4965 32.2866 22.5329 32.1032 22.5329 31.9181C22.5329 31.7329 22.4965 31.5495 22.4256 31.3785C22.3547 31.2074 22.2509 31.052 22.12 30.9211L16.0732 24.8771L32.3885 24.8771Z" fill="#FFC20E"/>
</svg>
