<svg width="46" height="46" viewBox="0 0 46 46" fill="none" xmlns="http://www.w3.org/2000/svg">
<path fill-rule="evenodd" clip-rule="evenodd" d="M2.87864 22.5311C2.87864 27.7598 4.95572 32.7743 8.65295 36.4715C12.3502 40.1688 17.3647 42.2458 22.5934 42.2458C27.822 42.2458 32.8366 40.1688 36.5338 36.4715C40.231 32.7743 42.3081 27.7598 42.3081 22.5311C42.3081 17.3024 40.231 12.2879 36.5338 8.5907C32.8366 4.89347 27.822 2.81639 22.5934 2.81639C17.3647 2.81639 12.3502 4.89347 8.65295 8.5907C4.95572 12.2879 2.87864 17.3024 2.87864 22.5311ZM45.1245 22.5311C45.1245 28.5067 42.7507 34.2376 38.5253 38.463C34.2999 42.6884 28.569 45.0622 22.5934 45.0622C16.6177 45.0622 10.8869 42.6884 6.66147 38.463C2.43606 34.2376 0.0622559 28.5067 0.0622559 22.5311C0.0622559 16.5555 2.43606 10.8246 6.66147 6.59921C10.8869 2.37381 16.6177 0 22.5934 0C28.569 0 34.2999 2.37381 38.5253 6.59921C42.7507 10.8246 45.1245 16.5555 45.1245 22.5311ZM12.736 21.1229C12.3625 21.1229 12.0043 21.2713 11.7403 21.5354C11.4762 21.7995 11.3278 22.1576 11.3278 22.5311C11.3278 22.9046 11.4762 23.2628 11.7403 23.5269C12.0043 23.7909 12.3625 23.9393 12.736 23.9393H29.0513L23.0046 29.9833C22.8736 30.1142 22.7698 30.2696 22.6989 30.4407C22.6281 30.6118 22.5916 30.7951 22.5916 30.9803C22.5916 31.1654 22.6281 31.3488 22.6989 31.5198C22.7698 31.6909 22.8736 31.8463 23.0046 31.9773C23.1355 32.1082 23.2909 32.2121 23.462 32.2829C23.6331 32.3538 23.8164 32.3902 24.0016 32.3902C24.1867 32.3902 24.3701 32.3538 24.5411 32.2829C24.7122 32.2121 24.8676 32.1082 24.9986 31.9773L33.4477 23.5281C33.5789 23.3973 33.6829 23.2419 33.7539 23.0708C33.8249 22.8997 33.8614 22.7163 33.8614 22.5311C33.8614 22.3459 33.8249 22.1625 33.7539 21.9914C33.6829 21.8203 33.5789 21.6649 33.4477 21.5341L24.9986 13.0849C24.8676 12.954 24.7122 12.8502 24.5411 12.7793C24.3701 12.7084 24.1867 12.672 24.0016 12.672C23.8164 12.672 23.6331 12.7084 23.462 12.7793C23.2909 12.8502 23.1355 12.954 23.0046 13.0849C22.8736 13.2159 22.7698 13.3713 22.6989 13.5424C22.6281 13.7134 22.5916 13.8968 22.5916 14.0819C22.5916 14.2671 22.6281 14.4505 22.6989 14.6215C22.7698 14.7926 22.8736 14.948 23.0046 15.0789L29.0513 21.1229H12.736Z" fill="#FFC20E"/>
</svg>
