<svg width="25" height="29" viewBox="0 0 25 29" fill="none" xmlns="http://www.w3.org/2000/svg">
<path d="M0.9177 10.9998C0.755529 11.0012 0.595857 10.9639 0.454899 10.8919C0.35151 10.8398 0.260749 10.7696 0.187927 10.6856C0.115105 10.6016 0.0616846 10.5054 0.0307909 10.4026C-0.000102842 10.2998 -0.00784918 10.1925 0.00800519 10.087C0.0238596 9.98151 0.0629963 9.87991 0.123125 9.78815C1.28193 8.05208 4.80763 4 12.5009 4C15.8349 4 18.759 4.78603 21.1878 6.33544C23.1868 7.607 24.3072 9.04635 24.8409 9.73959C24.9086 9.82697 24.9561 9.92563 24.9807 10.0297C25.0053 10.1339 25.0064 10.2413 24.984 10.3459C24.9616 10.4504 24.9161 10.5498 24.8503 10.6383C24.7844 10.7268 24.6995 10.8026 24.6005 10.8612C24.3982 10.9812 24.1518 11.0258 23.9135 10.9855C23.6751 10.9452 23.4637 10.8232 23.3239 10.6454C22.358 9.39864 19.4129 5.60497 12.5009 5.60497C5.75427 5.60497 2.70399 9.09599 1.71047 10.5931C1.63064 10.7181 1.51508 10.8217 1.37571 10.8932C1.23634 10.9647 1.07822 11.0015 0.9177 10.9998Z" fill="#ED1C24"/>
<path d="M16.2635 28.9999C16.1872 29.0008 16.1111 28.9922 16.0369 28.9742C10.4877 27.5988 8.41558 22.0482 8.33131 21.8173L8.31816 21.7665C8.27273 21.6062 7.15929 17.7999 8.8686 15.5706C9.65213 14.554 10.8439 14.0325 12.4175 14.0325C13.8806 14.0325 14.9361 14.4876 15.6616 15.4295C16.2593 16.1985 16.4983 17.1469 16.7296 18.0607C17.2155 19.9635 17.5664 20.9628 19.5858 21.0656C20.4728 21.1105 21.0555 20.5914 21.386 20.1495C22.2795 18.9445 22.4349 16.9801 21.7613 15.2459C20.8959 13.0075 17.8245 8.78743 12.4091 8.78743C10.0974 8.78743 7.97331 9.53075 6.26997 10.9277C4.86009 12.0848 3.74307 13.7186 3.20517 15.3978C2.20768 18.5241 3.51596 23.4385 3.52851 23.4834C3.55905 23.5977 3.5664 23.7171 3.55012 23.8343C3.53384 23.9516 3.49426 24.0644 3.43371 24.1661C3.37317 24.2678 3.29288 24.3564 3.19758 24.4266C3.10228 24.4967 2.99391 24.5471 2.87885 24.5747C2.6464 24.6366 2.39898 24.6048 2.18962 24.4864C1.98026 24.3679 1.82562 24.172 1.75883 23.9408C1.69907 23.7166 0.301738 18.4751 1.45403 14.8619C2.70911 10.9468 6.58255 7 12.4109 7C15.1046 7 17.6494 7.91614 19.7735 9.64616C21.4183 10.9917 22.7618 12.7988 23.4647 14.6054C24.3582 16.9119 24.1185 19.5007 22.8556 21.1918C22.0141 22.3196 20.8158 22.9093 19.4884 22.8453C16.0304 22.6719 15.4088 20.2565 14.9558 18.4948C14.4896 16.6876 14.1914 15.8164 12.4109 15.8164C11.4332 15.8164 10.7465 16.0855 10.3191 16.6428C9.7364 17.4053 9.69098 18.5971 9.75553 19.4618C9.7979 20.0642 9.90001 20.661 10.0603 21.2432C10.2026 21.602 12.0547 26.1469 16.4906 27.2466C16.6052 27.2738 16.7133 27.3235 16.8086 27.3928C16.9039 27.4622 16.9845 27.5497 17.0456 27.6505C17.1068 27.7513 17.1474 27.8632 17.1649 27.9798C17.1825 28.0963 17.1767 28.2152 17.148 28.3296C17.0939 28.5226 16.9781 28.6926 16.8184 28.8136C16.6587 28.9346 16.4638 29.0001 16.2635 28.9999Z" fill="#ED1C24"/>
<path d="M9.42696 28C9.3096 28.0002 9.19339 27.977 9.08526 27.9317C8.97713 27.8864 8.8793 27.8199 8.7976 27.7363C6.70199 25.5525 5.51659 23.1105 5.07051 20.0571V20.0409C4.82012 18.0195 5.18668 15.1576 6.98284 13.19C8.30866 11.738 10.1725 11 12.5129 11C15.2807 11 17.4558 12.2778 18.8121 14.6895C19.7962 16.4416 19.9913 18.1875 19.9964 18.2592C20.0067 18.3697 19.995 18.4811 19.9618 18.5871C19.9287 18.6931 19.8748 18.7916 19.8033 18.8769C19.7318 18.9622 19.6441 19.0326 19.5451 19.0842C19.4462 19.1358 19.3379 19.1675 19.2266 19.1775C19.002 19.2017 18.7768 19.1372 18.5996 18.998C18.4225 18.8587 18.3076 18.6559 18.2797 18.4333C18.1312 17.3857 17.7898 16.3742 17.2725 15.4493C16.2213 13.6077 14.622 12.6714 12.5067 12.6714C10.6795 12.6714 9.24988 13.2174 8.26637 14.2953C6.84862 15.8491 6.57454 18.2429 6.7691 19.8264C7.15991 22.5265 8.2049 24.6745 10.0501 26.594C10.1271 26.6735 10.1873 26.7676 10.2269 26.8707C10.2666 26.9738 10.2849 27.0837 10.2809 27.194C10.2769 27.3043 10.2506 27.4126 10.2036 27.5126C10.1566 27.6126 10.0898 27.7022 10.0073 27.776C9.84824 27.9191 9.64158 27.9989 9.42696 28Z" fill="#ED1C24"/>
<path d="M19.7961 27C17.7549 27 16.0196 26.4351 14.631 25.3123C11.8411 23.0659 11.5284 19.4074 11.5146 19.253C11.4949 18.9995 11.5768 18.7487 11.7422 18.5556C11.9076 18.3625 12.1431 18.243 12.3967 18.2233C12.6503 18.2037 12.9013 18.2855 13.0945 18.4509C13.2877 18.6162 13.4073 18.8514 13.427 19.1049C13.4339 19.1588 13.7127 22.1515 15.8632 23.875C17.1356 24.8905 18.8364 25.2934 20.9322 25.0581C21.1827 25.0277 21.4351 25.0977 21.6341 25.2527C21.8331 25.4077 21.9626 25.6351 21.9943 25.8853C22.008 26.0089 21.997 26.1339 21.9618 26.2532C21.9266 26.3725 21.8681 26.4835 21.7895 26.58C21.7109 26.6764 21.6139 26.7561 21.5041 26.8147C21.3944 26.8732 21.2741 26.9093 21.1502 26.9209C20.7007 26.9733 20.2486 26.9997 19.7961 27ZM21.4089 2.05805C20.6126 1.54024 17.7888 0 12.4792 0C6.90588 0 4.07523 1.70154 3.44906 2.13399C3.4077 2.15936 3.36899 2.18879 3.3335 2.22186C3.32975 2.22548 3.32487 2.2277 3.31968 2.22814C3.21969 2.31538 3.13946 2.42293 3.08433 2.5436C3.02921 2.66428 3.00046 2.79531 3 2.92796C3.00172 3.05231 3.02797 3.1751 3.07726 3.28929C3.12655 3.40348 3.1979 3.50682 3.28722 3.59341C3.37655 3.67999 3.48209 3.74811 3.5978 3.79386C3.71352 3.83961 3.83713 3.86209 3.96155 3.86001C4.16098 3.85988 4.3556 3.79877 4.51927 3.6849C4.54627 3.66481 6.9825 1.87603 12.4811 1.87603C17.9798 1.87603 20.4292 3.65854 20.4556 3.67172C20.6228 3.79564 20.8258 3.86174 21.034 3.86001C21.1585 3.86192 21.2822 3.83923 21.3979 3.79325C21.5137 3.74727 21.6192 3.6789 21.7084 3.59207C21.7976 3.50524 21.8688 3.40165 21.9179 3.28725C21.9669 3.17286 21.9929 3.0499 21.9943 2.92545C21.9943 2.73903 21.9386 2.55685 21.8343 2.40229C21.73 2.24774 21.5819 2.12786 21.4089 2.05805Z" fill="#ED1C24"/>
</svg>
