<svg width="59" height="37" viewBox="0 0 59 37" fill="none" xmlns="http://www.w3.org/2000/svg">
<path d="M12.8662 6.17334H44.9254V24.6928C44.9254 24.6928 38.3875 28.2197 29.6734 28.2197C20.9593 28.2197 12.8662 24.6928 12.8662 24.6928V6.17334Z" fill="#003863"/>
<path d="M58.8268 10.5832L29.4139 20.0241L0 10.5832V8.71528L29.9591 1.86792L58.8268 8.71528V10.5832Z" fill="#1E233B"/>
<path d="M58.8268 8.71526L29.4139 18.1562L0 8.71526L29.9591 0L58.8268 8.71526Z" fill="#003863"/>
<path d="M53.8064 24.6928H52.4365V10.7662L53.8064 10.3269V24.6928Z" fill="#FBB040"/>
<path d="M33.3354 8.82275L31.8828 9.52693L52.4361 10.7663L53.806 10.3271L33.3354 8.82275Z" fill="#FBB040"/>
<path d="M56.6311 27.3247C56.6311 30.8274 55.3109 34.1954 52.6304 36.9137C54.0273 31.8552 49.6094 30.8274 49.6094 27.3247C49.6094 25.2104 52.146 23.1745 53.1205 23.625C55.046 22.9456 56.6311 24.871 56.6311 27.3247Z" fill="#FBB040"/>
<path d="M55.4502 27.3247C55.4502 30.8274 54.5737 34.1954 52.7948 36.9137C53.7221 31.8552 50.791 30.8274 50.791 27.3247C50.791 25.2104 52.4752 23.1745 53.1206 23.625C54.3982 22.9456 55.4502 24.871 55.4502 27.3247Z" fill="#F7941E"/>
<path d="M54.2129 27.3247C54.2129 30.8274 53.8021 34.1954 52.968 36.9137C53.4034 31.8552 52.0283 30.8274 52.0283 27.3247C52.0283 25.2104 52.8176 23.1745 53.1209 23.625C53.72 22.9456 54.2129 24.871 54.2129 27.3247Z" fill="#FBB040"/>
<path d="M29.1745 9.94753C31.4729 9.94753 33.3362 9.16708 33.3362 8.20436C33.3362 7.24163 31.4729 6.46118 29.1745 6.46118C26.876 6.46118 25.0127 7.24163 25.0127 8.20436C25.0127 9.16708 26.876 9.94753 29.1745 9.94753Z" fill="#1E233B"/>
<path d="M29.1745 9.07814C31.4729 9.07814 33.3362 8.2977 33.3362 7.33497C33.3362 6.37224 31.4729 5.5918 29.1745 5.5918C26.876 5.5918 25.0127 6.37224 25.0127 7.33497C25.0127 8.2977 26.876 9.07814 29.1745 9.07814Z" fill="#003863"/>
</svg>
