<svg width="54" height="54" viewBox="0 0 54 54" fill="none" xmlns="http://www.w3.org/2000/svg">
<rect width="54" height="54" rx="8" fill="url(#paint0_linear_637_65)"/>
<path d="M24.2766 39.6872C23.2614 39.6872 22.3503 39.3227 21.5693 38.5938C19.1483 36.3551 17.6645 33.3353 16.9616 29.3264C16.8575 28.7797 16.9356 28.3632 17.1959 28.0508C17.5603 27.6083 18.1591 27.5042 18.7318 27.4781C22.0118 27.2699 25.422 26.7492 28.8322 25.9683C30.3421 25.6298 31.8259 25.1352 33.2837 24.6667C34.9758 24.12 36.72 23.5473 38.5162 23.1828L39.4533 23.0006L39.0628 23.8857L38.6203 23.7295L39.0628 23.9117C37.5009 27.4 36.0171 30.0813 34.3771 32.3722C31.4875 36.4071 28.4678 38.8021 25.37 39.557C25.0055 39.6351 24.6411 39.6872 24.2766 39.6872Z" fill="white"/>
<path d="M17.3781 23.7556C16.1025 23.7556 15.2695 23.4433 14.827 22.7664C14.3323 22.0636 14.4104 21.0483 14.9832 19.7207C15.7901 17.8984 17.0657 16.3625 18.7318 15.139C18.7838 15.113 18.8359 15.0609 18.888 15.0089C19.2524 14.7485 19.8251 14.28 20.4759 14.6184C21.0486 14.9308 20.9705 15.5555 20.9185 15.8939C20.8924 15.9981 20.8924 16.1282 20.8924 16.2063V16.3105C21.0486 18.6533 21.1788 20.84 23.3394 22.3759L24.4328 23.1569L23.0791 23.261C22.4544 23.3131 21.8817 23.3652 21.2829 23.4172C20.0073 23.5474 18.8099 23.6515 17.5864 23.7036C17.5603 23.7556 17.4562 23.7556 17.3781 23.7556Z" fill="white"/>
<defs>
<linearGradient id="paint0_linear_637_65" x1="0" y1="0" x2="54" y2="54" gradientUnits="userSpaceOnUse">
<stop stop-color="#F96098"/>
<stop offset="1" stop-color="#F71668"/>
</linearGradient>
</defs>
</svg>
