<svg width="54" height="54" viewBox="0 0 54 54" fill="none" xmlns="http://www.w3.org/2000/svg">
<rect width="54" height="54" rx="8" fill="url(#paint0_linear_637_163)"/>
<path fill-rule="evenodd" clip-rule="evenodd" d="M36.3836 19.8952V39.7175C36.3836 40.1594 36.03 40.5066 35.58 40.5066C35.355 40.5066 35.1621 40.4119 35.0014 40.2857H34.6478L33.8441 41.0432C33.5227 41.3589 33.0405 41.3273 32.719 41.0432L31.9154 40.2857H31.4011L30.5974 41.0432C30.276 41.3589 29.7938 41.3273 29.4724 41.0432L28.6687 40.2857H28.1544L27.3508 41.0432C27.0293 41.3589 26.5471 41.3273 26.2257 41.0432L25.4221 40.2857H24.9077L24.1041 41.0432C23.7827 41.3589 23.3005 41.3273 22.979 41.0432L22.1754 40.2857H21.6611L20.8574 41.0432C20.536 41.3589 20.0538 41.3273 19.7323 41.0432L18.9287 40.2857H18.543L18.3501 40.5698C18.0286 40.8854 17.5143 40.8854 17.225 40.5698C17.0643 40.412 17 40.2226 17 40.0332V13.2351C17 12.7932 17.3536 12.446 17.8036 12.446C18.0608 12.446 18.2537 12.5407 18.4144 12.7301L18.6715 12.9826H19.0573L19.8609 12.2251C20.1824 11.9094 20.6646 11.941 20.986 12.2251L21.7896 12.9826H22.304L23.1076 12.2251C23.4291 11.9094 23.9112 11.941 24.2327 12.2251L25.0363 12.9826H25.5506L26.3543 12.2251C26.6757 11.9094 27.1579 11.941 27.4794 12.2251L28.283 12.9826H28.7973L29.601 12.2251C29.9224 11.9094 30.4046 11.941 30.726 12.2251L31.5297 12.9826H32.044L32.8476 12.2251C33.1691 11.9094 33.6513 11.941 33.9727 12.2251L34.7763 12.9826H35.1621C35.4836 12.6669 35.9979 12.6669 36.2872 12.9826C36.4479 13.1404 36.5122 13.3298 36.5122 13.5192V19.8952H36.3836ZM28.7652 35.6773H31.8511C32.3011 35.6773 32.6547 35.3301 32.6547 34.8882C32.6547 34.4463 32.3011 34.0991 31.8511 34.0991H28.7652C28.3151 34.0991 27.9615 34.4463 27.9615 34.8882C27.9615 35.3301 28.3473 35.6773 28.7652 35.6773ZM21.4682 35.6773H25.5828C26.0328 35.6773 26.3864 35.3301 26.3864 34.8882C26.3864 34.4463 26.0328 34.0991 25.5828 34.0991H21.4682C21.0182 34.0991 20.6646 34.4463 20.6646 34.8882C20.6967 35.3301 21.0503 35.6773 21.4682 35.6773ZM21.4682 29.7432H31.8511C32.3011 29.7432 32.6547 29.396 32.6547 28.9541C32.6547 28.5122 32.3011 28.165 31.8511 28.165H21.4682C21.0182 28.165 20.6646 28.5122 20.6646 28.9541C20.6967 29.396 21.0503 29.7432 21.4682 29.7432ZM31.8511 24.4089H21.4682C21.0182 24.4089 20.6646 24.7561 20.6646 25.198C20.6646 25.6399 21.0182 25.9871 21.4682 25.9871H31.8511C32.3011 25.9871 32.6547 25.6399 32.6547 25.198C32.6547 24.7561 32.3011 24.4089 31.8511 24.4089ZM21.4682 19.1376H31.8511C32.3011 19.1376 32.6547 18.7904 32.6547 18.3485C32.6547 17.9066 32.3011 17.5594 31.8511 17.5594H21.4682C21.0182 17.5594 20.6646 17.9066 20.6646 18.3485C20.6967 18.7904 21.0503 19.1376 21.4682 19.1376ZM34.7763 21.1577V14.5293H34.3263C34.1334 14.5293 33.9084 14.4661 33.7799 14.3083L33.2977 13.8664L32.8798 14.2767C32.719 14.4346 32.5262 14.5608 32.269 14.5608H31.1118C30.9189 14.5608 30.6939 14.4977 30.5653 14.3399L30.0831 13.898L29.6652 14.3083C29.5045 14.4661 29.3117 14.5924 29.0545 14.5924H27.8973C27.7044 14.5924 27.4794 14.5292 27.3508 14.3714L26.8686 13.9295L26.4507 14.3399C26.29 14.4977 26.0971 14.6239 25.84 14.6239H24.6827C24.4899 14.6239 24.2648 14.5608 24.1363 14.403L23.6541 13.9611L23.2362 14.3714C23.0754 14.5292 22.8826 14.6555 22.6254 14.6555H21.4682C21.2753 14.6555 21.0503 14.5924 20.9217 14.4346L20.4395 13.9927L19.9574 14.4346C19.7966 14.5608 19.6038 14.6555 19.3787 14.6555H18.6073V38.8653H19.3466C19.5716 38.8653 19.7966 38.9284 19.9574 39.0863L20.4395 39.5281L20.8574 39.1178C21.0182 38.96 21.211 38.8337 21.4682 38.8337H22.6254C22.8183 38.8337 23.0433 38.8969 23.1719 39.0547L23.6541 39.4966L24.072 39.0863C24.2327 38.9284 24.4256 38.8022 24.6827 38.8022H25.84C26.0328 38.8022 26.2578 38.8653 26.3864 39.0231L26.8686 39.465L27.2865 39.0547C27.4472 38.8969 27.6401 38.7706 27.8973 38.7706H29.0545C29.2474 38.7706 29.4724 38.8337 29.601 38.9916L30.0831 39.4335L30.501 39.0231C30.6617 38.8653 30.8546 38.739 31.1118 38.739H32.269C32.4619 38.739 32.6869 38.8022 32.8155 38.96L33.2977 39.4019L33.7155 38.9916C33.8763 38.8337 34.0692 38.7075 34.3263 38.7075H34.7763V21.1577Z" fill="white"/>
<defs>
<linearGradient id="paint0_linear_637_163" x1="0" y1="0" x2="54" y2="54" gradientUnits="userSpaceOnUse">
<stop stop-color="#FDDA5A"/>
<stop offset="1" stop-color="#FB7927"/>
</linearGradient>
</defs>
</svg>
