<svg width="55" height="55" viewBox="0 0 55 55" fill="none" xmlns="http://www.w3.org/2000/svg">
<path d="M41.4597 55H13.5403C6.06361 55 0 48.9391 0 41.4596V13.5403C0 6.06362 6.06089 0 13.5403 0H41.4597C48.9364 0 55 6.06089 55 13.5403V41.4596C55 48.9391 48.9391 55 41.4597 55Z" fill="url(#paint0_linear_637_2574)"/>
<path d="M29.7153 45.7602C28.735 45.7602 27.7546 45.7602 26.7742 45.7602C26.6199 45.7197 26.4655 45.6522 26.3084 45.6387C17.9997 44.9475 10.1297 37.6333 10.257 28.4047C10.257 28.3534 10.2083 28.2994 10.1568 28.1968C10.0404 28.4668 9.9537 28.672 9.86433 28.8772C9.80204 28.861 9.74246 28.8448 9.68018 28.8286C9.98349 27.187 10.2895 25.5454 10.5847 23.9552C10.5522 23.9795 10.4303 24.0605 10.3112 24.1442C10.5955 23.0588 10.8988 21.995 11.4703 21.0986C12.3206 19.7594 13.0519 18.431 13.106 16.7975C13.1196 16.3574 13.3145 15.8876 13.5339 15.4934C13.9808 14.6942 14.5034 13.9355 14.8961 13.3118C15.4269 14.3162 15.8819 15.2747 16.4452 16.1657C16.5942 16.4033 17.0627 16.5113 17.3985 16.5518C18.3897 16.6679 19.3863 16.7381 20.3856 16.7921C20.67 16.8083 20.9869 16.7597 21.2414 16.6436C21.9943 16.3007 22.6957 15.8201 23.4757 15.5609C24.1121 15.3503 24.8298 15.3773 25.5122 15.299C25.1656 15.8579 24.7783 16.1549 24.4452 16.5032C24.1094 16.8542 23.7871 17.2322 23.5271 17.6399C22.7228 18.8927 23.2861 20.0132 24.7973 20.2157C25.3633 20.2913 25.932 20.3507 26.4899 20.4587C27.6923 20.6909 27.9415 21.3281 27.0613 22.1894C26.5414 22.6997 25.8074 23.0102 25.1358 23.345C24.1852 23.8175 23.1724 24.128 23.4486 25.5913C23.5759 26.2582 23.1182 26.4499 22.4845 26.1583C21.7641 25.8262 21.0979 26.0827 20.9246 26.8468C20.8271 27.2734 20.8162 27.7864 20.9652 28.186C21.5447 29.7493 23.9767 30.9508 25.5962 30.5458C26.2543 30.3811 26.907 30.1597 27.5759 30.0895C28.7594 29.9653 29.7831 30.3568 30.517 31.3288C30.9042 31.8418 30.674 32.4736 30.127 32.3818C29.1249 32.2144 28.3937 32.722 27.6246 33.1621C26.2461 33.9505 24.7864 34.2151 23.2265 33.9127C22.8501 33.8398 22.4709 33.7885 21.9374 33.7021C22.1595 33.9775 22.2678 34.1287 22.3924 34.2664C25.3091 37.4821 30.5278 37.5847 33.8237 34.4905C37.236 31.2883 37.2414 26.0179 33.8643 22.7969C31.0749 20.1374 30.0972 16.973 31.3592 13.2551C31.8548 11.7944 32.6131 10.4687 33.6666 9.24023C34.2407 10.7441 36.4912 13.3928 37.7478 14.1002C37.8426 13.8464 37.9184 13.5872 38.0322 13.3442C38.1351 13.1201 38.2759 12.9122 38.3869 12.7178C40.8162 17.0054 44.0525 20.8475 44.5616 25.9909C44.827 25.7884 44.976 25.6723 45.171 25.5238C45.6287 28.8394 45.0274 31.8634 43.4486 34.7065C43.2861 35.0008 43.1344 35.3518 43.129 35.6785C43.1046 36.9934 42.6876 38.2003 41.7451 39.0562C40.5914 40.1038 39.259 40.9516 37.997 41.8804C37.7397 42.0694 37.3687 42.1693 37.2008 42.4123C36.0769 44.0457 34.4032 44.7801 32.586 45.2499C31.6517 45.4902 30.6767 45.5928 29.7153 45.7602Z" fill="white"/>
<defs>
<linearGradient id="paint0_linear_637_2574" x1="0" y1="0" x2="52.5" y2="60" gradientUnits="userSpaceOnUse">
<stop stop-color="#FFB45C"/>
<stop offset="1" stop-color="#FF900E"/>
</linearGradient>
</defs>
</svg>
