<svg width="55" height="55" viewBox="0 0 55 55" fill="none" xmlns="http://www.w3.org/2000/svg">
<path d="M41.4597 55H13.5403C6.06361 55 0 48.9391 0 41.4597V13.5403C0 6.06361 6.06089 0 13.5403 0H41.4597C48.9364 0 55 6.06089 55 13.5403V41.4597C55 48.9364 48.9391 55 41.4597 55Z" fill="url(#paint0_linear_637_2577)"/>
<path d="M32.8362 20.5518C32.9371 20.5518 33.0298 20.5518 33.1252 20.5518C36.7665 20.5518 40.4051 20.5546 44.0465 20.5464C44.2618 20.5464 44.3518 20.6118 44.4335 20.8162C45.3793 23.2311 45.7963 25.7359 45.6736 28.3252C45.5455 31.0044 44.8614 33.5392 43.6104 35.9186C42.3267 38.3607 40.5796 40.4076 38.3773 42.0566C36.3522 43.572 34.1063 44.624 31.637 45.1964C30.1843 45.5344 28.7179 45.7006 27.227 45.6734C27.148 45.6707 27.0662 45.6625 26.9463 45.6543C26.9872 45.5453 27.009 45.4608 27.0499 45.3872C28.6879 42.3918 30.3042 39.3828 31.9804 36.4119C32.7109 35.1173 33.5612 33.888 34.3762 32.6397C35.0821 31.555 35.6872 30.4293 35.9897 29.1619C36.2296 28.1534 36.2459 27.1341 36.0797 26.112C35.7471 24.0978 34.8095 22.4161 33.3159 21.0343C33.166 20.8953 33.008 20.7644 32.8553 20.6309C32.8417 20.6227 32.8444 20.6009 32.8362 20.5518Z" fill="white"/>
<path d="M12.0619 17.7227C12.3099 18.126 12.5225 18.464 12.7242 18.8074C13.5364 20.1729 14.3622 21.5303 15.1554 22.9067C16.1693 24.6565 17.1723 26.4118 18.1508 28.1834C18.6768 29.1346 19.1265 30.1322 19.6389 31.0916C20.4512 32.6124 21.5414 33.9016 22.9968 34.8447C24.6949 35.9485 26.5591 36.3982 28.5733 36.0875C29.0966 36.0085 29.6091 35.8504 30.1242 35.7305C30.1923 35.7141 30.2632 35.6978 30.3804 35.6705C30.2795 35.8586 30.206 36.0085 30.1242 36.1529C28.8268 38.4015 27.524 40.6474 26.2266 42.896C25.7769 43.6755 25.3245 44.455 24.8829 45.24C24.7903 45.4063 24.6976 45.4553 24.4959 45.4226C22.4217 45.0819 20.4648 44.4005 18.6332 43.3784C16.4854 42.1764 14.6402 40.612 13.1194 38.6686C11.8057 36.987 10.7999 35.1418 10.1376 33.1139C9.37174 30.7618 9.091 28.3496 9.3145 25.8857C9.52709 23.5009 10.1758 21.2386 11.2933 19.1181C11.5304 18.6684 11.7838 18.2296 12.0619 17.7227Z" fill="white"/>
<path d="M43.3485 18.5894C43.0433 18.5894 42.7761 18.5867 42.5063 18.5894C37.6848 18.633 32.866 18.6766 28.0445 18.7175C26.818 18.7284 25.6078 18.8374 24.4494 19.279C22.4325 20.0476 20.898 21.3695 19.8378 23.2474C19.4344 23.9642 19.1482 24.7274 18.9738 25.5341C18.9574 25.6132 18.9247 25.6868 18.8811 25.8149C18.6576 25.4224 18.4532 25.0708 18.2542 24.7165C17.3711 23.1465 16.488 21.5766 15.6022 20.0094C14.8881 18.7393 14.174 17.4692 13.4545 16.2045C13.3536 16.0274 13.3646 15.9129 13.4981 15.7548C14.9481 14.0404 16.6434 12.6259 18.6031 11.5356C20.2793 10.6035 22.0618 9.95207 23.9534 9.58139C25.9294 9.19436 27.9082 9.13985 29.8979 9.4015C31.8684 9.66315 33.7491 10.2355 35.5289 11.1241C38.0228 12.3696 40.1432 14.0813 41.8358 16.2999C42.3564 16.9813 42.798 17.7199 43.2749 18.434C43.2995 18.4667 43.3104 18.5049 43.3485 18.5894Z" fill="white"/>
<path d="M33.3594 27.4532C33.3676 30.683 30.7238 33.3377 27.4831 33.3513C24.2451 33.3676 21.5822 30.7157 21.5713 27.4641C21.5604 24.2261 24.2288 21.5605 27.4722 21.5659C30.7074 21.5714 33.3485 24.2125 33.3594 27.4532Z" fill="white"/>
<defs>
<linearGradient id="paint0_linear_637_2577" x1="10.5" y1="5.5" x2="55" y2="55" gradientUnits="userSpaceOnUse">
<stop stop-color="#BFE661"/>
<stop offset="1" stop-color="#97C130"/>
<stop offset="1" stop-color="#8BBC12"/>
</linearGradient>
</defs>
</svg>
