<svg width="55" height="55" viewBox="0 0 55 55" fill="none" xmlns="http://www.w3.org/2000/svg">
<path d="M41.4597 55H13.5403C6.06361 55 0 48.9391 0 41.4597V13.5403C0 6.06362 6.06089 0 13.5403 0H41.4597C48.9364 0 55 6.06089 55 13.5403V41.4597C55 48.9391 48.9391 55 41.4597 55Z" fill="url(#paint0_linear_637_2585)"/>
<path d="M30.0232 14.4749C29.9281 17.5271 29.3928 20.3276 28.5042 23.057C28.2922 23.7052 28.3547 24.1783 28.7188 24.7527C30.0802 26.8996 31.5531 28.9535 33.3493 30.7585C33.5178 30.9281 33.6781 30.9691 33.8982 30.939C35.6809 30.6901 37.469 30.5233 39.2706 30.537C40.9364 30.5479 42.5913 30.6682 44.1647 31.2672C44.7164 31.4778 45.2571 31.7595 45.7354 32.1041C46.7191 32.8151 47.2381 33.8134 47.037 35.0386C46.8251 36.3349 46.0886 37.2484 44.7951 37.6504C43.8087 37.954 42.8006 37.9732 41.7897 37.8747C38.3712 37.541 35.5151 35.963 32.9417 33.7806C32.7488 33.6192 32.583 33.5727 32.3412 33.6192C29.2379 34.2318 26.1943 35.0769 23.197 36.0806C23.0829 36.1189 22.966 36.231 22.9035 36.3377C21.6997 38.3834 20.4279 40.3799 18.917 42.2122C17.8409 43.5168 16.6779 44.7256 15.2376 45.6336C14.3382 46.1997 13.3789 46.6072 12.3055 46.6373C11.0392 46.6729 9.89245 46.3337 9.06363 45.3191C8.17232 44.2279 8.17505 43.0245 8.80549 41.8075C9.31093 40.8284 10.0963 40.0927 10.9414 39.4199C12.6371 38.0661 14.5366 37.0488 16.4822 36.1216C17.254 35.7524 18.0448 35.4242 18.8219 35.066C18.9279 35.0167 19.0366 34.9183 19.0937 34.8143C21.2187 30.8323 22.9579 26.6835 24.39 22.4007C24.4226 22.2995 24.409 22.16 24.3655 22.0588C23.5584 20.169 22.9252 18.2245 22.6046 16.187C22.3546 14.6062 22.2622 13.02 22.6861 11.4501C23.0312 10.1757 23.7867 9.27041 25.0802 8.91214C26.4199 8.54293 27.9308 9.10632 28.8085 10.2714C29.496 11.1848 29.8085 12.246 29.9471 13.3646C29.9879 13.7939 30.0042 14.2206 30.0232 14.4749ZM34.9445 32.6592C35.026 32.7331 35.0477 32.7577 35.0749 32.7796C35.3249 32.9656 35.5695 33.1597 35.8249 33.3375C37.3684 34.4068 39.0315 35.2109 40.8685 35.6157C41.5505 35.7661 42.2326 35.7387 42.8413 35.3394C43.6837 34.787 43.7218 33.6165 42.9093 33.023C42.6837 32.8562 42.4201 32.703 42.1511 32.6456C41.5533 32.5198 40.9445 32.3912 40.3386 32.3885C39.0206 32.3803 37.6999 32.4377 36.382 32.4897C35.92 32.5061 35.4608 32.5963 34.9445 32.6592ZM18.0094 37.6504C17.9714 37.6641 17.9333 37.6778 17.8953 37.6942C16.7159 38.3095 15.5175 38.8921 14.3599 39.5485C13.2648 40.1665 12.2376 40.894 11.3626 41.8102C10.9767 42.2122 10.6316 42.6471 10.4794 43.2023C10.2647 43.9899 10.8028 44.6053 11.6071 44.4877C12.2403 44.3947 12.7485 44.0501 13.2268 43.6563C15.2431 42.0071 16.667 39.8684 18.0094 37.6504ZM25.6726 19.9693C25.7459 19.756 25.8057 19.5974 25.8547 19.4388C26.5014 17.4095 26.8873 15.3309 26.9851 13.2032C27.0096 12.6617 26.9715 12.1256 26.7704 11.6142C26.6509 11.3134 26.477 11.0618 26.1672 10.9332C25.6753 10.7281 25.0775 10.9606 24.8709 11.5185C24.6889 12.0163 24.5693 12.5523 24.5041 13.0801C24.3628 14.237 24.4987 15.3884 24.7079 16.5288C24.9172 17.683 25.2378 18.8097 25.6726 19.9693ZM30.7732 31.434C29.4417 30.0173 28.2786 28.5268 27.2704 26.9378C26.4416 28.9753 25.6155 31.0046 24.8003 33.0066C26.7596 32.4897 28.746 31.9673 30.7732 31.434Z" fill="white"/>
<defs>
<linearGradient id="paint0_linear_637_2585" x1="3.5" y1="-1.60912e-06" x2="55" y2="55" gradientUnits="userSpaceOnUse">
<stop stop-color="#FF7176"/>
<stop offset="1" stop-color="#ED1C24"/>
</linearGradient>
</defs>
</svg>
