<svg width="54" height="54" viewBox="0 0 54 54" fill="none" xmlns="http://www.w3.org/2000/svg">
<rect width="54" height="54" rx="8" fill="url(#paint0_linear_637_76)"/>
<path fill-rule="evenodd" clip-rule="evenodd" d="M23.5347 30.656C23.1359 30.656 22.8367 30.3518 22.8367 29.9463C22.8367 29.5407 23.1359 29.2365 23.5347 29.2365H25.8281V26.3976H24.5318C24.0665 26.3976 23.6344 26.1948 23.3021 25.8906L23.2688 25.8568C22.9697 25.5526 22.8035 25.1133 22.8035 24.6739V22.4771C22.8035 22.0039 23.0029 21.5646 23.3021 21.2266C23.6012 20.9224 24.0333 20.7197 24.5318 20.7197H25.8281V20.2127C25.8281 19.8071 26.1272 19.503 26.5261 19.503C26.9249 19.503 27.2241 19.8071 27.2241 20.2127V20.7197H28.9856C29.3845 20.7197 29.6836 21.0238 29.6836 21.4294C29.6836 21.835 29.3845 22.1391 28.9856 22.1391H27.2241V24.9443H28.5203C28.9856 24.9443 29.3845 25.1133 29.6836 25.4174L29.7168 25.4513C30.016 25.7554 30.2154 26.1948 30.2154 26.7017V28.8985C30.2154 29.3717 30.016 29.8111 29.7168 30.149C29.4177 30.4532 28.9856 30.656 28.4871 30.656H27.1908V31.1629C27.1908 31.5685 26.8917 31.8727 26.4928 31.8727C26.094 31.8727 25.7949 31.5685 25.7949 31.1629V30.656H23.5347ZM25.9943 39.1391C25.5954 39.1391 25.2963 38.8349 25.2963 38.4293C25.2963 38.0238 25.5954 37.7196 25.9943 37.7196H27.0911C27.4899 37.7196 27.7891 38.0238 27.7891 38.4293C27.7891 38.8349 27.4899 39.1391 27.0911 39.1391H25.9943ZM19.646 14.9404H33.4394V14.3658C33.4394 14.0954 33.3397 13.8251 33.1735 13.6561C33.0406 13.4871 32.8411 13.3857 32.6417 13.3857H20.4437C20.2442 13.3857 20.0448 13.4871 19.9119 13.6561C19.7457 13.8251 19.646 14.0954 19.646 14.3658V14.9404ZM33.4394 16.3598H19.646V35.3876H33.4394V16.3598ZM33.4394 36.8409H19.646V38.9025C19.646 39.1729 19.7457 39.4432 19.9119 39.6122C20.0448 39.7812 20.2442 39.8826 20.4437 39.8826H32.6417C32.8411 39.8826 33.0406 39.7812 33.1735 39.6122C33.3397 39.4432 33.4394 39.1729 33.4394 38.9025V36.8409ZM20.4437 12C19.8122 12 19.2804 12.2704 18.8815 12.7097C18.4827 13.1491 18.25 13.7237 18.25 14.3658V15.6501V36.1311V38.9025C18.25 39.5446 18.4827 40.1192 18.8815 40.5586C19.2804 40.9979 19.8454 41.2683 20.4437 41.2683H32.6417C33.2732 41.2683 33.805 40.9979 34.2039 40.5586C34.6027 40.1192 34.8354 39.5446 34.8354 38.9025V36.1311V15.6501V14.3658C34.8354 13.7237 34.6027 13.1491 34.2039 12.7097C33.805 12.2704 33.24 12 32.6417 12H20.4437ZM27.2573 29.2027H28.5535C28.6533 29.2027 28.7197 29.1689 28.7862 29.1013C28.8527 29.0338 28.8859 28.9662 28.8859 28.8648V26.668C28.8859 26.5666 28.8527 26.499 28.7862 26.4314L28.753 26.3976C28.6865 26.3638 28.62 26.33 28.5535 26.33H27.2573V29.2027ZM25.8281 22.1053H24.5318C24.4321 22.1053 24.3656 22.1391 24.2992 22.2067C24.2327 22.2743 24.1995 22.3419 24.1995 22.4433V24.6401C24.1995 24.7077 24.2327 24.8091 24.2659 24.8429L24.2992 24.8767C24.3656 24.9443 24.4321 24.9781 24.5318 24.9781H25.8281V22.1053Z" fill="white"/>
<defs>
<linearGradient id="paint0_linear_637_76" x1="0" y1="0" x2="54" y2="54" gradientUnits="userSpaceOnUse">
<stop stop-color="#FC9B3D"/>
<stop offset="1" stop-color="#FA7222"/>
</linearGradient>
</defs>
</svg>
