<svg width="55" height="55" viewBox="0 0 55 55" fill="none" xmlns="http://www.w3.org/2000/svg">
<rect width="55" height="55" rx="8" fill="#E1001B"/>
<path d="M15.1572 22.2246C15.1572 22.8171 15.0137 23.332 14.7266 23.7695C14.4395 24.207 14.0202 24.5443 13.4688 24.7812C12.9219 25.0182 12.2565 25.1367 11.4727 25.1367C11.1263 25.1367 10.7868 25.1139 10.4541 25.0684C10.126 25.0228 9.80924 24.9567 9.50391 24.8701C9.20312 24.779 8.91602 24.6673 8.64258 24.5352V22.5664C9.11654 22.776 9.60872 22.9652 10.1191 23.1338C10.6296 23.3024 11.1354 23.3867 11.6367 23.3867C11.9831 23.3867 12.2611 23.3411 12.4707 23.25C12.6849 23.1589 12.8398 23.0335 12.9355 22.874C13.0312 22.7145 13.0791 22.5322 13.0791 22.3271C13.0791 22.0765 12.9948 21.8623 12.8262 21.6846C12.6576 21.5068 12.4251 21.3405 12.1289 21.1855C11.8372 21.0306 11.5068 20.8643 11.1377 20.6865C10.9053 20.5771 10.6523 20.445 10.3789 20.29C10.1055 20.1305 9.8457 19.9368 9.59961 19.709C9.35352 19.4811 9.15072 19.2054 8.99121 18.8818C8.83626 18.5537 8.75879 18.1618 8.75879 17.7061C8.75879 17.109 8.89551 16.5986 9.16895 16.1748C9.44238 15.751 9.83203 15.4274 10.3379 15.2041C10.8483 14.9762 11.4499 14.8623 12.1426 14.8623C12.6621 14.8623 13.1566 14.9238 13.626 15.0469C14.0999 15.1654 14.5944 15.3385 15.1094 15.5664L14.4258 17.2139C13.9655 17.027 13.5531 16.8835 13.1885 16.7832C12.8239 16.6784 12.4525 16.626 12.0742 16.626C11.8099 16.626 11.5843 16.6693 11.3975 16.7559C11.2106 16.8379 11.0693 16.9564 10.9736 17.1113C10.8779 17.2617 10.8301 17.4372 10.8301 17.6377C10.8301 17.8747 10.8984 18.0752 11.0352 18.2393C11.1764 18.3988 11.3861 18.5537 11.6641 18.7041C11.9466 18.8545 12.2975 19.0299 12.7168 19.2305C13.2272 19.472 13.6624 19.7249 14.0225 19.9893C14.387 20.249 14.6673 20.5566 14.8633 20.9121C15.0592 21.263 15.1572 21.7005 15.1572 22.2246ZM23.0869 25L22.3623 22.6211H18.7188L17.9941 25H15.7109L19.2383 14.9648H21.8291L25.3701 25H23.0869ZM21.8564 20.8438L21.1318 18.5195C21.0863 18.3646 21.0247 18.1663 20.9473 17.9248C20.8743 17.6787 20.7992 17.4303 20.7217 17.1797C20.6488 16.9245 20.5895 16.7035 20.5439 16.5166C20.4984 16.7035 20.4346 16.9359 20.3525 17.2139C20.2751 17.4873 20.1999 17.7471 20.127 17.9932C20.054 18.2393 20.0016 18.4147 19.9697 18.5195L19.252 20.8438H21.8564ZM26.6348 25V15.0059H28.7539V23.25H32.8076V25H26.6348ZM40.3066 25H34.5508V15.0059H40.3066V16.7422H36.6699V18.9365H40.0537V20.6729H36.6699V23.25H40.3066V25ZM13.1133 41H10.9941V32.7695H8.28027V31.0059H15.8271V32.7695H13.1133V41ZM26.4365 35.9893C26.4365 36.7594 26.3408 37.4613 26.1494 38.0947C25.958 38.7236 25.6663 39.266 25.2744 39.7217C24.887 40.1774 24.3949 40.5283 23.7979 40.7744C23.2008 41.016 22.4945 41.1367 21.6787 41.1367C20.863 41.1367 20.1566 41.016 19.5596 40.7744C18.9626 40.5283 18.4681 40.1774 18.0762 39.7217C17.6888 39.266 17.3994 38.7214 17.208 38.0879C17.0166 37.4544 16.9209 36.7503 16.9209 35.9756C16.9209 34.9411 17.0895 34.041 17.4268 33.2754C17.7686 32.5052 18.2926 31.9082 18.999 31.4844C19.7054 31.0605 20.6032 30.8486 21.6924 30.8486C22.777 30.8486 23.668 31.0605 24.3652 31.4844C25.0671 31.9082 25.5866 32.5052 25.9238 33.2754C26.2656 34.0456 26.4365 34.9502 26.4365 35.9893ZM19.1426 35.9893C19.1426 36.6865 19.2292 37.2881 19.4023 37.7939C19.5801 38.2952 19.8558 38.6826 20.2295 38.9561C20.6032 39.2249 21.0863 39.3594 21.6787 39.3594C22.2803 39.3594 22.7679 39.2249 23.1416 38.9561C23.5153 38.6826 23.7865 38.2952 23.9551 37.7939C24.1283 37.2881 24.2148 36.6865 24.2148 35.9893C24.2148 34.9411 24.0189 34.1162 23.627 33.5146C23.235 32.9131 22.5902 32.6123 21.6924 32.6123C21.0954 32.6123 20.6077 32.749 20.2295 33.0225C19.8558 33.2913 19.5801 33.6787 19.4023 34.1846C19.2292 34.6859 19.1426 35.2874 19.1426 35.9893ZM37.5791 35.9893C37.5791 36.7594 37.4834 37.4613 37.292 38.0947C37.1006 38.7236 36.8089 39.266 36.417 39.7217C36.0296 40.1774 35.5374 40.5283 34.9404 40.7744C34.3434 41.016 33.637 41.1367 32.8213 41.1367C32.0055 41.1367 31.2992 41.016 30.7021 40.7744C30.1051 40.5283 29.6107 40.1774 29.2188 39.7217C28.8314 39.266 28.542 38.7214 28.3506 38.0879C28.1592 37.4544 28.0635 36.7503 28.0635 35.9756C28.0635 34.9411 28.2321 34.041 28.5693 33.2754C28.9111 32.5052 29.4352 31.9082 30.1416 31.4844C30.848 31.0605 31.7458 30.8486 32.835 30.8486C33.9196 30.8486 34.8105 31.0605 35.5078 31.4844C36.2096 31.9082 36.7292 32.5052 37.0664 33.2754C37.4082 34.0456 37.5791 34.9502 37.5791 35.9893ZM30.2852 35.9893C30.2852 36.6865 30.3717 37.2881 30.5449 37.7939C30.7227 38.2952 30.9984 38.6826 31.3721 38.9561C31.7458 39.2249 32.2288 39.3594 32.8213 39.3594C33.4229 39.3594 33.9105 39.2249 34.2842 38.9561C34.6579 38.6826 34.929 38.2952 35.0977 37.7939C35.2708 37.2881 35.3574 36.6865 35.3574 35.9893C35.3574 34.9411 35.1615 34.1162 34.7695 33.5146C34.3776 32.9131 33.7327 32.6123 32.835 32.6123C32.238 32.6123 31.7503 32.749 31.3721 33.0225C30.9984 33.2913 30.7227 33.6787 30.5449 34.1846C30.3717 34.6859 30.2852 35.2874 30.2852 35.9893ZM39.6504 41V31.0059H41.7695V39.25H45.8232V41H39.6504Z" fill="#FFC20E"/>
</svg>
