<svg width="55" height="55" viewBox="0 0 55 55" fill="none" xmlns="http://www.w3.org/2000/svg">
<g clip-path="url(#clip0_637_2673)">
<rect width="55" height="55" rx="8" fill="#E1001B"/>
<path d="M3.89844 39V31.8613H5.41211V39H3.89844ZM13.542 39H11.6182L8.5127 33.5996H8.46875C8.48177 33.8242 8.49316 34.0505 8.50293 34.2783C8.5127 34.5062 8.52246 34.734 8.53223 34.9619C8.54199 35.1865 8.55176 35.4128 8.56152 35.6406V39H7.20898V31.8613H9.11816L12.2188 37.208H12.2529C12.2464 36.9867 12.2383 36.7669 12.2285 36.5488C12.2188 36.3307 12.209 36.1126 12.1992 35.8945C12.1927 35.6764 12.1862 35.4583 12.1797 35.2402V31.8613H13.542V39ZM18.0977 39H16.584V33.1211H14.6455V31.8613H20.0361V33.1211H18.0977V39ZM23.2148 31.8613C23.8626 31.8613 24.3965 31.9395 24.8164 32.0957C25.2396 32.252 25.5537 32.488 25.7588 32.8037C25.9639 33.1195 26.0664 33.5182 26.0664 34C26.0664 34.3255 26.0046 34.6104 25.8809 34.8545C25.7572 35.0986 25.5944 35.3053 25.3926 35.4746C25.1908 35.6439 24.9727 35.7822 24.7383 35.8896L26.8379 39H25.1582L23.4541 36.2607H22.6484V39H21.1348V31.8613H23.2148ZM23.1074 33.1016H22.6484V35.0303H23.1367C23.638 35.0303 23.9961 34.9473 24.2109 34.7812C24.429 34.612 24.5381 34.3646 24.5381 34.0391C24.5381 33.7005 24.4209 33.4596 24.1865 33.3164C23.9554 33.1732 23.5957 33.1016 23.1074 33.1016ZM32.1064 39L31.5889 37.3008H28.9863L28.4688 39H26.8379L29.3574 31.832H31.208L33.7373 39H32.1064ZM31.2275 36.0312L30.71 34.3711C30.6774 34.2604 30.6335 34.1188 30.5781 33.9463C30.526 33.7705 30.4723 33.5931 30.417 33.4141C30.3649 33.2318 30.3226 33.0739 30.29 32.9404C30.2575 33.0739 30.2119 33.2399 30.1533 33.4385C30.098 33.6338 30.0443 33.8193 29.9922 33.9951C29.9401 34.1709 29.9027 34.2962 29.8799 34.3711L29.3672 36.0312H31.2275ZM40.9736 39H39.0498L35.9443 33.5996H35.9004C35.9134 33.8242 35.9248 34.0505 35.9346 34.2783C35.9443 34.5062 35.9541 34.734 35.9639 34.9619C35.9736 35.1865 35.9834 35.4128 35.9932 35.6406V39H34.6406V31.8613H36.5498L39.6504 37.208H39.6846C39.6781 36.9867 39.6699 36.7669 39.6602 36.5488C39.6504 36.3307 39.6406 36.1126 39.6309 35.8945C39.6243 35.6764 39.6178 35.4583 39.6113 35.2402V31.8613H40.9736V39ZM46.8867 39H42.7754V31.8613H46.8867V33.1016H44.2891V34.6689H46.7061V35.9092H44.2891V37.75H46.8867V39ZM51.1348 39H49.6211V33.1211H47.6826V31.8613H53.0732V33.1211H51.1348V39Z" fill="#FFC20E"/>
<path fill-rule="evenodd" clip-rule="evenodd" d="M4 23.9738V15.5519C4.00179 15.2927 4.1084 15.0447 4.29661 14.8619C4.38702 14.7671 4.49688 14.692 4.61902 14.6414C4.74115 14.5909 4.87283 14.566 5.00546 14.5685H5.9707V18.0686H9.90706V14.5685H11.8966V23.9738H9.90706V19.7911H5.97195V23.9738H4Z" fill="white"/>
<path fill-rule="evenodd" clip-rule="evenodd" d="M14.8238 22.282H16.0919C17.0044 22.282 17.6805 22.0463 18.1116 21.5724C18.5239 21.1329 18.74 20.3668 18.74 19.2717C18.74 18.2122 18.5465 17.4486 18.1481 16.9391C17.771 16.4481 17.1766 16.1952 16.3471 16.1952H14.8238V22.282ZM12.877 23.9737V15.5519C12.8748 15.4236 12.8994 15.2963 12.9493 15.1776C12.9992 15.059 13.0734 14.9516 13.1673 14.8619C13.2613 14.7669 13.3743 14.6917 13.4992 14.641C13.6242 14.5903 13.7585 14.5652 13.8937 14.5673H16.3445C17.8175 14.5673 18.9361 14.9638 19.6688 15.7176C20.4066 16.5279 20.7673 17.7113 20.7673 19.2779C20.7809 20.0506 20.6457 20.8189 20.3689 21.5429C20.0672 22.2415 19.6726 22.7706 19.1824 23.1389C18.7929 23.4433 18.3438 23.6668 17.8628 23.7957C17.4028 23.9295 16.7316 23.9811 15.8079 23.9811L12.877 23.9737Z" fill="white"/>
<path fill-rule="evenodd" clip-rule="evenodd" d="M23.6416 22.282H25.9944C26.5122 22.282 26.9169 22.1924 27.2034 21.9812C27.4548 21.7959 27.5893 21.4902 27.5893 21.0457C27.5893 20.6197 27.456 20.2956 27.2034 20.0918C26.952 19.9089 26.5499 19.8217 25.9717 19.8217H23.6466L23.6416 22.282ZM23.6416 18.2061H25.9039C26.3978 18.2061 26.7409 18.1251 26.9759 17.9606C27.211 17.7961 27.3115 17.5432 27.3115 17.1957C27.3115 16.8483 27.1971 16.5819 26.9759 16.4309C26.7836 16.2885 26.4116 16.2013 25.8825 16.2013H23.6416V18.2061ZM21.7388 23.9762V15.5519C21.7358 15.4232 21.7605 15.2954 21.8111 15.1765C21.8618 15.0577 21.9373 14.9505 22.0329 14.8619C22.1231 14.7682 22.2322 14.6936 22.3533 14.6429C22.4744 14.5922 22.6049 14.5665 22.7367 14.5673H26.2759C27.2587 14.5673 28.0229 14.7723 28.5382 15.1811C29.0535 15.5899 29.3174 16.205 29.3174 16.949C29.3348 17.3704 29.2284 17.7879 29.0107 18.1521C28.8013 18.4722 28.5032 18.7276 28.1511 18.8887C28.5972 19.0679 28.9829 19.3656 29.2646 19.7481C29.5047 20.1004 29.6316 20.5559 29.6316 21.1243C29.6316 22.0279 29.335 22.7375 28.7355 23.2519C28.1159 23.7429 27.2487 23.9885 26.1339 23.9885L21.7388 23.9762Z" fill="white"/>
<path fill-rule="evenodd" clip-rule="evenodd" d="M44.8555 23.9737H43.85C43.5929 23.9836 43.342 23.8955 43.15 23.7282C43.0593 23.64 42.9885 23.5342 42.9419 23.4178C42.8954 23.3013 42.8742 23.1766 42.8798 23.0517V19.1416C42.8798 18.7033 42.7428 18.3829 42.4625 18.1828C42.1945 17.9902 41.8702 17.8869 41.5375 17.8881C41.2078 17.8838 40.8861 17.9876 40.6238 18.1828C40.3611 18.3829 40.2304 18.7033 40.2304 19.1416V23.9737H38.2195V19.5185C38.2195 18.2834 38.5626 17.4548 39.2249 17.0361C39.8958 16.6127 40.6725 16.3766 41.4709 16.3535C42.2847 16.3473 43.0847 16.5597 43.7834 16.9674C44.4847 17.4032 44.8492 18.2417 44.8492 19.516L44.8555 23.9737Z" fill="white"/>
<path fill-rule="evenodd" clip-rule="evenodd" d="M35.3251 20.1545C34.9537 20.3098 34.5665 20.4263 34.1701 20.5019L33.4951 20.6431C33.1407 20.7389 32.8755 20.8567 32.7272 21.0028C32.5994 21.1787 32.5277 21.3876 32.5211 21.6031C32.5144 21.7251 32.5341 21.8471 32.5789 21.9611C32.6237 22.0752 32.6927 22.1787 32.7813 22.2649C32.961 22.4183 33.2161 22.4871 33.5555 22.4871C34.1022 22.4871 34.5383 22.3447 34.8462 22.0463C35.1541 21.748 35.3238 21.3478 35.3238 20.8334L35.3251 20.1545ZM35.8014 23.2973C35.0473 23.8879 34.1939 23.9738 33.2626 23.9738C32.6015 23.9851 31.9521 23.8021 31.3988 23.4483C30.8634 23.08 30.6057 22.4871 30.6057 21.6608C30.6057 20.8899 30.842 20.3423 31.3322 20.0121C31.8223 19.6818 32.4331 19.4608 33.1822 19.3491C33.2973 19.3474 33.4119 19.3338 33.5241 19.3086C33.6815 19.2758 33.8411 19.2533 34.0016 19.2411C34.8638 19.1281 35.2987 18.8826 35.2987 18.5241C35.2987 18.2442 35.1428 18.0687 34.8487 17.9901C34.574 17.9093 34.2886 17.8679 34.0016 17.8673C33.7519 17.862 33.5033 17.9006 33.2677 17.9815C33.1615 18.0097 33.063 18.0603 32.979 18.1296C32.8949 18.199 32.8275 18.2854 32.7813 18.3829H30.8131C30.8842 17.8246 31.1789 17.3165 31.6325 16.9699C32.1692 16.5611 32.9245 16.3413 33.9099 16.3413C35.0134 16.3413 35.8404 16.523 36.3909 16.8704C36.6591 17.0301 36.8793 17.2563 37.0289 17.5261C37.1786 17.7959 37.2525 18.0996 37.243 18.4063V20.9206C37.243 21.6572 37.101 22.2231 36.8094 22.6393C36.4462 22.9794 36.2036 23.0272 35.8039 23.2949" fill="white"/>
<path fill-rule="evenodd" clip-rule="evenodd" d="M37.243 24.0045H36.3632C36.2461 24.0092 36.1293 23.9882 36.0216 23.9429C35.9139 23.8977 35.8181 23.8293 35.7411 23.743C35.5802 23.5577 35.4959 23.3204 35.5048 23.0776V20.8567H37.243V24.0045Z" fill="white"/>
<path fill-rule="evenodd" clip-rule="evenodd" d="M47.7725 16.7034V19.257L50.1316 16.3413H52.458L49.8287 19.4878L52.4919 23.9737H50.1643L48.8031 21.5184C48.5204 21.0187 48.279 20.8063 48.0742 20.8898C47.8693 20.9733 47.7725 21.0752 47.7725 21.2176V23.9737H45.8282V14.5624H46.8337C46.9597 14.5595 47.0848 14.5832 47.2005 14.6317C47.3163 14.6802 47.4201 14.7524 47.5048 14.8435C47.6759 15.0079 47.7739 15.2315 47.7776 15.4659L47.7725 16.7034Z" fill="white"/>
</g>
<defs>
<clipPath id="clip0_637_2673">
<rect width="55" height="55" rx="8" fill="white"/>
</clipPath>
</defs>
</svg>
