<svg width="55" height="55" viewBox="0 0 55 55" fill="none" xmlns="http://www.w3.org/2000/svg">
<path d="M41.4597 55H13.5403C6.06361 55 0 48.9391 0 41.4596V13.5403C0 6.06362 6.06089 0 13.5403 0H41.4597C48.9364 0 55 6.06089 55 13.5403V41.4596C55 48.9391 48.9391 55 41.4597 55Z" fill="url(#paint0_linear_637_2533)"/>
<path d="M24.9533 28C26.488 28 27.62 26.868 27.62 25.3333C27.62 23.7986 26.488 22.6666 24.9533 22.6666C23.4186 22.6666 22.2866 23.7986 22.2866 25.3333C22.2866 26.868 23.4173 28 24.9533 28Z" fill="white"/>
<path d="M38.6667 17.3334H17.3334C15.8627 17.3334 14.6667 18.4547 14.6667 19.8334V36.1667C14.6667 37.5454 15.8627 38.6667 17.3334 38.6667H38.6667C40.1374 38.6667 41.3334 37.5454 41.3334 36.1667V19.8334C41.3334 18.4547 40.1374 17.3334 38.6667 17.3334ZM38.6667 36L17.3334 35.9854V20L38.6667 20.0147V36Z" fill="white"/>
<path d="M30.6667 24H36V26.6667H30.6667V24ZM32 29.3333H36V32H32V29.3333ZM29.9067 32.7147C29.9067 30.8827 27.672 29 24.9533 29C22.2347 29 20 30.8827 20 32.7147V33.3333H29.9067V32.7147Z" fill="white"/>
<defs>
<linearGradient id="paint0_linear_637_2533" x1="0" y1="0" x2="52.5" y2="60" gradientUnits="userSpaceOnUse">
<stop stop-color="#FFB45C"/>
<stop offset="1" stop-color="#FF900E"/>
</linearGradient>
</defs>
</svg>
