<svg width="55" height="55" viewBox="0 0 55 55" fill="none" xmlns="http://www.w3.org/2000/svg">
<path d="M41.4597 55H13.5403C6.06361 55 0 48.9391 0 41.4597V13.5403C0 6.06362 6.06089 0 13.5403 0H41.4597C48.9364 0 55 6.06089 55 13.5403V41.4597C55 48.9391 48.9391 55 41.4597 55Z" fill="url(#paint0_linear_637_2541)"/>
<path d="M37.6668 33.6667C37.6668 34.4027 37.0694 35 36.3334 35C35.5974 35 35.0001 34.4027 35.0001 33.6667V17.6667C35.0001 16.9294 34.4041 16.3334 33.6667 16.3334H15.0001C14.2627 16.3334 13.6667 16.9294 13.6667 17.6667V35C13.6667 36.472 14.8614 37.6667 16.3334 37.6667H31.0001H33.8961H36.3334C38.5388 37.6667 40.3334 35.872 40.3334 33.6667V20.3334H37.6668V33.6667ZM27.0001 20.3334H31.0001V23H27.0001V20.3334ZM27.0001 25.6667H31.0001V28.3334H27.0001V25.6667ZM17.6667 20.3334H24.3334V28.3334H17.6667V20.3334ZM17.6667 33.6667V31H31.0001V33.6667H17.6667Z" fill="white"/>
<defs>
<linearGradient id="paint0_linear_637_2541" x1="3.5" y1="-1.60912e-06" x2="55" y2="55" gradientUnits="userSpaceOnUse">
<stop stop-color="#FF7176"/>
<stop offset="1" stop-color="#ED1C24"/>
</linearGradient>
</defs>
</svg>
