<svg width="54" height="54" viewBox="0 0 54 54" fill="none" xmlns="http://www.w3.org/2000/svg">
<rect width="54" height="54" rx="8" fill="url(#paint0_linear_637_85)"/>
<path fill-rule="evenodd" clip-rule="evenodd" d="M19.5001 16.7453H13.6417C13.6095 16.7453 13.6095 16.7453 13.5773 16.7773C13.5773 16.7773 13.5773 16.8093 13.5773 16.8413V39.1497C13.5773 39.1817 13.5773 39.1817 13.6095 39.2137C13.6095 39.2137 13.6417 39.2457 13.6738 39.2457H19.5323C19.5645 39.2457 19.5645 39.2457 19.5967 39.2137C19.5967 39.2137 19.6289 39.1817 19.6289 39.1497V16.8413C19.6289 16.8093 19.6289 16.8093 19.5967 16.7773C19.5323 16.7453 19.5323 16.7453 19.5001 16.7453ZM35.3373 19.9779C35.7558 19.9139 36.142 20.202 36.2064 20.6501C36.2708 21.0661 35.9811 21.4502 35.5304 21.5142L32.1505 21.9623C31.7321 22.0263 31.3458 21.7383 31.2814 21.2902C31.2171 20.8741 31.5068 20.49 31.9574 20.426L35.3373 19.9779ZM35.4017 32.9085C35.1442 32.9405 34.9188 33.0685 34.7901 33.2605C34.6613 33.4526 34.5647 33.6766 34.5969 33.9327C34.6291 34.1887 34.7579 34.4128 34.951 34.5408C35.1442 34.6688 35.3695 34.7648 35.627 34.7328C35.8845 34.7008 36.1098 34.5728 36.2386 34.3808C36.3673 34.1887 36.4639 33.9647 36.4317 33.7086C36.3995 33.4526 36.2708 33.2285 36.0776 33.1005C35.8845 32.9405 35.6592 32.8765 35.4017 32.9085ZM33.5347 32.3324C33.921 31.8203 34.5004 31.4682 35.1763 31.3722C35.8523 31.2761 36.4961 31.4682 37.0111 31.8523C37.5262 32.2363 37.8802 32.8125 37.9768 33.4846C38.0734 34.1567 37.8803 34.7968 37.494 35.3089C37.1077 35.821 36.5283 36.1731 35.8523 36.2691C35.1763 36.3651 34.5326 36.1731 34.0175 35.789C33.5025 35.405 33.1484 34.8288 33.0518 34.1567C32.9875 33.4846 33.1806 32.8125 33.5347 32.3324ZM36.0455 16.0412L30.2514 16.8413C30.2192 16.8413 30.2192 16.8413 30.187 16.8733C30.187 16.9053 30.1548 16.9053 30.1548 16.9374C30.9595 24.2668 32.4724 31.7562 33.2128 39.0537C33.2128 39.0857 33.2128 39.0857 33.245 39.1177C33.2772 39.1177 33.2772 39.1497 33.3094 39.1497L39.1035 38.3495C39.1356 38.3495 39.1356 38.3495 39.1678 38.3175C39.1678 38.2855 39.2 38.2855 39.2 38.2535C38.3953 30.9241 36.8824 23.4346 36.142 16.1372C36.142 16.1052 36.142 16.1052 36.1098 16.0732C36.1098 16.0412 36.0776 16.0412 36.0455 16.0412ZM30.0904 15.305L35.7879 14.5369C35.8201 14.5369 35.8845 14.5369 35.9167 14.5049C36.3352 14.4729 36.7214 14.6009 37.0433 14.8249C37.3652 15.049 37.5905 15.401 37.6549 15.8171C37.6549 15.8491 37.6871 15.9131 37.6871 15.9451L40.7129 37.9335C40.7129 37.9655 40.7129 38.0295 40.7451 38.0615C40.7773 38.4776 40.6485 38.8616 40.4232 39.1817C40.1979 39.5018 39.8438 39.7258 39.4253 39.7898C39.3932 39.7898 39.3288 39.8218 39.2966 39.8218L33.5991 40.59C33.5669 40.59 33.5025 40.59 33.4703 40.622C33.0519 40.654 32.6656 40.526 32.3437 40.3019C32.0218 40.0779 31.7965 39.7258 31.7321 39.3097C31.7321 39.2777 31.6999 39.2137 31.6999 39.1817L28.7385 17.7055V39.1177C28.7385 39.5658 28.5453 39.9818 28.2556 40.2699C27.9659 40.558 27.5475 40.75 27.0968 40.75H21.2383C20.9165 40.75 20.6267 40.654 20.3692 40.494C20.1117 40.654 19.822 40.75 19.5001 40.75H13.6417C13.191 40.75 12.7725 40.558 12.4828 40.2699C12.1931 39.9818 12 39.5658 12 39.1177V16.8093C12 16.3932 12.161 16.0092 12.4185 15.7211L12.4828 15.6571C12.7725 15.369 13.191 15.177 13.6417 15.177H19.5001C19.822 15.177 20.1117 15.273 20.3692 15.4331C20.6267 15.273 20.9165 15.177 21.2383 15.177H27.0968C27.5475 15.177 27.9659 15.369 28.2556 15.6571C28.481 15.8811 28.6419 16.1692 28.7063 16.4573C28.7707 16.2652 28.8672 16.0732 28.9638 15.9132C29.1891 15.5931 29.5432 15.369 29.9617 15.305C29.9939 15.305 30.0582 15.305 30.0904 15.305ZM24.1354 33.3566C23.8779 33.3566 23.6525 33.4526 23.4916 33.6126C23.3307 33.7726 23.2341 33.9967 23.2341 34.2527C23.2341 34.5088 23.3307 34.7328 23.4916 34.8929C23.6525 35.0529 23.8779 35.1489 24.1354 35.1489C24.3929 35.1489 24.6182 35.0529 24.7792 34.8929L24.8114 34.8609C24.9723 34.7008 25.0689 34.4768 25.0689 34.2527C25.0689 33.9967 24.9723 33.7726 24.8114 33.6126C24.6182 33.4526 24.3929 33.3566 24.1354 33.3566ZM22.365 32.5244C21.9143 32.9725 21.6246 33.5806 21.6246 34.2527C21.6246 34.9249 21.9143 35.533 22.365 35.9811C22.8156 36.4292 23.4272 36.7172 24.1032 36.7172C24.7792 36.7172 25.3908 36.4292 25.8414 35.9811L25.8736 35.9171C26.2921 35.469 26.5496 34.8928 26.5496 34.2207C26.5496 33.5486 26.2599 32.9405 25.8092 32.4924C25.3586 32.0443 24.747 31.7562 24.071 31.7562C23.4272 31.7883 22.8156 32.0763 22.365 32.5244ZM25.8092 20.5541H22.3972C21.9787 20.5541 21.6246 20.9061 21.6246 21.3222C21.6246 21.7383 21.9787 22.0904 22.3972 22.0904H25.8092C26.2277 22.0904 26.5818 21.7383 26.5818 21.3222C26.5818 20.9061 26.2599 20.5541 25.8092 20.5541ZM27.0968 16.7453H21.2383C21.2062 16.7453 21.2062 16.7453 21.174 16.7773V16.8093V39.1177C21.174 39.1497 21.174 39.1497 21.2062 39.1817C21.2383 39.1817 21.2384 39.2137 21.2705 39.2137H27.129C27.1612 39.2137 27.1612 39.2137 27.1934 39.1817C27.1934 39.1817 27.2256 39.1497 27.2256 39.1177V16.8093C27.2256 16.7773 27.2256 16.7773 27.1934 16.7453C27.129 16.7453 27.0968 16.7453 27.0968 16.7453ZM16.5387 33.3566C16.7962 33.3566 17.0215 33.4526 17.1825 33.6126C17.3434 33.7726 17.44 33.9967 17.44 34.2527C17.44 34.5088 17.3434 34.7008 17.1825 34.8609L17.1503 34.8929C16.9893 35.0529 16.764 35.1489 16.5065 35.1489C16.249 35.1489 16.0559 35.0529 15.8949 34.8929L15.8627 34.8609C15.7018 34.7008 15.6052 34.4768 15.6052 34.2207C15.6052 33.9647 15.7018 33.7406 15.8627 33.5806C16.0559 33.4526 16.2812 33.3566 16.5387 33.3566ZM14.8005 32.5244C15.2511 32.0763 15.8627 31.7883 16.5387 31.7883C17.2147 31.7883 17.8263 32.0763 18.2769 32.5244C18.7276 32.9725 19.0173 33.5806 19.0173 34.2527C19.0173 34.8929 18.7598 35.501 18.3413 35.9491L18.3091 36.0131C17.8585 36.4612 17.2469 36.7492 16.5709 36.7492C15.9271 36.7492 15.3155 36.4932 14.8649 36.0771L14.8005 36.0451C14.3498 35.597 14.0601 34.9889 14.0601 34.3168C14.0601 33.5806 14.3498 32.9725 14.8005 32.5244ZM18.2447 20.5541C18.6632 20.5541 19.0173 20.9061 19.0173 21.3222C19.0173 21.7383 18.6632 22.0904 18.2447 22.0904H14.8327C14.4142 22.0904 14.0601 21.7383 14.0601 21.3222C14.0601 20.9061 14.4142 20.5541 14.8327 20.5541H18.2447Z" fill="white"/>
<defs>
<linearGradient id="paint0_linear_637_85" x1="0" y1="0" x2="54" y2="54" gradientUnits="userSpaceOnUse">
<stop stop-color="#F94F63"/>
<stop offset="1" stop-color="#EF0B30"/>
</linearGradient>
</defs>
</svg>
