<svg width="54" height="54" viewBox="0 0 54 54" fill="none" xmlns="http://www.w3.org/2000/svg">
<g id="Group 174">
<rect id="Rectangle 675" width="54" height="54" rx="8" fill="url(#paint0_linear_637_94)"/>
<g id="Frame 39546">
<path id="Vector" fill-rule="evenodd" clip-rule="evenodd" d="M33.3273 22.9626C33.3273 23.0019 33.3273 23.0412 33.3273 23.0412C33.2876 23.1591 33.2876 23.3162 33.2479 23.4341C32.9306 24.8485 32.2562 26.5379 31.2645 27.8345L31.3041 29.131C31.3041 29.2489 31.3438 29.3275 31.3835 29.3667C31.4231 29.406 31.4231 29.406 31.4628 29.4453L31.7405 29.4846C31.9785 29.5239 32.2165 29.5632 32.4942 29.6025C34.1207 26.3808 34.795 23.1198 34.5967 20.2124C34.3983 17.1086 33.1686 14.437 31.1058 12.669C30.4314 12.0796 29.7173 11.726 29.043 11.5689C28.4876 11.451 27.9322 11.5689 27.4959 11.8439C27.4562 11.8832 27.4165 11.8832 27.4165 11.9225C27.2975 12.0403 27.2182 12.1189 27.0595 12.1582C27.0198 12.1582 26.9802 12.1975 26.9405 12.1975C26.3454 12.3546 26.0678 12.1975 25.8694 11.6081C25.7107 11.6081 25.4727 11.6474 25.2347 11.726C24.5206 11.9225 23.6479 12.3546 22.8149 13.0226C20.5537 14.8691 19.4826 17.5801 19.324 20.4482C19.1256 23.7091 20.1174 27.088 21.9422 29.5239L22.3388 29.4453L22.6165 29.406C22.6562 29.406 22.6562 29.3667 22.6959 29.3667C22.7355 29.2882 22.7752 29.2096 22.7752 29.131L22.8149 27.8345C22.5372 27.4809 22.2992 27.088 22.0612 26.6951C21.0298 24.9271 20.4744 22.6876 20.4744 20.9196C20.4744 20.8411 20.4744 20.6839 20.4744 20.5267C20.5537 19.1909 20.8711 18.0908 21.3868 17.1086C21.9422 16.1657 22.6562 15.3406 23.6083 14.5548L23.6479 14.5155C23.6876 14.4763 23.7669 14.4369 23.8066 14.3977C24.2033 14.2012 24.719 14.3584 24.9174 14.7906C25.2347 15.4585 25.8694 15.8907 26.5835 16.1657C27.4165 16.48 28.4083 16.6371 29.4 16.7943C30.3124 16.9514 31.1851 17.1086 31.8992 17.3836C32.8116 17.7372 33.4463 18.2873 33.5653 19.2695V19.3088C33.5653 19.5838 33.605 19.8588 33.605 20.1339C33.605 20.4089 33.605 20.6839 33.605 20.9589C33.5653 21.3911 33.5256 21.784 33.4859 22.2162C33.4463 22.4912 33.4066 22.7269 33.3273 22.9626ZM28.2893 26.8523C28.3289 26.813 28.3289 26.7737 28.3686 26.7737C29.043 26.6951 29.757 26.4986 30.3917 26.2236C30.2331 26.4986 30.0347 26.7344 29.876 26.9701C29.8364 27.0094 29.757 27.088 29.7174 27.1665L29.6777 27.2058C28.9636 27.9916 28.0909 28.5024 27.0198 28.5024H26.8612C25.8694 28.4631 24.957 27.913 24.243 27.088L24.2033 27.0487C23.9256 26.7344 23.6479 26.3415 23.4496 25.9486C22.5769 24.4163 22.1008 22.5305 22.1008 20.9982C22.1008 20.841 22.1008 20.7625 22.1008 20.6839C22.1405 19.6231 22.3785 18.7587 22.8149 18.0123C23.1322 17.4622 23.5289 16.9907 24.0446 16.48C24.5603 17.0693 25.2347 17.5015 25.9884 17.7765C26.9802 18.1694 28.0909 18.3658 29.1223 18.523C29.9554 18.6409 30.7091 18.798 31.3041 18.9945C31.6612 19.1516 31.8992 19.3088 31.9388 19.5052C31.9388 19.741 31.9785 19.9767 31.9785 20.2124C31.9785 20.4482 31.9785 20.6839 31.9785 20.9589C31.9785 21.3125 31.9389 21.6661 31.8595 22.0197C31.8198 22.2162 31.7802 22.4126 31.7405 22.6483C31.7008 22.7662 31.5818 23.0412 31.5818 23.0805C31.3041 23.6699 30.7884 24.1806 30.1537 24.5342C29.5984 24.8485 29.0033 25.045 28.3686 25.1235L28.3289 25.0842C28.0909 24.8485 27.7736 24.7307 27.4165 24.7307C27.0595 24.7307 26.7421 24.8878 26.5041 25.0842C26.2661 25.32 26.1471 25.6343 26.1471 25.9879C26.1471 26.3415 26.3058 26.6558 26.5041 26.8915C26.7421 27.1273 27.0595 27.2451 27.4165 27.2451C27.7339 27.2059 28.0512 27.0487 28.2893 26.8523ZM29.638 29.3667C29.6777 29.7596 29.8364 30.1525 30.0744 30.4275C30.3521 30.7811 30.7091 31.0169 31.1851 31.0954L31.4628 31.1347C31.8595 31.2133 32.2562 31.2526 32.6132 31.3705C31.2248 31.9991 30.2727 32.5491 29.4397 33.4135C28.5669 34.3171 27.8925 35.5351 27.0595 37.5388C25.2744 33.4528 24.481 32.8242 21.3471 31.4098C21.7438 31.3312 22.1405 31.2526 22.5372 31.174L22.8149 31.1347L22.8942 31.0954C23.2909 31.0169 23.6479 30.7811 23.8859 30.4668C24.124 30.1525 24.2826 29.7989 24.3223 29.3667C25.0364 29.8382 25.8694 30.1132 26.7422 30.1525H26.9405C28.0116 30.1525 28.8843 29.8382 29.638 29.3667ZM34.1207 30.0739C34.3587 30.1525 34.5967 30.2311 34.795 30.349C36.8182 31.2526 37.8893 32.8242 38.4446 34.6314V34.71C38.9603 36.3995 39 38.3246 39 40.1712V40.5641C39 41.232 38.7223 41.8606 38.2859 42.2928C37.8496 42.725 37.2149 43 36.5405 43H17.4595C16.7851 43 16.1504 42.725 15.7141 42.2928C15.2777 41.8606 15 41.232 15 40.5641V40.1712V40.0926C15 38.246 15.0396 36.3209 15.595 34.6314C16.1504 32.7849 17.2215 31.2526 19.2446 30.349C19.562 30.1918 19.8397 30.1132 20.157 29.9954C18.3719 27.3237 17.4198 23.827 17.6182 20.4482C17.8165 17.1479 19.0859 13.9655 21.7438 11.8439C22.7752 11.0188 23.8859 10.4688 24.7983 10.233C25.2347 10.1152 25.6711 10.0759 26.0281 10.0759C26.3851 10.1152 26.7025 10.1938 26.9405 10.3902C27.6942 9.99731 28.5273 9.91873 29.3603 10.0759C30.3124 10.233 31.3041 10.7438 32.2165 11.5296C34.5967 13.5726 36.0248 16.6764 36.2628 20.2124C36.4215 23.2377 35.7471 26.6558 34.1207 30.0739ZM19.205 32.1956C18.1339 32.9028 17.4991 33.9243 17.1421 35.1029C16.6661 36.5959 16.6264 38.3639 16.6264 40.0926V40.1712V40.5641C16.6264 40.7998 16.7058 40.9963 16.8644 41.1141C17.0231 41.2713 17.2215 41.3498 17.4198 41.3498H36.5008C36.7389 41.3498 36.9372 41.2713 37.0562 41.1141C37.2149 40.957 37.2942 40.7605 37.2942 40.5641V40.1712C37.2942 38.4425 37.2546 36.6745 36.8182 35.1815L36.7785 35.1029C36.4215 33.9243 35.7868 32.9028 34.7157 32.1956C32.6132 33.0599 31.4628 33.6099 30.5901 34.5136C29.638 35.4958 28.9636 36.9888 27.8132 39.8962C27.7339 40.1319 27.5752 40.2891 27.3372 40.4069C26.9008 40.5641 26.4248 40.3676 26.2661 39.9747C23.9256 34.3564 23.5686 34.1993 19.7206 32.4706L19.205 32.1956Z" fill="white"/>
</g>
</g>
<defs>
<linearGradient id="paint0_linear_637_94" x1="0" y1="0" x2="54" y2="54" gradientUnits="userSpaceOnUse">
<stop stop-color="#FDDA5A"/>
<stop offset="1" stop-color="#FDB933"/>
</linearGradient>
</defs>
</svg>
