<svg width="54" height="54" viewBox="0 0 54 54" fill="none" xmlns="http://www.w3.org/2000/svg">
<rect width="54" height="54" rx="8" fill="url(#paint0_linear_637_103)"/>
<path fill-rule="evenodd" clip-rule="evenodd" d="M23.8005 18.6752C21.1123 18.6752 18.6421 19.765 16.8621 21.545C15.0821 23.325 13.9924 25.7589 13.9924 28.4834C13.9924 31.1715 15.0821 33.6417 16.8621 35.4217C18.6421 37.2017 21.076 38.2915 23.8005 38.2915C26.4886 38.2915 28.9588 37.2017 30.7388 35.4217C32.5188 33.6417 33.6086 31.2078 33.6086 28.4834C33.6086 25.7952 32.5188 23.325 30.7388 21.545C28.9225 19.765 26.4886 18.6752 23.8005 18.6752ZM20.6764 17.7307V13.4806C20.6764 13.1173 20.967 12.7903 21.3666 12.7903H41.3098C41.6731 12.7903 42 13.081 42 13.4806V19.0022V24.5238V30.0454V35.567C42 35.9303 41.7094 36.2572 41.3098 36.2572H31.7923L31.6833 36.3662C29.649 38.4005 26.8882 39.6356 23.8005 39.6356C20.7127 39.6356 17.9156 38.4005 15.9177 36.3662C13.8834 34.3319 12.6483 31.5711 12.6483 28.4834C12.6483 25.3956 13.8834 22.5985 15.9177 20.6005C17.2254 19.2565 18.8601 18.2756 20.6764 17.7307ZM32.9184 34.8768C33.7903 33.6417 34.4078 32.2613 34.7348 30.7356H40.6196V34.8768H32.9184ZM34.9164 29.3552H40.6196V25.214H34.4805C34.8074 26.2311 34.9527 27.3209 34.9527 28.4471C34.9527 28.774 34.9164 29.0646 34.9164 29.3552ZM33.9356 23.8336C33.3907 22.5985 32.5915 21.5087 31.647 20.5642C31.3201 20.2373 30.9931 19.9467 30.6662 19.6924H40.5833V23.8336H33.9356ZM28.4503 18.312H40.5833V14.1708H22.0205V17.4401C22.6018 17.3675 23.183 17.2948 23.7642 17.2948C25.4715 17.2948 27.0335 17.6581 28.4503 18.312Z" fill="white"/>
<path d="M18.0245 24.7054H20.1678C21.1123 24.7054 21.8388 24.8508 22.311 25.105C22.7833 25.3956 23.0376 25.8679 23.0376 26.5218C23.0376 26.8124 23.0012 27.0667 22.8923 27.2846C22.7833 27.5026 22.638 27.6842 22.4201 27.8658C22.2384 28.0112 21.9841 28.1201 21.6935 28.1565V28.1928C21.9841 28.2291 22.2747 28.3381 22.4927 28.4834C22.747 28.6287 22.9286 28.8103 23.0376 29.0283C23.1829 29.2826 23.2555 29.5732 23.2555 29.9728C23.2555 30.4087 23.1466 30.8083 22.9286 31.1352C22.7107 31.4622 22.4201 31.6801 22.0205 31.8617C21.6209 32.0434 21.1486 32.116 20.64 32.116H18.0245V24.7054ZM19.0417 27.8295H20.3494C20.9306 27.8295 21.3665 27.7206 21.5845 27.5389C21.8025 27.3573 21.9478 27.0667 21.9478 26.6671C21.9478 26.2675 21.8025 26.0132 21.5482 25.8316C21.2576 25.6499 20.8217 25.5773 20.2404 25.5773H19.078V27.8295H19.0417ZM19.0417 28.665V31.2442H20.4584C21.0759 31.2442 21.5119 31.1352 21.7662 30.8809C22.0204 30.6267 22.1294 30.2997 22.1294 29.9001C22.1294 29.6458 22.0568 29.4279 21.9478 29.2462C21.8388 29.0646 21.6571 28.9193 21.4029 28.8103C21.1486 28.7014 20.8216 28.665 20.3857 28.665H19.0417Z" fill="white"/>
<path d="M27.2514 25.4683C26.8518 25.4683 26.5249 25.5409 26.2342 25.6862C25.9436 25.8315 25.6894 26.0132 25.4714 26.2674C25.2535 26.5217 25.1081 26.8123 24.9992 27.1756C24.8902 27.5389 24.8175 27.9385 24.8175 28.3744C24.8175 28.9556 24.8902 29.5005 25.0718 29.9364C25.2535 30.3723 25.5078 30.6993 25.871 30.9536C26.2343 31.2079 26.6702 31.3168 27.2151 31.3168C27.542 31.3168 27.8326 31.2805 28.1595 31.2442C28.4501 31.1715 28.7408 31.0989 29.0314 31.0262V31.9344C28.7408 32.0434 28.4501 32.116 28.1595 32.1887C27.8689 32.225 27.5057 32.2613 27.1061 32.2613C26.3432 32.2613 25.7257 32.116 25.2171 31.7891C24.7085 31.4621 24.3453 31.0262 24.091 30.445C23.8367 29.8638 23.7278 29.2099 23.7278 28.4107C23.7278 27.8658 23.8004 27.3209 23.9457 26.885C24.091 26.4128 24.3453 26.0132 24.6359 25.6862C24.9265 25.3593 25.2898 25.0687 25.762 24.8871C26.198 24.7054 26.7065 24.5964 27.2877 24.5964C27.651 24.5964 28.0143 24.6328 28.3775 24.7054C28.7408 24.7781 29.0677 24.8871 29.3583 25.0324L28.9587 25.9042C28.7044 25.7952 28.4501 25.6862 28.1595 25.6136C27.8689 25.5409 27.542 25.4683 27.2514 25.4683Z" fill="white"/>
<path d="M35.6791 37.783C35.6791 37.9646 35.6428 38.1099 35.5702 38.2189C35.4975 38.3279 35.4249 38.4369 35.2796 38.5095C35.1706 38.5822 35.0253 38.6548 34.88 38.6912V38.7275C35.1706 38.7638 35.4249 38.8728 35.5702 39.0181C35.7155 39.1634 35.7881 39.3814 35.7881 39.6356C35.7881 39.8536 35.7518 40.0352 35.6428 40.2169C35.5339 40.3985 35.3885 40.5075 35.1706 40.6165C34.9526 40.7255 34.662 40.7618 34.3351 40.7618C34.1171 40.7618 33.9355 40.7618 33.7902 40.7254C33.6449 40.6891 33.4632 40.6528 33.2816 40.5801V40.0716C33.4269 40.1442 33.6085 40.2169 33.7902 40.2532C33.9718 40.2895 34.1535 40.3259 34.3351 40.3259C34.662 40.3259 34.9163 40.2532 35.0616 40.1442C35.2069 39.9989 35.2796 39.8536 35.2796 39.5993C35.2796 39.454 35.2432 39.345 35.1706 39.2361C35.0979 39.1271 34.9889 39.0544 34.8073 39.0181C34.662 38.9818 34.4804 38.9455 34.2261 38.9455H33.8628V38.5095H34.2261C34.4441 38.5095 34.6257 38.4732 34.7347 38.4369C34.88 38.3642 34.9889 38.2916 35.0253 38.1826C35.0979 38.0736 35.1343 37.9646 35.1343 37.8193C35.1343 37.6377 35.0616 37.4924 34.9526 37.4197C34.8437 37.3107 34.662 37.2744 34.4441 37.2744C34.2988 37.2744 34.1898 37.2744 34.0808 37.3108C33.9718 37.3471 33.8628 37.3834 33.7902 37.4197C33.7175 37.4561 33.6086 37.5287 33.5359 37.565L33.2816 37.2018C33.4269 37.0928 33.6085 37.0201 33.7902 36.9112C34.0081 36.8385 34.2261 36.8022 34.4804 36.8022C34.88 36.8022 35.1706 36.8748 35.3522 37.0565C35.5702 37.3108 35.6791 37.5287 35.6791 37.783Z" fill="white"/>
<path d="M36.3695 39.0907C36.3695 38.8728 36.3695 38.6548 36.4058 38.4369C36.4421 38.2189 36.4785 38.0009 36.5511 37.8193C36.6238 37.6377 36.7328 37.456 36.8781 37.3107C37.0234 37.1654 37.1687 37.0564 37.3866 36.9838C37.6046 36.9111 37.8225 36.8748 38.1132 36.8748C38.1858 36.8748 38.2585 36.8748 38.3675 36.8748C38.4764 36.8748 38.5491 36.9111 38.5854 36.9111V37.3471C38.5128 37.3107 38.4401 37.3107 38.3675 37.3107C38.2948 37.3107 38.2221 37.3107 38.1132 37.3107C37.7862 37.3107 37.532 37.3834 37.3503 37.4924C37.1687 37.6377 37.0234 37.783 36.9507 38.0373C36.8781 38.2552 36.8417 38.5095 36.8054 38.8001H36.8417C36.878 38.7275 36.9507 38.6548 37.0234 38.5821C37.096 38.5095 37.205 38.4732 37.314 38.4005C37.4229 38.3642 37.5683 38.3279 37.7136 38.3279C37.9315 38.3279 38.1132 38.3642 38.2948 38.4732C38.4764 38.5821 38.5854 38.6911 38.658 38.8728C38.7307 39.0544 38.8034 39.2723 38.8034 39.4903C38.8034 39.7446 38.767 39.9626 38.658 40.1805C38.549 40.3622 38.4038 40.5075 38.2221 40.6165C38.0405 40.7254 37.8226 40.7618 37.5683 40.7618C37.3866 40.7618 37.205 40.7254 37.0597 40.6528C36.9144 40.5801 36.7691 40.4711 36.6601 40.3258C36.5511 40.1805 36.4422 39.9989 36.3695 39.8173C36.3695 39.6356 36.3695 39.3814 36.3695 39.0907ZM37.6409 40.3258C37.8589 40.3258 38.0405 40.2532 38.1495 40.1079C38.2584 39.9626 38.3311 39.7446 38.3311 39.454C38.3311 39.236 38.2584 39.0181 38.1495 38.9091C38.0405 38.7638 37.8589 38.6911 37.6409 38.6911C37.4956 38.6911 37.3503 38.7275 37.2413 38.8001C37.1323 38.8728 37.0234 38.9454 36.9507 39.0544C36.8781 39.1634 36.8417 39.2724 36.8417 39.3813C36.8417 39.4903 36.8417 39.5993 36.8781 39.7083C36.9144 39.8173 36.9507 39.9263 37.0234 39.9989C37.096 40.1079 37.1687 40.1805 37.2777 40.2169C37.423 40.3258 37.5319 40.3258 37.6409 40.3258Z" fill="white"/>
<path d="M41.8909 38.8002C41.8909 39.0908 41.8546 39.3814 41.8183 39.6356C41.7819 39.8899 41.7093 40.0716 41.6003 40.2532C41.4913 40.4348 41.3824 40.5438 41.2007 40.6528C41.0554 40.7255 40.8374 40.7981 40.6195 40.7981C40.3289 40.7981 40.1109 40.7254 39.893 40.5801C39.7113 40.4348 39.566 40.2169 39.4934 39.9263C39.3844 39.6357 39.348 39.2724 39.348 38.8728C39.348 38.4732 39.3843 38.1099 39.457 37.8193C39.5297 37.5287 39.675 37.3108 39.8566 37.1655C40.0382 37.0202 40.2926 36.9475 40.5832 36.9475C40.8738 36.9475 41.1281 37.0202 41.3097 37.1655C41.4913 37.3108 41.6366 37.5287 41.7456 37.8193C41.8546 38.0736 41.8909 38.4006 41.8909 38.8002ZM39.893 38.8002C39.893 39.1271 39.9292 39.4177 39.9656 39.6356C40.0019 39.8536 40.1109 40.0352 40.2199 40.1442C40.3289 40.2532 40.4742 40.3259 40.6558 40.3259C40.8374 40.3259 40.9828 40.2532 41.0917 40.1442C41.2007 40.0352 41.2734 39.8536 41.346 39.6356C41.3823 39.4177 41.4187 39.1271 41.4187 38.8002C41.4187 38.4732 41.3823 38.1826 41.346 37.9646C41.3097 37.7467 41.237 37.5651 41.1281 37.4561C41.0191 37.3471 40.8738 37.2745 40.6921 37.2745C40.5105 37.2745 40.3652 37.3471 40.2562 37.4561C40.1472 37.5651 40.0746 37.7467 40.0382 37.9646C39.9293 38.2189 39.893 38.4732 39.893 38.8002Z" fill="white"/>
<defs>
<linearGradient id="paint0_linear_637_103" x1="0" y1="0" x2="54" y2="54" gradientUnits="userSpaceOnUse">
<stop stop-color="#5BE5D4"/>
<stop offset="1" stop-color="#1DB19D"/>
</linearGradient>
</defs>
</svg>
