<svg width="54" height="54" viewBox="0 0 54 54" fill="none" xmlns="http://www.w3.org/2000/svg">
<rect width="54" height="54" rx="8" fill="url(#paint0_linear_637_121)"/>
<path fill-rule="evenodd" clip-rule="evenodd" d="M17.6287 15.3718C17.0039 15.3718 16.4387 15.6396 16.0222 16.0263C15.6057 16.4428 15.3677 17.0081 15.3677 17.6329V35.989C15.3677 36.6137 15.6354 37.179 16.0222 37.5955C16.4387 38.012 17.0039 38.25 17.6287 38.25H36.0443C36.669 38.25 37.2343 37.9822 37.6508 37.5955C38.0673 37.179 38.3053 36.6137 38.3053 35.989V17.6329C38.3053 17.0081 38.0376 16.4428 37.6508 16.0263C37.2343 15.6098 36.669 15.3718 36.0443 15.3718H17.6287ZM36.0443 16.6511H17.6287C17.3609 16.6511 17.123 16.7701 16.9444 16.9486C16.7659 17.1271 16.6469 17.3651 16.6469 17.6329V35.989C16.6469 36.2567 16.7659 36.4947 16.9444 36.6732C17.123 36.8517 17.3609 36.9707 17.6287 36.9707H36.0443C36.312 36.9707 36.55 36.8517 36.7285 36.6732C36.907 36.4947 37.0261 36.2567 37.0261 35.989V17.6329C37.0261 17.3651 36.907 17.1271 36.7285 16.9486C36.55 16.7701 36.312 16.6511 36.0443 16.6511Z" fill="white"/>
<path fill-rule="evenodd" clip-rule="evenodd" d="M25.661 27.4504H27.446H28.041V25.1894H25.661V27.4504ZM27.8923 28.1347C28.0411 28.5512 28.1005 29.057 28.1303 29.5627C28.1303 30.0685 28.1006 30.604 27.9816 31.0502L27.684 32.2105L28.6063 30.7825C28.8443 30.4255 28.9633 30.009 28.9336 29.5925C28.9038 29.176 28.7551 28.7892 28.4575 28.4322L28.1898 28.1347H27.8923ZM26.8808 34.3823H26.851C26.8213 34.3823 26.7915 34.3823 26.7618 34.3526C26.7618 34.3526 26.7321 34.3228 26.7321 34.2931L24.709 31.199C24.3817 30.6932 24.233 30.1577 24.2628 29.5925C24.2925 29.0272 24.5007 28.4917 24.8875 28.0455L25.1552 27.7182V24.8919V20.3698C25.1552 20.0723 25.2742 19.7748 25.4825 19.5963C25.6907 19.388 25.9585 19.269 26.256 19.269H27.7436C28.0411 19.269 28.3088 19.3881 28.5171 19.5666L28.5468 19.5963C28.755 19.8046 28.8741 20.0723 28.8741 20.3698V24.8919V27.7182L29.1418 28.0455C29.5286 28.4917 29.7368 29.0272 29.7666 29.5925C29.7963 30.128 29.6476 30.6932 29.3203 31.199L27.2973 34.2931C27.2675 34.3228 27.2378 34.3228 27.208 34.3526C27.208 34.3526 27.208 34.3526 27.1783 34.3526L26.8808 34.3823ZM26.018 32.2105L25.7205 31.0502C25.6015 30.5742 25.542 30.0685 25.5717 29.5627C25.5717 29.057 25.661 28.5512 25.8097 28.1347H25.5123L25.2445 28.4322C24.947 28.7595 24.7983 29.176 24.7685 29.5925C24.7388 30.009 24.8578 30.4255 25.0958 30.7825L26.018 32.2105ZM26.494 28.1347L26.4345 28.343C26.3155 28.7 26.256 29.1462 26.2263 29.5925C26.2263 30.0387 26.256 30.5147 26.375 30.9015L26.851 32.746L27.3271 30.9015C27.4163 30.485 27.4758 30.0387 27.4758 29.5925C27.4758 29.1462 27.3865 28.7 27.2675 28.343L27.208 28.1347H26.494ZM28.0113 24.5051V20.3401C28.0113 20.2211 27.9518 20.1021 27.8923 20.0426C27.8031 19.9831 27.7138 19.9236 27.5948 19.9236H26.1073C25.9883 19.9236 25.8692 19.9831 25.8097 20.0426C25.7205 20.1318 25.6908 20.2211 25.6908 20.3401V24.5051H28.0113Z" fill="white"/>
<defs>
<linearGradient id="paint0_linear_637_121" x1="0" y1="0" x2="54" y2="54" gradientUnits="userSpaceOnUse">
<stop stop-color="#BDDC5F"/>
<stop offset="1" stop-color="#97C130"/>
</linearGradient>
</defs>
</svg>
