<svg width="54" height="54" viewBox="0 0 54 54" fill="none" xmlns="http://www.w3.org/2000/svg">
<rect width="54" height="54" rx="8" fill="url(#paint0_linear_637_133)"/>
<path fill-rule="evenodd" clip-rule="evenodd" d="M27.9901 14.7255C27.742 14.4464 27.2768 14.4154 26.9977 14.6945L14.7481 26.1378C14.593 26.2618 14.5 26.4479 14.5 26.665V28.1535C14.5 28.5257 14.8101 28.8358 15.1822 28.8358H17.105V38.7906H15.2133C14.8411 38.7906 14.531 39.1007 14.531 39.4728C14.531 39.845 14.8411 40.1551 15.2133 40.1551H17.8183H37.2936H39.8986C40.2707 40.1551 40.5808 39.845 40.5808 39.4728C40.5808 39.1007 40.2707 38.7906 39.8986 38.7906H37.9759V28.8978H39.8986C40.2707 28.8978 40.5808 28.5877 40.5808 28.2156V26.727C40.5808 26.5409 40.5188 26.3549 40.3638 26.2308L27.9901 14.7255ZM39.2163 27.0061L27.4939 16.152L15.8955 26.9751V27.4713H17.8183C18.1904 27.4713 18.5005 27.7814 18.5005 28.1535V38.7906H36.5803V28.1535C36.5803 27.7814 36.8904 27.4713 37.2626 27.4713H39.1853V27.0061H39.2163Z" fill="white"/>
<path d="M26.9357 35.7514C26.4085 35.7514 25.9123 35.5653 25.5092 35.1932C24.2377 34.0147 23.4624 32.4332 23.0902 30.3244C23.0282 30.0453 23.0903 29.8282 23.2143 29.6421C23.4004 29.394 23.7105 29.363 24.0206 29.332C25.7573 29.2079 27.5249 28.9598 29.3236 28.5257C30.0989 28.3396 30.9052 28.0915 31.6495 27.8434C32.5488 27.5643 33.4481 27.2542 34.4095 27.0681L34.9057 26.9751L34.6886 27.4403L34.4405 27.3472L34.6576 27.4403C33.8203 29.27 33.045 30.6965 32.1767 31.8749C30.6571 33.9837 29.0755 35.2552 27.4319 35.6583C27.3078 35.7204 27.1218 35.7514 26.9357 35.7514Z" fill="white"/>
<path d="M22.1288 28.8978C21.4775 28.8978 21.0124 28.7427 20.7953 28.3706C20.5472 27.9985 20.5782 27.4713 20.8883 26.758C21.3225 25.7966 21.9737 24.9903 22.8731 24.3701C22.9041 24.3391 22.9351 24.3391 22.9661 24.3081C23.1522 24.153 23.4623 23.9359 23.8034 24.122C24.1135 24.2771 24.0515 24.6182 24.0515 24.8042C24.0515 24.8663 24.0515 24.9283 24.0515 24.9593V25.0213C24.1445 26.2618 24.2066 27.4093 25.354 28.2156L25.9432 28.6187L25.23 28.6807C24.9198 28.7117 24.6097 28.7428 24.2996 28.7738C23.6173 28.8358 22.9971 28.8978 22.3459 28.9288C22.2218 28.8978 22.1598 28.8978 22.1288 28.8978Z" fill="white"/>
<defs>
<linearGradient id="paint0_linear_637_133" x1="0" y1="0" x2="54" y2="54" gradientUnits="userSpaceOnUse">
<stop stop-color="#BD49C8"/>
<stop offset="1" stop-color="#9A1DAB"/>
</linearGradient>
</defs>
</svg>
