<svg width="54" height="54" viewBox="0 0 54 54" fill="none" xmlns="http://www.w3.org/2000/svg">
<rect width="54" height="54" rx="8" fill="url(#paint0_linear_637_145)"/>
<path fill-rule="evenodd" clip-rule="evenodd" d="M37.9679 33.4681C37.0225 34.0669 36.2346 34.4766 35.3207 34.5396C34.4383 34.6026 33.5244 34.2875 32.4529 33.4681C31.6335 33.6572 30.9402 33.9408 30.436 34.319C29.9948 34.6342 29.7427 35.0438 29.7427 35.4851V37.4705C29.7427 37.565 29.7742 37.6595 29.8372 37.7226C29.9002 37.7856 29.9948 37.8171 30.0893 37.8171H40.237C40.3315 37.8171 40.4261 37.7856 40.4891 37.7226C40.5521 37.6595 40.5836 37.565 40.5836 37.4705V35.4851C40.5836 35.0123 40.3315 34.6342 39.8903 34.2875C39.4491 33.9408 38.7558 33.6572 37.9679 33.4681ZM32.6105 28.3943C32.642 28.4573 32.579 28.3628 32.6105 28.3943C32.6105 28.7725 32.6105 29.0246 32.7365 29.4028C32.8941 29.8124 33.1147 30.2221 33.3668 30.5688C33.4298 30.6633 33.5244 30.7579 33.5874 30.8524C33.5874 30.8524 33.5874 30.8524 33.6189 30.8839C33.8395 31.1045 34.0601 31.2936 34.2807 31.4197C34.3123 31.4512 34.3753 31.4827 34.4068 31.4827C34.6274 31.5772 34.8165 31.6403 35.0371 31.6718H35.0686C35.1001 31.6718 35.1316 31.6718 35.1631 31.6403C35.2892 31.6088 35.4152 31.5457 35.5413 31.4827C35.4153 31.5446 35.7323 31.8924 35.7323 31.6403L35.8604 31.4827C36.3646 31.4827 36.6421 31.1676 36.9258 30.8524C37.5246 30.1871 37.4007 29.8124 37.5267 29.4028C37.6843 29.0246 37.8419 28.5834 37.8419 28.1737L37.5267 28.2052C37.4007 28.3628 36.991 28.5834 36.8334 28.4573C36.8019 28.4258 36.7704 28.4258 36.7389 28.3943C36.7074 28.3628 36.7073 28.3628 36.6758 28.3312C36.2977 28.0161 35.5413 27.827 34.7534 27.827C33.9656 27.827 33.2092 27.9846 32.7996 28.3628C32.768 28.3943 32.7365 28.4258 32.705 28.4573C32.579 28.6149 32.6909 28.689 32.5334 28.5314C33.0061 28.4999 32.6105 28.4258 32.6105 28.3943ZM32.4844 26.2198C33.2092 25.8416 34.2177 25.684 35.2262 25.684C36.2031 25.684 37.1801 25.8731 37.8734 26.1883C37.7788 25.0853 37.2746 24.3289 35.1631 24.3289C33.0832 24.3289 32.5789 25.0853 32.4844 26.2198ZM32.8311 27.3858L32.9886 27.638C33.5559 27.2598 34.4068 27.0707 35.2577 27.0707C36.0771 27.0707 36.7717 27.5119 37.3074 27.827L37.8419 26.9761C37.3061 26.598 36.3292 26.4089 35.2892 26.4089C34.2492 26.4089 33.1777 26.598 32.642 27.0392L32.8311 27.3858ZM34.8165 23.5726C34.848 23.3835 35.0056 23.2574 35.1946 23.2574C35.3837 23.2574 35.5413 23.3835 35.5728 23.5726C38.7243 23.6986 38.6928 25.2744 38.6613 27.3543C38.6613 27.5119 38.6613 27.701 38.6613 27.9846V28.1422V28.1737V28.2052C38.6613 28.7094 38.5667 29.2137 38.3776 29.6864C38.1885 30.1906 37.9364 30.6633 37.6213 31.0415C37.5582 31.1045 37.4952 31.1991 37.4322 31.2621C37.4322 31.3251 37.4322 31.3882 37.4322 31.4827C37.4637 31.8294 37.4952 32.2391 37.5267 32.4597L37.9049 32.7118C38.8818 32.9324 39.7643 33.279 40.3946 33.7202C41.0248 34.193 41.3715 34.7917 41.3715 35.4851V37.4705C41.3715 37.7856 41.2454 38.0692 41.0563 38.2583L41.0248 38.2898C40.8358 38.4789 40.5521 38.605 40.2685 38.605H30.1208C29.8057 38.605 29.522 38.4789 29.3329 38.2898C29.1439 38.1008 29.0178 37.8171 29.0178 37.502V35.5166C29.0178 34.7917 29.396 34.1929 29.9948 33.7517C30.6251 33.279 31.4759 32.9639 32.4844 32.7433L32.8626 32.4912C32.8941 32.2706 32.9256 31.8294 32.9256 31.4827V31.2621C32.8626 31.1991 32.7995 31.136 32.7365 31.0415C32.4214 30.6318 32.1693 30.1591 31.9802 29.6864C31.7911 29.2137 31.6965 28.7094 31.6965 28.2052V28.1737V28.1422C31.6965 28.0791 31.6965 28.0161 31.6965 27.9846C31.6965 27.701 31.6965 27.5119 31.6965 27.3543C31.6965 25.2744 31.665 23.6986 34.8165 23.5726ZM33.2408 33.0899L33.3983 32.9639C33.4614 32.9009 33.5244 32.8378 33.5559 32.7748C33.619 32.6172 33.6504 32.2391 33.682 31.8609C33.745 31.9239 33.8395 31.9554 33.9341 32.0185C33.9971 32.05 34.0601 32.0815 34.1232 32.113C34.3753 32.2391 34.6274 32.3336 34.8795 32.3651H34.911C34.9425 32.3651 34.9426 32.3651 34.9741 32.3651H35.0056H35.0371H35.0686H35.1001H35.1316H35.1631H35.1946H35.2262H35.2577H35.2892H35.3207H35.3522H35.3838H35.4153C35.6359 32.3336 35.8564 32.2391 36.077 32.1445H36.1086H36.1401L36.1716 32.113L36.7389 31.8609C36.7704 32.2391 37.1289 32.8306 36.9258 32.9639C37.1289 32.8621 37.0366 32.8063 37.0366 33.0899L36.6128 33.3421C35.951 33.7518 35.3522 34.0039 34.7534 34.0354C34.6589 33.8463 34.0286 33.6257 33.2408 33.0899Z" fill="white"/>
<path fill-rule="evenodd" clip-rule="evenodd" d="M29.1124 20.8553H17.452C17.1053 20.8553 16.8217 21.139 16.8217 21.4856C16.8217 21.8323 17.1053 22.1159 17.452 22.1159H29.1124C29.459 22.1159 29.7427 21.8323 29.7427 21.4856C29.7112 21.139 29.4275 20.8553 29.1124 20.8553ZM17.452 28.1667C17.1053 28.1667 16.8217 28.4503 16.8217 28.797C16.8217 29.1437 17.1053 29.4273 17.452 29.4273H26.6227V28.1667H17.452ZM23.2822 24.511H17.452C17.1053 24.511 16.8217 24.7946 16.8217 25.1413C16.8217 25.488 17.1053 25.7716 17.452 25.7716H23.2822C23.6289 25.7716 23.9125 25.488 23.9125 25.1413C23.9125 24.7946 23.6289 24.511 23.2822 24.511ZM23.2822 31.7909H17.452C17.1053 31.7909 16.8217 32.0745 16.8217 32.4212C16.8217 32.7678 17.1053 33.0515 17.452 33.0515H23.2822C23.6289 33.0515 23.9125 32.7678 23.9125 32.4212C23.9125 32.0745 23.6289 31.7909 23.2822 31.7909ZM29.1124 20.8553H17.452C17.1053 20.8553 16.8217 21.139 16.8217 21.4856C16.8217 21.8323 17.1053 22.1159 17.452 22.1159H29.1124C29.459 22.1159 29.7427 21.8323 29.7427 21.4856C29.7112 21.139 29.4275 20.8553 29.1124 20.8553ZM23.2822 24.511H17.452C17.1053 24.511 16.8217 24.7946 16.8217 25.1413C16.8217 25.488 17.1053 25.7716 17.452 25.7716H23.2822C23.6289 25.7716 23.9125 25.488 23.9125 25.1413C23.9125 24.7946 23.6289 24.511 23.2822 24.511ZM17.452 28.1667C17.1053 28.1667 16.8217 28.4503 16.8217 28.797C16.8217 29.1437 17.1053 29.4273 17.452 29.4273H26.6227V28.1667H17.452ZM23.2822 31.7909H17.452C17.1053 31.7909 16.8217 32.0745 16.8217 32.4212C16.8217 32.7678 17.1053 33.0515 17.452 33.0515H23.2822C23.6289 33.0515 23.9125 32.7678 23.9125 32.4212C23.9125 32.0745 23.6289 31.7909 23.2822 31.7909ZM23.2822 31.7909H17.452C17.1053 31.7909 16.8217 32.0745 16.8217 32.4212C16.8217 32.7678 17.1053 33.0515 17.452 33.0515H23.2822C23.6289 33.0515 23.9125 32.7678 23.9125 32.4212C23.9125 32.0745 23.6289 31.7909 23.2822 31.7909ZM23.2822 24.511H17.452C17.1053 24.511 16.8217 24.7946 16.8217 25.1413C16.8217 25.488 17.1053 25.7716 17.452 25.7716H23.2822C23.6289 25.7716 23.9125 25.488 23.9125 25.1413C23.9125 24.7946 23.6289 24.511 23.2822 24.511ZM17.452 28.1667C17.1053 28.1667 16.8217 28.4503 16.8217 28.797C16.8217 29.1437 17.1053 29.4273 17.452 29.4273H26.6227V28.1667H17.452ZM29.1124 20.8553H17.452C17.1053 20.8553 16.8217 21.139 16.8217 21.4856C16.8217 21.8323 17.1053 22.1159 17.452 22.1159H29.1124C29.459 22.1159 29.7427 21.8323 29.7427 21.4856C29.7112 21.139 29.4275 20.8553 29.1124 20.8553ZM33.8395 16.4118C33.4298 16.0021 32.8941 15.75 32.2638 15.75H14.2375C13.6387 15.75 13.0715 16.0021 12.6618 16.4118C12.2521 16.8215 12 17.3572 12 17.9875V35.9193C12 36.5181 12.2521 37.0853 12.6618 37.495C13.0715 37.9047 13.6072 38.1568 14.2375 38.1568H26.5912V36.8962H14.2375C13.9854 36.8962 13.7333 36.8017 13.5757 36.6126C13.3866 36.4235 13.2921 36.2029 13.2921 35.9193V17.9875C13.2921 17.7354 13.3866 17.4833 13.5757 17.3257C13.7648 17.1682 13.9854 17.0421 14.2375 17.0421H32.2638C32.5159 17.0421 32.7681 17.1366 32.9256 17.3257C33.1147 17.5148 33.2093 17.7354 33.2093 17.9875V23.1559H34.4699V17.9875C34.5014 17.3888 34.2492 16.8215 33.8395 16.4118ZM23.2822 31.7909H17.452C17.1053 31.7909 16.8217 32.0745 16.8217 32.4212C16.8217 32.7678 17.1053 33.0515 17.452 33.0515H23.2822C23.6289 33.0515 23.9125 32.7678 23.9125 32.4212C23.9125 32.0745 23.6289 31.7909 23.2822 31.7909ZM23.2822 24.511H17.452C17.1053 24.511 16.8217 24.7946 16.8217 25.1413C16.8217 25.488 17.1053 25.7716 17.452 25.7716H23.2822C23.6289 25.7716 23.9125 25.488 23.9125 25.1413C23.9125 24.7946 23.6289 24.511 23.2822 24.511ZM17.452 28.1667C17.1053 28.1667 16.8217 28.4503 16.8217 28.797C16.8217 29.1437 17.1053 29.4273 17.452 29.4273H26.6227V28.1667H17.452ZM29.1124 20.8553H17.452C17.1053 20.8553 16.8217 21.139 16.8217 21.4856C16.8217 21.8323 17.1053 22.1159 17.452 22.1159H29.1124C29.459 22.1159 29.7427 21.8323 29.7427 21.4856C29.7112 21.139 29.4275 20.8553 29.1124 20.8553ZM29.1124 20.8553H17.452C17.1053 20.8553 16.8217 21.139 16.8217 21.4856C16.8217 21.8323 17.1053 22.1159 17.452 22.1159H29.1124C29.459 22.1159 29.7427 21.8323 29.7427 21.4856C29.7112 21.139 29.4275 20.8553 29.1124 20.8553ZM17.452 28.1667C17.1053 28.1667 16.8217 28.4503 16.8217 28.797C16.8217 29.1437 17.1053 29.4273 17.452 29.4273H26.6227V28.1667H17.452ZM23.2822 24.511H17.452C17.1053 24.511 16.8217 24.7946 16.8217 25.1413C16.8217 25.488 17.1053 25.7716 17.452 25.7716H23.2822C23.6289 25.7716 23.9125 25.488 23.9125 25.1413C23.9125 24.7946 23.6289 24.511 23.2822 24.511ZM23.2822 31.7909H17.452C17.1053 31.7909 16.8217 32.0745 16.8217 32.4212C16.8217 32.7678 17.1053 33.0515 17.452 33.0515H23.2822C23.6289 33.0515 23.9125 32.7678 23.9125 32.4212C23.9125 32.0745 23.6289 31.7909 23.2822 31.7909Z" fill="white"/>
<defs>
<linearGradient id="paint0_linear_637_145" x1="0" y1="0" x2="54" y2="54" gradientUnits="userSpaceOnUse">
<stop stop-color="#1890FF"/>
<stop offset="1" stop-color="#006FD6"/>
</linearGradient>
</defs>
</svg>
