<svg width="54" height="54" viewBox="0 0 54 54" fill="none" xmlns="http://www.w3.org/2000/svg">
<rect width="54" height="54" rx="8" fill="url(#paint0_linear_637_156)"/>
<path fill-rule="evenodd" clip-rule="evenodd" d="M31.4629 27.6407C31.1109 27.6407 30.8091 27.345 30.8091 27C30.8091 26.655 31.1109 26.3593 31.4629 26.3593H34.5806C34.9326 26.3593 35.2343 26.655 35.2343 27C35.2343 27.345 34.9326 27.6407 34.5806 27.6407H31.4629ZM25.504 27.6407C25.152 27.6407 24.8503 27.345 24.8503 27C24.8503 26.655 25.152 26.3593 25.504 26.3593H28.6217C28.9737 26.3593 29.2754 26.655 29.2754 27C29.2754 27.345 28.9737 27.6407 28.6217 27.6407H25.504ZM25.504 35.1561C25.152 35.1561 24.8503 34.8604 24.8503 34.5154C24.8503 34.1704 25.152 33.8748 25.504 33.8748H28.6217C28.9737 33.8748 29.2754 34.1704 29.2754 34.5154C29.2754 34.8604 28.9737 35.1561 28.6217 35.1561H25.504ZM19.5451 35.1561C19.1931 35.1561 18.8914 34.8604 18.8914 34.5154C18.8914 34.1704 19.1931 33.8748 19.5451 33.8748H22.6629C23.0149 33.8748 23.3166 34.1704 23.3166 34.5154C23.3166 34.8604 23.0149 35.1561 22.6629 35.1561H19.5451ZM31.4629 31.4107C31.1109 31.4107 30.8091 31.115 30.8091 30.77C30.8091 30.4251 31.1109 30.1294 31.4629 30.1294H34.5806C34.9326 30.1294 35.2343 30.4251 35.2343 30.77C35.2343 31.115 34.9326 31.4107 34.5806 31.4107H31.4629ZM25.504 31.4107C25.152 31.4107 24.8503 31.115 24.8503 30.77C24.8503 30.4251 25.152 30.1294 25.504 30.1294H28.6217C28.9737 30.1294 29.2754 30.4251 29.2754 30.77C29.2754 31.115 28.9737 31.4107 28.6217 31.4107H25.504ZM19.5451 31.4107C19.1931 31.4107 18.8914 31.115 18.8914 30.77C18.8914 30.4251 19.1931 30.1294 19.5451 30.1294H22.6629C23.0149 30.1294 23.3166 30.4251 23.3166 30.77C23.3166 31.115 23.0149 31.4107 22.6629 31.4107H19.5451ZM17.3326 23.1314H36.768V19.5339C36.768 19.3121 36.6674 19.0903 36.5166 18.9425C36.3657 18.7947 36.1394 18.6961 35.9131 18.6961H34.5303V20.4702C34.5303 20.8152 34.2286 21.1109 33.8766 21.1109C33.5246 21.1109 33.2229 20.8152 33.2229 20.4702V18.6961H20.8526V20.4702C20.8526 20.8152 20.5509 21.1109 20.1989 21.1109C19.8469 21.1109 19.5451 20.8152 19.5451 20.4702V18.6961H18.1623C17.936 18.6961 17.7097 18.7947 17.5589 18.9425L17.5337 18.9671C17.3829 19.115 17.3074 19.3121 17.3074 19.5339V23.1314H17.3326ZM36.768 24.4127H17.3326V36.8809C17.3326 37.1027 17.4331 37.3244 17.584 37.4723C17.7349 37.6201 17.9611 37.7187 18.1874 37.7187H35.9131C36.1394 37.7187 36.3657 37.6201 36.5166 37.4723C36.6674 37.3244 36.768 37.1027 36.768 36.8809V24.4127ZM33.2229 17.4394H20.8526V15.6407C20.8526 15.2957 20.5509 15 20.1989 15C19.8469 15 19.5451 15.2957 19.5451 15.6407V17.4394H18.1623C17.5589 17.4394 17.0309 17.6858 16.6537 18.0554L16.6034 18.1047C16.2263 18.4743 16 18.9918 16 19.5585V23.7967V36.9055C16 37.4969 16.2514 38.0144 16.6286 38.384C17.0057 38.7536 17.5589 39 18.1371 39H35.8629C36.4411 39 36.9943 38.7536 37.3714 38.384C37.7486 38.0144 38 37.4723 38 36.9055V23.7967V19.5585C38 18.9671 37.7486 18.4497 37.3714 18.0801C36.9943 17.7105 36.4411 17.4641 35.8629 17.4641H34.48V15.6653C34.48 15.3203 34.1783 15.0246 33.8263 15.0246C33.4743 15.0246 33.1726 15.3203 33.1726 15.6653V17.4394H33.2229Z" fill="white"/>
<defs>
<linearGradient id="paint0_linear_637_156" x1="0" y1="0" x2="54" y2="54" gradientUnits="userSpaceOnUse">
<stop offset="0.0001" stop-color="#CDA6FF"/>
<stop offset="1" stop-color="#6621F8"/>
</linearGradient>
</defs>
</svg>
