<svg width="24" height="24" viewBox="0 0 24 24" fill="none" xmlns="http://www.w3.org/2000/svg">
<rect width="24" height="24" rx="5" fill="url(#paint0_linear_1407_21806)"/>
<g clip-path="url(#clip0_1407_21806)">
<path fill-rule="evenodd" clip-rule="evenodd" d="M10.2905 7.949C9.09577 7.949 7.9979 8.43336 7.20679 9.22447C6.41568 10.0156 5.93134 11.0973 5.93134 12.3082C5.93134 13.5029 6.41568 14.6008 7.20679 15.3919C7.9979 16.183 9.07962 16.6674 10.2905 16.6674C11.4852 16.6674 12.5831 16.183 13.3742 15.3919C14.1653 14.6008 14.6497 13.5191 14.6497 12.3082C14.6497 11.1134 14.1653 10.0156 13.3742 9.22447C12.567 8.43336 11.4852 7.949 10.2905 7.949ZM8.90203 7.52923V5.64026C8.90203 5.47881 9.03119 5.3335 9.20879 5.3335H18.0724C18.2339 5.3335 18.3792 5.46266 18.3792 5.64026V8.0943V10.5484V13.0024V15.4565C18.3792 15.6179 18.25 15.7632 18.0724 15.7632H13.8424L13.794 15.8117C12.8899 16.7158 11.6628 17.2647 10.2905 17.2647C8.91817 17.2647 7.67501 16.7158 6.78703 15.8117C5.88291 14.9075 5.33398 13.6805 5.33398 12.3082C5.33398 10.9358 5.88291 9.69267 6.78703 8.80469C7.36825 8.20732 8.09478 7.7714 8.90203 7.52923ZM14.3429 15.1497C14.7304 14.6008 15.0049 13.9873 15.1502 13.3092H17.7657V15.1497H14.3429ZM15.2309 12.6957H17.7657V10.8551H15.0372C15.1825 11.3072 15.247 11.7915 15.247 12.292C15.247 12.4373 15.2309 12.5665 15.2309 12.6957ZM14.795 10.2416C14.5528 9.69267 14.1976 9.20832 13.7778 8.78854C13.6325 8.64324 13.4872 8.51408 13.3419 8.40106H17.7495V10.2416H14.795ZM12.3571 7.78756H17.7495V5.94702H9.49941V7.40006C9.75773 7.36777 10.016 7.3355 10.2744 7.3355C11.0332 7.3355 11.7274 7.49694 12.3571 7.78756Z" fill="white"/>
<path d="M7.72363 10.6289H8.67619C9.09596 10.6289 9.41885 10.6935 9.62874 10.8065C9.83862 10.9357 9.95166 11.1455 9.95166 11.4362C9.95166 11.5653 9.9355 11.6783 9.88706 11.7752C9.83863 11.8721 9.77407 11.9528 9.6772 12.0335C9.59647 12.0981 9.48344 12.1465 9.35427 12.1627V12.1788C9.48344 12.195 9.6126 12.2434 9.70947 12.308C9.82248 12.3726 9.90322 12.4533 9.95166 12.5502C10.0162 12.6632 10.0485 12.7924 10.0485 12.9699C10.0485 13.1637 10.0001 13.3413 9.90323 13.4866C9.80636 13.6319 9.67719 13.7288 9.4996 13.8095C9.322 13.8902 9.11211 13.9225 8.88608 13.9225H7.72363V10.6289ZM8.17569 12.0174H8.75692C9.01524 12.0174 9.20897 11.969 9.30584 11.8882C9.40271 11.8075 9.4673 11.6783 9.4673 11.5007C9.4673 11.3231 9.40272 11.2101 9.28971 11.1294C9.16055 11.0487 8.9668 11.0164 8.70848 11.0164H8.19183V12.0174H8.17569ZM8.17569 12.3887V13.535H8.80535C9.07981 13.535 9.27356 13.4866 9.38657 13.3736C9.49959 13.2606 9.54803 13.1152 9.54803 12.9377C9.54803 12.8246 9.51574 12.7278 9.4673 12.647C9.41887 12.5663 9.33813 12.5017 9.22511 12.4533C9.1121 12.4049 8.96679 12.3887 8.77305 12.3887H8.17569Z" fill="white"/>
<path d="M11.8248 10.9681C11.6472 10.9681 11.5019 11.0003 11.3728 11.0649C11.2436 11.1295 11.1306 11.2102 11.0337 11.3232C10.9369 11.4363 10.8723 11.5654 10.8238 11.7269C10.7754 11.8883 10.7431 12.0659 10.7431 12.2597C10.7431 12.518 10.7754 12.7602 10.8561 12.9539C10.9369 13.1476 11.0499 13.2929 11.2113 13.406C11.3728 13.519 11.5665 13.5674 11.8087 13.5674C11.954 13.5674 12.0831 13.5513 12.2285 13.5351C12.3576 13.5028 12.4868 13.4705 12.6159 13.4383V13.8419C12.4868 13.8903 12.3576 13.9226 12.2285 13.9549C12.0993 13.971 11.9379 13.9872 11.7603 13.9872C11.4212 13.9872 11.1467 13.9226 10.9207 13.7773C10.6947 13.632 10.5332 13.4382 10.4202 13.1799C10.3072 12.9216 10.2588 12.631 10.2588 12.2758C10.2588 12.0336 10.2911 11.7915 10.3557 11.5977C10.4202 11.3878 10.5333 11.2102 10.6624 11.0649C10.7916 10.9196 10.953 10.7905 11.1629 10.7097C11.3566 10.629 11.5827 10.5806 11.841 10.5806C12.0024 10.5806 12.1639 10.5967 12.3253 10.629C12.4868 10.6613 12.6321 10.7097 12.7612 10.7743L12.5836 11.1618C12.4706 11.1134 12.3576 11.0649 12.2285 11.0326C12.0993 11.0003 11.954 10.9681 11.8248 10.9681Z" fill="white"/>
</g>
<defs>
<linearGradient id="paint0_linear_1407_21806" x1="0" y1="0" x2="24" y2="24" gradientUnits="userSpaceOnUse">
<stop stop-color="#EAA6A6"/>
<stop offset="1" stop-color="#5C7EAF"/>
</linearGradient>
<clipPath id="clip0_1407_21806">
<rect x="3.11133" y="3.11133" width="17.7778" height="17.7778" rx="5" fill="white"/>
</clipPath>
</defs>
</svg>
