<svg width="24" height="24" viewBox="0 0 24 24" fill="none" xmlns="http://www.w3.org/2000/svg">
<rect width="24" height="24" rx="5" fill="url(#paint0_linear_1407_21796)"/>
<path fill-rule="evenodd" clip-rule="evenodd" d="M10.2905 8.83816C9.09577 8.83816 7.9979 9.32252 7.20679 10.1136C6.41568 10.9047 5.93134 11.9865 5.93134 13.1973C5.93134 14.3921 6.41568 15.4899 7.20679 16.281C7.9979 17.0722 9.07962 17.5565 10.2905 17.5565C11.4852 17.5565 12.5831 17.0722 13.3742 16.281C14.1653 15.4899 14.6497 14.4082 14.6497 13.1973C14.6497 12.0026 14.1653 10.9047 13.3742 10.1136C12.567 9.32252 11.4852 8.83816 10.2905 8.83816ZM8.90203 8.41839V6.52942C8.90203 6.36797 9.03119 6.22266 9.20879 6.22266H18.0724C18.2339 6.22266 18.3792 6.35182 18.3792 6.52942V8.98346V11.4375V13.8916V16.3456C18.3792 16.5071 18.25 16.6524 18.0724 16.6524H13.8424L13.794 16.7008C12.8899 17.6049 11.6628 18.1539 10.2905 18.1539C8.91817 18.1539 7.67501 17.6049 6.78703 16.7008C5.88291 15.7967 5.33398 14.5697 5.33398 13.1973C5.33398 11.825 5.88291 10.5818 6.78703 9.69385C7.36825 9.09648 8.09478 8.66057 8.90203 8.41839ZM14.3429 16.0389C14.7304 15.4899 15.0049 14.8764 15.1502 14.1983H17.7657V16.0389H14.3429ZM15.2309 13.5848H17.7657V11.7443H15.0372C15.1825 12.1963 15.247 12.6807 15.247 13.1812C15.247 13.3265 15.2309 13.4557 15.2309 13.5848ZM14.795 11.1308C14.5528 10.5818 14.1976 10.0975 13.7778 9.6777C13.6325 9.5324 13.4872 9.40324 13.3419 9.29022H17.7495V11.1308H14.795ZM12.3571 8.67672H17.7495V6.83618H9.49941V8.28923C9.75773 8.25694 10.016 8.22466 10.2744 8.22466C11.0332 8.22466 11.7274 8.3861 12.3571 8.67672Z" fill="white"/>
<path fill-rule="evenodd" clip-rule="evenodd" d="M10.8256 11.4135C10.9328 11.4612 11.028 11.5326 11.1114 11.616C11.296 11.8006 11.4091 12.0566 11.4091 12.3365C11.4091 12.4079 11.3496 12.4674 11.2781 12.4674H9.49775C9.4263 12.4674 9.36677 12.4079 9.36677 12.3365C9.36677 12.0566 9.4799 11.8006 9.66449 11.616C9.74785 11.5326 9.84311 11.4671 9.95029 11.4135C9.93838 11.4016 9.92051 11.3897 9.9086 11.3718C9.78356 11.2468 9.71212 11.0801 9.71212 10.8955C9.71212 10.7109 9.78951 10.5382 9.9086 10.4191C10.0336 10.2941 10.2004 10.2227 10.385 10.2227C10.5695 10.2227 10.7422 10.3001 10.8613 10.4191C10.9863 10.5442 11.0578 10.7109 11.0578 10.8955C11.0578 11.0801 10.9804 11.2528 10.8613 11.3718C10.8553 11.3897 10.8375 11.4016 10.8256 11.4135ZM8.50338 13.1879C8.50338 13.2594 8.44384 13.3189 8.37239 13.3189C8.30093 13.3189 8.24139 13.2594 8.24139 13.1879V12.9319C8.24139 12.8604 8.30093 12.8009 8.37239 12.8009H10.2599V12.6699C10.2599 12.5984 10.3195 12.5389 10.3909 12.5389C10.4624 12.5389 10.5219 12.5984 10.5219 12.6699V12.8009H12.4094C12.4809 12.8009 12.5404 12.8604 12.5404 12.9319V13.1879C12.5404 13.2594 12.4809 13.3189 12.4094 13.3189C12.338 13.3189 12.2784 13.2594 12.2784 13.1879V13.0569H10.5219V13.1879C10.5219 13.2594 10.4624 13.3189 10.3909 13.3189C10.3195 13.3189 10.2599 13.2594 10.2599 13.1879V13.0569H8.50338V13.1879ZM12.4452 13.4142C12.5881 13.4142 12.7191 13.4737 12.8143 13.569C12.9096 13.6643 12.9692 13.7953 12.9692 13.9382C12.9692 14.0811 12.9156 14.2061 12.8203 14.3014C12.8858 14.3371 12.9394 14.3788 12.993 14.4324L12.9989 14.4383C13.1359 14.5753 13.2192 14.7658 13.2192 14.9742C13.2192 15.0457 13.1597 15.1052 13.0882 15.1052H11.8021C11.7306 15.1052 11.6711 15.0457 11.6711 14.9742C11.6711 14.7599 11.7604 14.5693 11.8974 14.4264L11.9033 14.4205C11.951 14.3728 12.0046 14.3312 12.0641 14.3014C11.9748 14.2061 11.9152 14.0811 11.9152 13.9382C11.9152 13.7953 11.9748 13.6643 12.07 13.569L12.076 13.563C12.1772 13.4737 12.3082 13.4142 12.4452 13.4142ZM12.6357 13.7536C12.5881 13.706 12.5226 13.6762 12.4452 13.6762C12.3737 13.6762 12.3082 13.706 12.2606 13.7476L12.2546 13.7536C12.207 13.8012 12.1772 13.8667 12.1772 13.9441C12.1772 14.0156 12.207 14.087 12.2546 14.1347C12.3023 14.1823 12.3678 14.2121 12.4392 14.2121H12.4452H12.4511C12.5226 14.2121 12.5881 14.1823 12.6357 14.1347C12.6833 14.087 12.7131 14.0215 12.7131 13.9441C12.7131 13.8667 12.6833 13.8012 12.6357 13.7536ZM12.8084 14.611C12.7131 14.5157 12.5881 14.4622 12.4452 14.4622C12.3082 14.4622 12.1832 14.5157 12.0879 14.6051L12.082 14.611C12.0165 14.6765 11.9688 14.7539 11.945 14.8432H12.9394C12.9215 14.7599 12.8798 14.6825 12.8084 14.611ZM10.3909 13.4142C10.5338 13.4142 10.6648 13.4737 10.7601 13.569C10.8554 13.6643 10.9149 13.7953 10.9149 13.9382C10.9149 14.0811 10.8613 14.2061 10.766 14.3014C10.8256 14.3371 10.8851 14.3788 10.9387 14.4324L10.9447 14.4383C11.0816 14.5753 11.165 14.7658 11.165 14.9742C11.165 15.0457 11.1054 15.1052 11.034 15.1052H9.74784C9.67639 15.1052 9.61684 15.0457 9.61684 14.9742C9.61684 14.7599 9.70021 14.5693 9.84311 14.4264L9.84907 14.4205C9.89671 14.3728 9.95029 14.3312 10.0098 14.3014C9.92052 14.2061 9.86098 14.0811 9.86098 13.9382C9.86098 13.7953 9.92052 13.6643 10.0158 13.569L10.0217 13.563C10.123 13.4737 10.248 13.4142 10.3909 13.4142ZM10.5755 13.7536C10.5279 13.706 10.4624 13.6762 10.385 13.6762C10.3135 13.6762 10.248 13.706 10.2004 13.7476L10.1944 13.7536C10.1468 13.8012 10.117 13.8667 10.117 13.9441C10.117 14.0156 10.1468 14.087 10.1944 14.1347C10.2421 14.1823 10.3075 14.2121 10.379 14.2121H10.385H10.3909C10.4624 14.2121 10.5279 14.1823 10.5755 14.1347C10.6231 14.087 10.6529 14.0215 10.6529 13.9441C10.6529 13.8667 10.6231 13.8012 10.5755 13.7536ZM10.7541 14.611C10.6589 14.5157 10.5338 14.4622 10.3909 14.4622C10.254 14.4622 10.1289 14.5157 10.0337 14.6051L10.0277 14.611C9.9622 14.6765 9.91456 14.7539 9.89074 14.8432H10.8851C10.8673 14.7599 10.8196 14.6825 10.7541 14.611ZM8.3307 13.4142C8.4736 13.4142 8.6046 13.4737 8.69987 13.569C8.79514 13.6643 8.85469 13.7953 8.85469 13.9382C8.85469 14.0811 8.8011 14.2061 8.70583 14.3014C8.76537 14.3371 8.82492 14.3788 8.87851 14.4324L8.88445 14.4383C9.0214 14.5753 9.10478 14.7658 9.10478 14.9742C9.10478 15.0457 9.04523 15.1052 8.97378 15.1052H7.68764C7.61618 15.1052 7.55664 15.0457 7.55664 14.9742C7.55664 14.7599 7.64 14.5693 7.78291 14.4264L7.78885 14.4205C7.83649 14.3728 7.89009 14.3312 7.94963 14.3014C7.86032 14.2061 7.80077 14.0811 7.80077 13.9382C7.80077 13.7953 7.8603 13.6643 7.95557 13.569L7.96153 13.563C8.06276 13.4737 8.1878 13.4142 8.3307 13.4142ZM8.52124 13.7536C8.47361 13.706 8.40811 13.6762 8.3307 13.6762C8.25925 13.6762 8.19375 13.706 8.14612 13.7476L8.14016 13.7536C8.09252 13.8012 8.06276 13.8667 8.06276 13.9441C8.06276 14.0156 8.09252 14.087 8.14016 14.1347C8.18779 14.1823 8.25331 14.2121 8.32476 14.2121H8.3307H8.33666C8.40811 14.2121 8.47361 14.1823 8.52124 14.1347C8.56888 14.087 8.59865 14.0215 8.59865 13.9441C8.59865 13.8667 8.56888 13.8012 8.52124 13.7536ZM8.69393 14.611C8.59866 14.5157 8.4736 14.4622 8.3307 14.4622C8.19375 14.4622 8.0687 14.5157 7.97343 14.6051L7.96749 14.611C7.90199 14.6765 7.85435 14.7539 7.83054 14.8432H8.82492C8.80706 14.7599 8.75942 14.6825 8.69393 14.611ZM10.3909 11.3183C10.504 11.3183 10.6112 11.2706 10.6886 11.1932C10.766 11.1158 10.8137 11.0146 10.8137 10.8955C10.8137 10.7824 10.766 10.6752 10.6886 10.5978C10.6112 10.5204 10.51 10.4727 10.3909 10.4727C10.2778 10.4727 10.1706 10.5204 10.0932 10.5978C10.0158 10.6752 9.96815 10.7764 9.96815 10.8955C9.96815 11.0086 10.0158 11.1158 10.0932 11.1932C10.1706 11.2706 10.2718 11.3183 10.3909 11.3183ZM10.9268 11.7946C10.7899 11.6577 10.5993 11.5683 10.385 11.5683C10.1766 11.5683 9.98602 11.6517 9.84907 11.7946C9.74189 11.9018 9.66448 12.0447 9.63471 12.2055H11.1412C11.1114 12.0506 11.0399 11.9077 10.9268 11.7946Z" fill="white"/>
<defs>
<linearGradient id="paint0_linear_1407_21796" x1="0" y1="0" x2="24" y2="24" gradientUnits="userSpaceOnUse">
<stop stop-color="#BEA9A9"/>
<stop offset="1" stop-color="#1D8FB5"/>
</linearGradient>
</defs>
</svg>
