<svg width="24" height="24" viewBox="0 0 24 24" fill="none" xmlns="http://www.w3.org/2000/svg">
<rect width="24" height="24" rx="5" fill="url(#paint0_linear_1407_21758)"/>
<path d="M10.366 19.6125C9.75683 19.6125 9.21015 19.3938 8.74157 18.9565C7.28898 17.6133 6.39869 15.8014 5.97697 13.3961C5.9145 13.0681 5.96135 12.8182 6.11754 12.6307C6.33621 12.3652 6.69545 12.3027 7.03908 12.2871C9.0071 12.1621 11.0532 11.8498 13.0993 11.3812C14.0053 11.1781 14.8956 10.8814 15.7702 10.6002C16.7855 10.2722 17.832 9.92859 18.9097 9.70992L19.472 9.60059L19.2377 10.1316L18.9722 10.0379L19.2377 10.1473C18.3006 12.2402 17.4103 13.849 16.4262 15.2235C14.6925 17.6445 12.8807 19.0815 11.022 19.5344C10.8033 19.5813 10.5846 19.6125 10.366 19.6125Z" fill="white"/>
<path d="M6.22686 10.0534C5.46152 10.0534 4.9617 9.86595 4.69617 9.45985C4.39941 9.03813 4.44627 8.42897 4.78989 7.63239C5.27409 6.53904 6.03943 5.61752 7.03906 4.88341C7.0703 4.86779 7.10154 4.83655 7.13278 4.80531C7.35145 4.64912 7.69507 4.36797 8.08555 4.57102C8.42917 4.75845 8.38231 5.13331 8.35108 5.33636C8.33546 5.39884 8.33546 5.47694 8.33546 5.5238V5.58627C8.42917 6.99201 8.50727 8.30403 9.80367 9.22556L10.4597 9.69413L9.64748 9.75661C9.27261 9.78785 8.92899 9.81909 8.56975 9.85033C7.80441 9.92843 7.08592 9.9909 6.35181 10.0221C6.33619 10.0534 6.27372 10.0534 6.22686 10.0534Z" fill="white"/>
<defs>
<linearGradient id="paint0_linear_1407_21758" x1="0" y1="0" x2="24" y2="24" gradientUnits="userSpaceOnUse">
<stop stop-color="#F96098"/>
<stop offset="1" stop-color="#F71668"/>
</linearGradient>
</defs>
</svg>
