<svg width="24" height="24" viewBox="0 0 24 24" fill="none" xmlns="http://www.w3.org/2000/svg">
<rect width="24" height="24" rx="5" fill="url(#paint0_linear_1407_21719)"/>
<g clip-path="url(#clip0_1407_21719)">
<path fill-rule="evenodd" clip-rule="evenodd" d="M12.6668 18.2049C12.6505 18.2209 12.6343 18.2369 12.618 18.2529C12.5367 18.3329 12.4554 18.3969 12.3741 18.4609C12.3579 18.4769 12.3416 18.4929 12.3416 18.5089C12.3416 18.5249 12.3416 18.5409 12.3416 18.5729C12.3416 18.5889 12.3579 18.6048 12.3741 18.6208C12.3904 18.6368 12.4066 18.6368 12.4392 18.6368H18.2924C18.3087 18.6368 18.3412 18.6368 18.3574 18.6208C18.3737 18.6048 18.39 18.5889 18.39 18.5729C18.39 18.5569 18.39 18.5249 18.39 18.5089C18.39 18.4929 18.3737 18.4769 18.3574 18.4609C18.2111 18.3489 18.081 18.2209 17.9672 18.093C17.8534 17.949 17.7559 17.805 17.6746 17.6451C17.5933 17.4851 17.5282 17.3251 17.4957 17.1492C17.4632 16.9732 17.4307 16.7972 17.4307 16.6213V15.5495C17.4307 15.3096 17.3819 15.0856 17.3169 14.8777C17.2356 14.6537 17.1217 14.4617 16.9754 14.2858C16.8616 14.1578 16.7315 14.0298 16.6015 13.9339C16.5852 13.9179 16.569 13.9179 16.5527 13.9019C16.5364 13.8859 16.5202 13.8859 16.5039 13.8699C16.3251 13.7579 16.13 13.6779 15.9348 13.6139L15.6747 13.5499V12.3022C15.6747 12.2702 15.6584 12.2222 15.6584 12.1902C15.6422 12.1582 15.6259 12.1263 15.5934 12.0943C15.5284 12.0303 15.4633 12.0143 15.382 12.0143C15.3007 12.0143 15.2357 12.0463 15.1707 12.0943C15.1381 12.1263 15.1219 12.1582 15.1056 12.1902C15.0894 12.2222 15.0894 12.2702 15.0894 12.3022V13.5499L14.8292 13.6139C14.6179 13.6779 14.4228 13.7579 14.2602 13.8699C14.0813 13.9818 13.9187 14.1258 13.7887 14.2858C13.6423 14.4617 13.5285 14.6697 13.4472 14.8777C13.3659 15.0856 13.3334 15.3096 13.3334 15.5495V16.6053C13.3334 16.6213 13.3334 16.6213 13.3334 16.6373C13.3334 16.6533 13.3334 16.6533 13.3334 16.6693C13.3334 16.8292 13.3009 16.9892 13.2684 17.1492C13.2196 17.3251 13.1708 17.5011 13.0895 17.6451C13.0082 17.805 12.9107 17.949 12.7969 18.093C12.7318 18.125 12.6993 18.157 12.6668 18.2049ZM17.0079 19.3247C16.9754 19.4047 16.9429 19.4687 16.9104 19.5326C16.8291 19.6926 16.7153 19.8366 16.6015 19.9486C16.4389 20.1085 16.2438 20.2365 16.0324 20.3165C15.8211 20.3965 15.5934 20.4444 15.3658 20.4444C15.1219 20.4444 14.8943 20.3965 14.6992 20.3165C14.4878 20.2365 14.2927 20.1085 14.1301 19.9486C14 19.8206 13.9025 19.6766 13.8212 19.5326C13.7887 19.4687 13.7561 19.3887 13.7236 19.3247H12.4392C12.2441 19.3247 12.0652 19.2607 11.9351 19.1487C11.8213 19.0528 11.7238 18.9248 11.675 18.7808C11.6262 18.6368 11.6262 18.4769 11.6587 18.3329V18.3169H6.45584C6.14691 18.3169 5.87053 18.1889 5.65916 17.997C5.44779 17.789 5.33398 17.5171 5.33398 17.2132V5.43969C5.33398 5.13576 5.46405 4.84782 5.65916 4.65586C5.87053 4.44791 6.14691 4.33593 6.45584 4.33593H8.71586C8.71586 4.14397 8.87843 4 9.07354 4H13.3822C13.5773 4 13.7236 4.14397 13.7399 4.33593H15.9999C16.3088 4.33593 16.5852 4.46391 16.7966 4.65586C17.0079 4.86382 17.1218 5.13576 17.1218 5.43969V13.438C17.2681 13.5499 17.3982 13.6779 17.512 13.8219C17.7071 14.0618 17.8697 14.3338 17.9672 14.6217C18.0648 14.9096 18.1298 15.2136 18.1298 15.5335V16.6053C18.1298 16.7333 18.1461 16.8612 18.1786 16.9732C18.2111 17.1012 18.2436 17.2132 18.3087 17.3251C18.3737 17.4371 18.4388 17.5491 18.52 17.6451C18.6013 17.741 18.6989 17.837 18.7964 17.901C18.959 18.013 19.0403 18.1729 19.0891 18.3329C19.1216 18.4769 19.1216 18.6368 19.0728 18.7808C19.0241 18.9248 18.9428 19.0528 18.8127 19.1487C18.6826 19.2607 18.5038 19.3247 18.3087 19.3247H17.0079ZM14.4878 19.3247C14.5203 19.3727 14.5691 19.4207 14.6179 19.4687C14.7154 19.5646 14.8292 19.6446 14.9593 19.6926C15.0894 19.7406 15.2195 19.7726 15.3658 19.7726C15.5121 19.7726 15.6422 19.7406 15.7723 19.6926C15.9023 19.6446 16.0161 19.5646 16.1137 19.4687C16.1625 19.4207 16.195 19.3727 16.2438 19.3247H14.4878ZM16.4226 13.0221L16.3738 13.0061V12.2702C16.3738 12.1422 16.3413 12.0143 16.2925 11.8863C16.2438 11.7583 16.1625 11.6624 16.0812 11.5664C15.9836 11.4704 15.8536 11.3904 15.7235 11.3424V6.01557C15.7235 5.82361 15.5609 5.66364 15.3658 5.66364H13.7236V5.02378H15.9836C16.0974 5.02378 16.2112 5.07177 16.2925 5.15175C16.3738 5.23174 16.4226 5.32772 16.4226 5.45569V13.0221ZM15.0081 11.3424C14.878 11.3904 14.7479 11.4704 14.6504 11.5664C14.5528 11.6624 14.4878 11.7583 14.439 11.8863C14.3902 11.9983 14.3577 12.1262 14.3577 12.2702V13.0061C14.1789 13.07 14 13.166 13.8374 13.262C13.5936 13.422 13.3822 13.5979 13.2033 13.8219C13.0082 14.0618 12.8456 14.3338 12.7481 14.6217C12.6505 14.9096 12.5855 15.2136 12.5855 15.5335V16.2693H7.41514V6.35149H8.69959V6.36749C8.69959 6.55945 8.86218 6.71942 9.05729 6.71942H13.3659C13.561 6.71942 13.7236 6.55945 13.7236 6.36749V6.35149H15.0081V11.3424ZM12.5692 16.9732C12.5367 17.1172 12.4879 17.2291 12.4392 17.3411C12.3904 17.4531 12.3091 17.5491 12.2441 17.6451H6.47211C6.3583 17.6451 6.24448 17.5971 6.16319 17.5171C6.08189 17.4371 6.03311 17.3411 6.03311 17.2132V5.43969C6.03311 5.32772 6.08189 5.21574 6.16319 5.13575C6.24448 5.05577 6.34204 5.00779 6.47211 5.00779H8.73211V5.64764H7.08996C6.89485 5.64764 6.73226 5.80761 6.73226 5.99957V16.6053C6.73226 16.7972 6.89485 16.9572 7.08996 16.9572H12.5692V16.9732ZM8.71586 12.7021H8.68334C8.48823 12.7021 8.32564 12.8621 8.32564 13.0541C8.32564 13.246 8.48823 13.406 8.68334 13.406H8.71586C8.91097 13.406 9.07354 13.246 9.07354 13.0541C9.07354 12.8461 8.91097 12.7021 8.71586 12.7021ZM8.71586 10.8145H8.68334C8.48823 10.8145 8.32564 10.9745 8.32564 11.1665C8.32564 11.3584 8.48823 11.5184 8.68334 11.5184H8.71586C8.91097 11.5184 9.07354 11.3584 9.07354 11.1665C9.07354 10.9585 8.91097 10.8145 8.71586 10.8145ZM8.71586 8.92694H8.68334C8.48823 8.92694 8.32564 9.08691 8.32564 9.27886C8.32564 9.47082 8.48823 9.63079 8.68334 9.63079H8.71586C8.91097 9.63079 9.07354 9.47082 9.07354 9.27886C9.07354 9.07091 8.91097 8.92694 8.71586 8.92694ZM13.7561 8.92694H10.0003C9.80521 8.92694 9.64261 9.08691 9.64261 9.27886C9.64261 9.47082 9.80521 9.63079 10.0003 9.63079H13.7561C13.9512 9.63079 14.1138 9.47082 14.1138 9.27886C14.1138 9.07091 13.9512 8.92694 13.7561 8.92694ZM13.7561 10.8145H10.0003C9.80521 10.8145 9.64261 10.9745 9.64261 11.1665C9.64261 11.3584 9.80521 11.5184 10.0003 11.5184H13.7561C13.9512 11.5184 14.1138 11.3584 14.1138 11.1665C14.1138 10.9585 13.9512 10.8145 13.7561 10.8145ZM12.5205 12.7021C12.7156 12.7021 12.8782 12.8621 12.8782 13.0541C12.8782 13.246 12.7156 13.406 12.5205 13.406H10.0166C9.82146 13.406 9.65886 13.246 9.65886 13.0541C9.65886 12.8621 9.82146 12.7021 10.0166 12.7021H12.5205ZM9.41499 4.68785V6.01557V6.03157H13.0245V6.01557V4.68785H9.41499Z" fill="white"/>
</g>
<defs>
<linearGradient id="paint0_linear_1407_21719" x1="0" y1="0" x2="24" y2="24" gradientUnits="userSpaceOnUse">
<stop stop-color="#D57C46"/>
<stop offset="1" stop-color="#9B1148"/>
</linearGradient>
<clipPath id="clip0_1407_21719">
<rect x="3.11133" y="3.11133" width="17.7778" height="17.7778" rx="5" fill="white"/>
</clipPath>
</defs>
</svg>
