<svg width="24" height="25" viewBox="0 0 24 25" fill="none" xmlns="http://www.w3.org/2000/svg">
<rect y="1.0127" width="24" height="23.8397" rx="5" fill="url(#paint0_linear_1407_21740)"/>
<g clip-path="url(#clip0_1407_21740)">
<path fill-rule="evenodd" clip-rule="evenodd" d="M14.3163 12.9462C14.1266 12.9462 13.9685 12.794 13.9685 12.6113C13.9685 12.4286 14.1266 12.2764 14.3163 12.2764H15.9445C16.1342 12.2764 16.2923 12.4286 16.2923 12.6113C16.2923 12.794 16.1342 12.9462 15.9445 12.9462H14.3163ZM11.2021 12.9462C11.0124 12.9462 10.8544 12.794 10.8544 12.6113C10.8544 12.4286 11.0124 12.2764 11.2021 12.2764H12.8303C13.02 12.2764 13.1781 12.4286 13.1781 12.6113C13.1781 12.794 13.02 12.9462 12.8303 12.9462H11.2021ZM11.2021 16.8282C11.0124 16.8282 10.8544 16.6759 10.8544 16.4933C10.8544 16.3106 11.0124 16.1583 11.2021 16.1583H12.8303C13.02 16.1583 13.1781 16.3106 13.1781 16.4933C13.1781 16.6759 13.02 16.8282 12.8303 16.8282H11.2021ZM8.07218 16.8282C7.88248 16.8282 7.7244 16.6759 7.7244 16.4933C7.7244 16.3106 7.88248 16.1583 8.07218 16.1583H9.70038C9.89008 16.1583 10.0482 16.3106 10.0482 16.4933C10.0482 16.6759 9.89008 16.8282 9.70038 16.8282H8.07218ZM14.3163 14.8796C14.1266 14.8796 13.9685 14.7274 13.9685 14.5447C13.9685 14.362 14.1266 14.2098 14.3163 14.2098H15.9445C16.1342 14.2098 16.2923 14.362 16.2923 14.5447C16.2923 14.7274 16.1342 14.8796 15.9445 14.8796H14.3163ZM11.2021 14.8796C11.0124 14.8796 10.8544 14.7274 10.8544 14.5447C10.8544 14.362 11.0124 14.2098 11.2021 14.2098H12.8303C13.02 14.2098 13.1781 14.362 13.1781 14.5447C13.1781 14.7274 13.02 14.8796 12.8303 14.8796H11.2021ZM8.07218 14.8796C7.88248 14.8796 7.7244 14.7274 7.7244 14.5447C7.7244 14.362 7.88248 14.2098 8.07218 14.2098H9.70038C9.89008 14.2098 10.0482 14.362 10.0482 14.5447C10.0482 14.7274 9.89008 14.8796 9.70038 14.8796H8.07218ZM6.91821 10.6323H17.1143V8.77505C17.1143 8.65327 17.0669 8.54671 16.9878 8.47059C16.9088 8.39447 16.7981 8.3488 16.6717 8.3488H15.9445V9.2622C15.9445 9.44488 15.7864 9.59711 15.5967 9.59711C15.407 9.59711 15.249 9.44488 15.249 9.2622V8.3488H8.76773V9.2622C8.76773 9.44488 8.60964 9.59711 8.41995 9.59711C8.23026 9.59711 8.07218 9.44488 8.07218 9.2622V8.3488H7.34503C7.21856 8.3488 7.10789 8.39447 7.02885 8.47059L7.01305 8.48581C6.93401 8.56192 6.90238 8.66849 6.90238 8.77505V10.6323H6.91821ZM17.1143 11.2869H6.91821V17.7111C6.91821 17.8329 6.96563 17.9395 7.04467 18.0156C7.12371 18.0917 7.23436 18.1374 7.36083 18.1374H16.6717C16.7981 18.1374 16.9088 18.0917 16.9878 18.0156C17.0669 17.9395 17.1143 17.8329 17.1143 17.7111V11.2869ZM15.249 7.6942H8.76773V6.76558C8.76773 6.5829 8.60964 6.43066 8.41995 6.43066C8.23026 6.43066 8.07218 6.5829 8.07218 6.76558V7.6942H7.34503C7.02887 7.6942 6.76013 7.81598 6.55463 8.01389L6.53881 8.02911C6.34911 8.22702 6.22266 8.48581 6.22266 8.77505V10.952V17.7111C6.22266 18.0156 6.34913 18.2744 6.55463 18.4723C6.76013 18.6702 7.04468 18.792 7.34503 18.792H16.6559C16.972 18.792 17.2408 18.6702 17.4463 18.4723C17.6518 18.2744 17.7782 18.0004 17.7782 17.7111V10.952V8.77505C17.7782 8.47059 17.6518 8.21179 17.4463 8.01389C17.2408 7.81598 16.9562 7.6942 16.6559 7.6942H15.9287V6.76558C15.9287 6.5829 15.7706 6.43066 15.5809 6.43066C15.3912 6.43066 15.2331 6.5829 15.2331 6.76558V7.6942H15.249Z" fill="white"/>
</g>
<defs>
<linearGradient id="paint0_linear_1407_21740" x1="0" y1="1.0127" x2="23.8391" y2="25.0122" gradientUnits="userSpaceOnUse">
<stop stop-color="#B5CFB2"/>
<stop offset="1" stop-color="#2B3FF4"/>
</linearGradient>
<clipPath id="clip0_1407_21740">
<rect x="3.11133" y="0.852051" width="17.7778" height="17.659" rx="5" fill="white"/>
</clipPath>
</defs>
</svg>
