<svg width="24" height="24" viewBox="0 0 24 24" fill="none" xmlns="http://www.w3.org/2000/svg">
<rect width="24" height="24" rx="5" fill="url(#paint0_linear_1407_21733)"/>
<g clip-path="url(#clip0_1407_21733)">
<path fill-rule="evenodd" clip-rule="evenodd" d="M15.1821 11.217C15.4178 11.217 15.6143 11.4057 15.6143 11.6322C15.6143 11.8586 15.4178 12.0473 15.1821 12.0473H8.83709C8.60137 12.0473 8.40495 11.8586 8.40495 11.6322C8.40495 11.4057 8.60137 11.217 8.83709 11.217H15.1821ZM9.40678 3.55566C9.17106 3.55566 8.99426 3.72548 8.97461 3.95192H6.24411C5.87087 3.95192 5.53692 4.10291 5.28154 4.32935C5.02617 4.57467 4.88867 4.89544 4.88867 5.25398V19.1425C4.88867 19.501 5.04582 19.8219 5.28154 20.0672C5.53692 20.3125 5.87087 20.4446 6.24411 20.4446H17.7555C18.1287 20.4446 18.4627 20.2936 18.718 20.0672C18.9734 19.8219 19.1109 19.501 19.1109 19.1425V5.25398C19.1109 4.89544 18.9537 4.57467 18.718 4.32935C18.4627 4.08404 18.1287 3.95192 17.7555 3.95192H15.025C15.025 3.72548 14.8285 3.55566 14.5928 3.55566H9.40678ZM14.1802 4.36707V5.93328V5.95217H9.81929V5.93328V4.36707H14.1802ZM15.025 5.51813H17.009C17.2447 5.51813 17.4411 5.70684 17.4411 5.93328V18.4443C17.4411 18.6707 17.2447 18.8595 17.009 18.8595H7.01022C6.77449 18.8595 6.57805 18.6707 6.57805 18.4443V5.93328C6.57805 5.70684 6.77449 5.51813 7.01022 5.51813H8.99425V4.76333H6.26374C6.12623 4.76333 5.98872 4.81998 5.8905 4.91433C5.79228 5.00868 5.73338 5.12191 5.73338 5.27287V19.1614C5.73338 19.2935 5.79228 19.4256 5.8905 19.5199C5.98872 19.6143 6.10659 19.6709 6.26374 19.6709H17.7751C17.9126 19.6709 18.0501 19.6143 18.1483 19.5199C18.2466 19.4256 18.3055 19.3123 18.3055 19.1614V5.27287C18.3055 5.14078 18.2466 5.00868 18.1483 4.91433C18.0501 4.81998 17.9322 4.76333 17.7751 4.76333H15.0446V5.51813H15.025ZM8.97461 6.3296H7.42276V18.0292H16.5768V6.3296H15.025V6.34843C15.025 6.57488 14.8285 6.76358 14.5928 6.76358H9.38715C9.17107 6.76358 8.97461 6.57492 8.97461 6.3296ZM14.1802 14.7646C14.3374 14.7646 14.4749 14.8212 14.5731 14.9156L14.5928 14.9345C14.691 15.0288 14.7696 15.1798 14.7696 15.3307C14.7696 15.4817 14.7106 15.6326 14.5928 15.727C14.4946 15.8213 14.3374 15.8968 14.1802 15.8968C14.0231 15.8968 13.866 15.8402 13.7677 15.727C13.6695 15.6326 13.591 15.4817 13.591 15.3307C13.591 15.1798 13.6499 15.0476 13.7481 14.9533L13.7677 14.9345C13.866 14.8212 14.0231 14.7646 14.1802 14.7646ZM13.1588 14.3495C13.4142 14.1042 13.7677 13.9532 14.1802 13.9532C14.5535 13.9532 14.9071 14.1041 15.1624 14.3306L15.1821 14.3495C15.4375 14.5948 15.5946 14.9344 15.5946 15.3118C15.5946 15.6892 15.4375 16.0289 15.1821 16.2931C14.9267 16.5384 14.5731 16.6894 14.1802 16.6894C13.7874 16.6894 13.4338 16.5384 13.1588 16.2931C12.9034 16.0478 12.7462 15.7081 12.7462 15.3118C12.7462 14.9533 12.9034 14.6136 13.1391 14.3683L13.1588 14.3495ZM9.30856 8.12225C9.30856 7.8958 9.505 7.7071 9.74073 7.7071C9.97645 7.7071 10.1729 7.8958 10.1729 8.12225V8.594H10.664C10.8997 8.594 11.0962 8.78271 11.0962 9.00915C11.0962 9.2356 10.8997 9.4243 10.664 9.4243H10.1729V9.89606C10.1729 10.1225 9.97645 10.3112 9.74073 10.3112C9.505 10.3112 9.30856 10.1225 9.30856 9.89606V9.4243H8.81746C8.58173 9.4243 8.38529 9.2356 8.38529 9.00915C8.38529 8.78271 8.58173 8.594 8.81746 8.594H9.30856V8.12225ZM11.489 12.9719C11.7248 12.9719 11.9212 13.1606 11.9212 13.3871C11.9212 13.6135 11.7248 13.8022 11.489 13.8022H8.81746C8.58173 13.8022 8.38529 13.6135 8.38529 13.3871C8.38529 13.1606 8.58173 12.9719 8.81746 12.9719H11.489Z" fill="white"/>
</g>
<defs>
<linearGradient id="paint0_linear_1407_21733" x1="0" y1="0" x2="24" y2="24" gradientUnits="userSpaceOnUse">
<stop stop-color="#DE50AD"/>
<stop offset="1" stop-color="#5823E7"/>
</linearGradient>
<clipPath id="clip0_1407_21733">
<rect x="3.11133" y="3.11133" width="17.7778" height="17.7778" rx="5" fill="white"/>
</clipPath>
</defs>
</svg>
