<svg width="27" height="26" viewBox="0 0 27 26" fill="none" xmlns="http://www.w3.org/2000/svg">
<path fill-rule="evenodd" clip-rule="evenodd" d="M13.4901 0.22547C13.242 -0.053635 12.7768 -0.0846297 12.4977 0.194476L0.248076 11.6378C0.0930172 11.7618 0 11.9479 0 12.165V13.6535C0 14.0257 0.310097 14.3358 0.682238 14.3358H2.60497V24.2906H0.713256C0.341116 24.2906 0.0309947 24.6007 0.0309947 24.9728C0.0309947 25.345 0.341116 25.6551 0.713256 25.6551H3.31825H22.7936H25.3986C25.7707 25.6551 26.0808 25.345 26.0808 24.9728C26.0808 24.6007 25.7707 24.2906 25.3986 24.2906H23.4759V14.3978H25.3986C25.7707 14.3978 26.0808 14.0877 26.0808 13.7156V12.227C26.0808 12.0409 26.0188 11.8549 25.8638 11.7308L13.4901 0.22547ZM24.7163 12.5061L12.9939 1.65201L1.39552 12.4751V12.9713H3.31825C3.69039 12.9713 4.00051 13.2814 4.00051 13.6535V24.2906H22.0803V13.6535C22.0803 13.2814 22.3904 12.9713 22.7626 12.9713H24.6853V12.5061H24.7163Z" fill="#BE1128"/>
<path d="M12.4362 21.2514C11.909 21.2514 11.4128 21.0653 11.0096 20.6932C9.73817 19.5147 8.96288 17.9332 8.59074 15.8244C8.52871 15.5453 8.59074 15.3282 8.71479 15.1421C8.90086 14.894 9.21098 14.863 9.5211 14.832C11.2578 14.7079 13.0254 14.4598 14.8241 14.0257C15.5994 13.8396 16.4057 13.5915 17.15 13.3434C18.0493 13.0643 18.9486 12.7542 19.91 12.5681L20.4062 12.4751L20.1891 12.9403L19.941 12.8472L20.1581 12.9403C19.3208 14.77 18.5455 16.1965 17.6772 17.3749C16.1576 19.4837 14.576 20.7552 12.9324 21.1583C12.8083 21.2204 12.6222 21.2514 12.4362 21.2514Z" fill="#BE1128"/>
<path d="M7.62879 14.3978C6.97754 14.3978 6.51236 14.2427 6.29528 13.8706C6.04719 13.4985 6.07819 12.9713 6.38831 12.258C6.82248 11.2966 7.47372 10.4903 8.37306 9.87009C8.40407 9.83908 8.43508 9.83909 8.46609 9.80807C8.65216 9.65302 8.96229 9.43594 9.30342 9.62201C9.61354 9.77707 9.5515 10.1182 9.5515 10.3042C9.5515 10.3663 9.5515 10.4283 9.5515 10.4593V10.5213C9.64453 11.7618 9.70657 12.9093 10.854 13.7156L11.4432 14.1187L10.73 14.1807C10.4198 14.2117 10.1097 14.2428 9.7996 14.2738C9.11734 14.3358 8.49711 14.3978 7.84587 14.4288C7.72182 14.3978 7.6598 14.3978 7.62879 14.3978Z" fill="#BE1128"/>
</svg>
