<svg width="24" height="24" viewBox="0 0 24 24" fill="none" xmlns="http://www.w3.org/2000/svg">
<rect width="24" height="24" rx="5" fill="url(#paint0_linear_1407_21747)"/>
<g clip-path="url(#clip0_1407_21747)">
<path fill-rule="evenodd" clip-rule="evenodd" d="M16.7536 4.29231C16.6977 4.23461 16.6231 4.19613 16.5672 4.15766C16.4927 4.1192 16.4181 4.11919 16.3435 4.11919C16.269 4.11919 16.1944 4.13843 16.1384 4.15766C16.0639 4.1769 16.0079 4.21536 15.952 4.27306C15.8961 4.33076 15.8589 4.38848 15.8216 4.44618C15.7843 4.50388 15.7656 4.5808 15.747 4.6385V4.69619V4.73467C15.747 4.83084 15.7656 4.90776 15.7843 4.96546C15.8215 5.04239 15.8588 5.1001 15.9148 5.1578C15.9707 5.2155 16.0453 5.25396 16.1012 5.29242C16.1758 5.33089 16.2503 5.3309 16.3249 5.3309C16.3622 5.3309 16.3994 5.3309 16.4181 5.3309C16.4553 5.3309 16.474 5.31167 16.5113 5.31167C16.5486 5.29244 16.5672 5.29243 16.6045 5.2732C16.6418 5.25397 16.6604 5.23474 16.6791 5.2155C16.7163 5.19627 16.7536 5.1578 16.7722 5.11933C16.7909 5.08086 16.8282 5.0424 16.8468 5.00393C16.8655 4.96547 16.8841 4.90775 16.8841 4.86929C16.9027 4.83082 16.9027 4.77314 16.9027 4.73467C16.9027 4.6385 16.8841 4.56158 16.8655 4.50388C16.8468 4.42695 16.8096 4.35001 16.7536 4.29231ZM5.38252 11.0624C5.3266 11.0047 5.25202 10.9663 5.1961 10.9278C5.12153 10.8893 5.04698 10.8893 4.97241 10.8893C4.89785 10.8893 4.82325 10.9086 4.76733 10.9278C4.69276 10.947 4.63683 10.9855 4.58091 11.0432C4.52498 11.1009 4.48774 11.1586 4.45046 11.2163C4.41318 11.274 4.39454 11.3509 4.39454 11.4086V11.4663V11.5048C4.39454 11.601 4.41316 11.6779 4.4318 11.7356C4.46908 11.8125 4.50638 11.8702 4.5623 11.9279C4.61823 11.9856 4.6928 12.0241 4.74873 12.0626C4.82329 12.101 4.89785 12.101 4.97241 12.101C5.00969 12.101 5.04695 12.101 5.06559 12.101C5.10288 12.101 5.14019 12.0818 5.15883 12.0818C5.19612 12.0625 5.21473 12.0626 5.25202 12.0433C5.2893 12.0241 5.30796 12.0049 5.3266 11.9856C5.36388 11.9664 5.40114 11.9279 5.41978 11.8895C5.43842 11.851 5.47572 11.8125 5.49436 11.7741C5.513 11.7356 5.53162 11.6779 5.53162 11.6394C5.55026 11.601 5.55028 11.5433 5.55028 11.5048C5.55028 11.4086 5.5316 11.3317 5.51296 11.274C5.49432 11.1778 5.43844 11.1201 5.38252 11.0624ZM5.88581 10.3893C5.90445 10.4085 5.94175 10.447 5.96039 10.4662C6.09088 10.6008 6.18409 10.7547 6.25866 10.9278C6.33322 11.1009 6.3705 11.2932 6.3705 11.4855C6.3705 11.6009 6.35182 11.6971 6.33318 11.8125C6.31454 11.9279 6.27726 12.0241 6.22134 12.1202C6.18405 12.2164 6.1095 12.3126 6.05357 12.3895C5.99765 12.4664 5.94171 12.5242 5.86715 12.5819C6.25861 13.005 6.85517 13.3704 7.60082 13.6781C7.76859 12.9857 8.01088 12.2356 8.30914 11.4855C7.99224 10.7354 7.76859 9.98535 7.60082 9.29295C6.87382 9.60069 6.27727 9.98537 5.88581 10.3893ZM5.10291 12.9473C5.04699 12.9473 5.00969 12.9473 4.97241 12.9473C4.786 12.9473 4.59957 12.9088 4.4318 12.8319C4.26403 12.7549 4.09626 12.6588 3.96577 12.5242C3.83528 12.3895 3.74207 12.2357 3.66751 12.0626C3.59294 11.8895 3.55566 11.6971 3.55566 11.5048V11.4855V11.3894V11.3125C3.57431 11.1394 3.63026 10.9663 3.70483 10.8124C3.77939 10.6585 3.8912 10.5239 4.02169 10.4085C4.15218 10.2931 4.28269 10.2162 4.45046 10.1392C4.59959 10.0815 4.76732 10.0431 4.93509 10.0431C4.97237 10.0431 5.02831 10.0431 5.06559 10.0431C5.55026 9.42758 6.37049 8.86983 7.4144 8.46593C7.39576 8.29284 7.35848 8.13897 7.35848 7.9851C7.19071 6.29257 7.56352 4.94623 8.51422 4.36923C9.46492 3.79223 10.7698 4.13842 12.1306 5.13855C12.2611 5.23472 12.3916 5.33089 12.5034 5.44629C13.3795 4.71543 14.2371 4.25384 15.0014 4.13844C15.02 4.09998 15.0386 4.08074 15.0386 4.04227C15.1132 3.8884 15.2251 3.75376 15.3556 3.63836C15.486 3.52296 15.6165 3.44603 15.7843 3.36909C15.9334 3.31139 16.1012 3.27295 16.269 3.27295C16.4554 3.27295 16.6418 3.31141 16.8096 3.38834C16.9773 3.46528 17.1451 3.56142 17.2569 3.69605C17.3874 3.83069 17.4806 3.98455 17.5552 4.17689C17.6298 4.34999 17.667 4.54234 17.667 4.73467C17.667 4.85007 17.6484 4.94623 17.6297 5.06163C17.6111 5.17703 17.5738 5.27321 17.5179 5.36937C17.4806 5.44631 17.4434 5.50401 17.3874 5.58094C17.667 6.33104 17.7043 7.33116 17.5365 8.48516C17.6857 8.54286 17.8348 8.60057 17.9839 8.6775C19.4938 9.3699 20.4446 10.37 20.4446 11.5048C20.4446 12.6396 19.5125 13.6397 17.9839 14.3321C17.8348 14.3898 17.6857 14.4667 17.5365 14.5244C17.7043 15.6592 17.667 16.6593 17.3874 17.4287C17.4434 17.5056 17.4993 17.6017 17.5365 17.6787C17.5738 17.7748 17.6111 17.871 17.6297 17.9672C17.6484 18.0634 17.667 18.1595 17.667 18.2749C17.667 18.4672 17.6298 18.6596 17.5552 18.8327C17.4806 19.0058 17.3874 19.1789 17.2569 19.2943C17.1264 19.4289 16.9773 19.5251 16.8096 19.602C16.6418 19.6789 16.4554 19.7174 16.269 19.7174C16.1012 19.7174 15.9334 19.679 15.7843 19.6213C15.6165 19.5636 15.486 19.4674 15.3556 19.352C15.2251 19.2366 15.1318 19.1019 15.0386 18.9481C15.02 18.9096 15.0014 18.8904 15.0014 18.8519C14.2371 18.7173 13.3609 18.2557 12.5034 17.5441C12.3729 17.6595 12.2425 17.7556 12.1306 17.8518C10.7884 18.8519 9.48358 19.1981 8.53288 18.6211C7.58218 18.0441 7.20931 16.717 7.37708 15.0052C7.39572 14.8514 7.41442 14.6783 7.43306 14.5244C6.40779 14.1013 5.58758 13.5628 5.10291 12.9473ZM16.5113 17.6787C16.474 17.6594 16.4553 17.6595 16.4181 17.6595C16.3808 17.6595 16.3622 17.6595 16.3249 17.6595C16.2317 17.6595 16.1571 17.6787 16.1012 17.6979C16.0266 17.7364 15.9707 17.7748 15.9148 17.8325C15.8588 17.8902 15.8215 17.9672 15.7843 18.0441C15.747 18.121 15.747 18.198 15.747 18.2749V18.3134V18.3711C15.7656 18.448 15.7843 18.5057 15.8216 18.5826C15.8589 18.6403 15.8961 18.698 15.952 18.7557C16.0079 18.8134 16.0639 18.8519 16.1384 18.8712C16.1944 18.8904 16.269 18.9096 16.3435 18.9096C16.4367 18.9096 16.5113 18.8904 16.5672 18.8712C16.6418 18.8327 16.6977 18.7942 16.7536 18.7365C16.8096 18.6788 16.8468 18.6019 16.8841 18.5442C16.9214 18.4672 16.9214 18.3903 16.9214 18.3134C16.9214 18.2557 16.9214 18.2172 16.9027 18.1788C16.9027 18.1403 16.8841 18.1018 16.8655 18.0633C16.8468 18.0249 16.8282 17.9864 16.8096 17.9479C16.7909 17.9095 16.7536 17.8902 16.7163 17.8518L16.6791 17.8325C16.6418 17.8133 16.6231 17.7941 16.6045 17.7748C16.5858 17.6979 16.5486 17.6787 16.5113 17.6787ZM16.5486 16.8324C16.6231 16.8516 16.6977 16.8709 16.7722 16.8901C16.9214 16.3323 16.94 15.6015 16.8282 14.7937C16.1571 15.0052 15.4114 15.1591 14.6285 15.2553C14.1438 15.9092 13.6406 16.4862 13.1372 16.9863C13.771 17.5056 14.3862 17.8518 14.9268 17.9864C14.9454 17.8902 14.9641 17.7941 15.0014 17.6979C15.0759 17.5248 15.1691 17.3709 15.2996 17.2363C15.4301 17.1017 15.5792 17.0055 15.747 16.9286C15.9148 16.8516 16.1012 16.8132 16.2876 16.8132C16.3995 16.8132 16.474 16.8132 16.5486 16.8324ZM14.9454 5.00393C14.9641 5.1001 14.9827 5.19626 15.02 5.29242C15.0945 5.46552 15.1877 5.63862 15.3182 5.77326C15.4487 5.90789 15.5979 6.00406 15.7843 6.08099C15.952 6.15793 16.1385 6.19639 16.3249 6.19639C16.3994 6.19639 16.474 6.1964 16.5486 6.17717C16.6231 6.15793 16.6977 6.1387 16.7722 6.11947C16.9214 6.67724 16.94 7.40809 16.8282 8.21589C16.1571 8.00433 15.4114 7.85045 14.6285 7.75428C14.1438 7.10035 13.6406 6.52336 13.1372 6.0233C13.771 5.48476 14.3862 5.13857 14.9454 5.00393ZM8.23461 8.19667C8.9057 7.9851 9.65133 7.83123 10.4343 7.73506C10.9189 7.08113 11.4222 6.50414 11.9255 6.00407C11.851 5.94637 11.7764 5.86943 11.6832 5.81173C10.6021 5.00393 9.59543 4.69619 8.94299 5.08085C8.29055 5.46552 8.0482 6.52337 8.17869 7.88893C8.19733 8.00433 8.21597 8.1005 8.23461 8.19667ZM12.5407 6.5426C12.2052 6.86957 11.8696 7.23499 11.5527 7.63889C11.8883 7.61965 12.2052 7.60044 12.5407 7.60044C12.8763 7.60044 13.2118 7.61965 13.5287 7.63889C13.1932 7.23499 12.8763 6.86957 12.5407 6.5426ZM8.79383 10.4662C8.94296 10.1585 9.09208 9.86995 9.25986 9.56222C9.42763 9.25449 9.59539 8.966 9.78181 8.6775C9.27849 8.77367 8.8125 8.88905 8.36512 9.02369C8.47696 9.48529 8.62606 9.96612 8.79383 10.4662ZM11.9255 16.9863C11.4222 16.4862 10.9189 15.9092 10.4343 15.2553C9.65133 15.1591 8.9057 14.986 8.23461 14.7937C8.21597 14.8898 8.21594 15.0053 8.1973 15.1014C8.06681 16.467 8.29051 17.5248 8.96159 17.9095C9.61403 18.2942 10.6207 17.9864 11.7018 17.1786C11.7578 17.1209 11.851 17.044 11.9255 16.9863ZM9.78181 14.3128C9.59539 14.0243 9.42763 13.7359 9.25986 13.4281C9.09208 13.1204 8.92431 12.8319 8.79383 12.5242C8.62606 13.0242 8.47692 13.5051 8.38372 13.9667C8.81247 14.1013 9.29714 14.2167 9.78181 14.3128ZM15.281 8.6775C15.4674 8.966 15.6352 9.2545 15.8029 9.54299C15.9707 9.85073 16.1385 10.1392 16.269 10.447C16.4367 9.9469 16.5859 9.46606 16.6791 9.00447C16.2503 8.88907 15.7843 8.77367 15.281 8.6775ZM16.735 11.5048C17.0519 12.2549 17.2756 13.005 17.4434 13.6974C17.5366 13.6589 17.6298 13.6205 17.723 13.582C18.9533 13.0242 19.6989 12.2741 19.6989 11.5048C19.6989 10.7162 18.9346 9.98537 17.723 9.4276C17.6298 9.38913 17.5366 9.35067 17.4434 9.3122C17.2756 10.0046 17.0519 10.7355 16.735 11.5048ZM16.6791 13.9667C16.5672 13.5051 16.4367 13.0242 16.269 12.5242C16.1198 12.8319 15.9707 13.1204 15.8029 13.4281C15.6352 13.7359 15.4674 14.0243 15.281 14.3128C15.7843 14.2167 16.2503 14.1013 16.6791 13.9667ZM15.8588 11.4855C15.6351 11.9856 15.3928 12.5049 15.0945 13.0242C14.8149 13.5435 14.498 14.0244 14.1811 14.4667C13.6406 14.5244 13.0813 14.5437 12.5221 14.5437C11.9442 14.5437 11.385 14.5052 10.863 14.4667C10.5461 14.0244 10.2478 13.5435 9.94957 13.0242C9.66995 12.5049 9.40897 12.0048 9.18527 11.4855C9.40897 10.9855 9.65131 10.4662 9.94957 9.94688C10.2292 9.42758 10.5461 8.94675 10.863 8.50438C11.4036 8.44668 11.9628 8.42746 12.5221 8.42746C13.0999 8.42746 13.6592 8.46591 14.1811 8.50438C14.498 8.94675 14.7963 9.42758 15.0945 9.94688C15.3928 10.4854 15.6351 10.9855 15.8588 11.4855ZM11.5341 15.3515C11.8696 15.7554 12.1865 16.1208 12.5221 16.4477C12.8576 16.1208 13.1931 15.7553 13.51 15.3707C13.1931 15.3899 12.8576 15.4092 12.5221 15.4092C12.1865 15.3899 11.8696 15.3707 11.5341 15.3515Z" fill="white"/>
</g>
<defs>
<linearGradient id="paint0_linear_1407_21747" x1="0" y1="0" x2="24" y2="24" gradientUnits="userSpaceOnUse">
<stop offset="0.0001" stop-color="#F66D25"/>
<stop offset="1" stop-color="#F1CE36"/>
</linearGradient>
<clipPath id="clip0_1407_21747">
<rect x="3.11133" y="0.929688" width="17.7778" height="17.7778" rx="5" fill="white"/>
</clipPath>
</defs>
</svg>
