<svg width="24" height="24" viewBox="0 0 24 24" fill="none" xmlns="http://www.w3.org/2000/svg">
<rect width="24" height="24" rx="5" fill="url(#paint0_linear_1407_21819)"/>
<path fill-rule="evenodd" clip-rule="evenodd" d="M10.2905 8.83816C9.09577 8.83816 7.9979 9.32252 7.20679 10.1136C6.41568 10.9047 5.93134 11.9865 5.93134 13.1973C5.93134 14.3921 6.41568 15.4899 7.20679 16.281C7.9979 17.0722 9.07962 17.5565 10.2905 17.5565C11.4852 17.5565 12.5831 17.0722 13.3742 16.281C14.1653 15.4899 14.6497 14.4082 14.6497 13.1973C14.6497 12.0026 14.1653 10.9047 13.3742 10.1136C12.567 9.32252 11.4852 8.83816 10.2905 8.83816ZM8.90203 8.41839V6.52942C8.90203 6.36797 9.03119 6.22266 9.20879 6.22266H18.0724C18.2339 6.22266 18.3792 6.35182 18.3792 6.52942V8.98346V11.4375V13.8916V16.3456C18.3792 16.5071 18.25 16.6524 18.0724 16.6524H13.8424L13.794 16.7008C12.8899 17.6049 11.6628 18.1539 10.2905 18.1539C8.91817 18.1539 7.67501 17.6049 6.78703 16.7008C5.88291 15.7967 5.33398 14.5697 5.33398 13.1973C5.33398 11.825 5.88291 10.5818 6.78703 9.69385C7.36825 9.09648 8.09478 8.66057 8.90203 8.41839ZM14.3429 16.0389C14.7304 15.4899 15.0049 14.8764 15.1502 14.1983H17.7657V16.0389H14.3429ZM15.2309 13.5848H17.7657V11.7443H15.0372C15.1825 12.1963 15.247 12.6807 15.247 13.1812C15.247 13.3265 15.2309 13.4557 15.2309 13.5848ZM14.795 11.1308C14.5528 10.5818 14.1976 10.0975 13.7778 9.6777C13.6325 9.5324 13.4872 9.40324 13.3419 9.29022H17.7495V11.1308H14.795ZM12.3571 8.67672H17.7495V6.83618H9.49941V8.28923C9.75773 8.25694 10.016 8.22466 10.2744 8.22466C11.0332 8.22466 11.7274 8.3861 12.3571 8.67672Z" fill="white"/>
<path fill-rule="evenodd" clip-rule="evenodd" d="M8.97171 14.0388L9.75914 12.7917C9.78561 12.7463 9.83192 12.7268 9.88486 12.7268H11.023L11.473 12.0188L11.0164 11.733C10.9502 11.6941 10.9304 11.6031 10.9701 11.5382C10.9899 11.5122 11.0098 11.4927 11.0362 11.4862L12.6839 10.6808C12.7567 10.6483 12.8427 10.6743 12.8758 10.7458C12.889 10.7653 12.889 10.7847 12.889 10.8107V12.5969C12.889 12.6748 12.8228 12.7398 12.7434 12.7398C12.717 12.7398 12.6839 12.7333 12.664 12.7138L12.2008 12.467L11.5391 13.5127C11.5127 13.5582 11.4597 13.5841 11.4068 13.5776H10.2753L9.69958 14.487C9.6665 14.5389 9.6268 14.5779 9.58048 14.6104C9.53416 14.6428 9.48122 14.6623 9.42167 14.6753C9.36212 14.6883 9.30256 14.6883 9.24963 14.6753C9.19669 14.6623 9.14375 14.6428 9.09082 14.6039C8.99818 14.5389 8.93862 14.448 8.91877 14.3441C8.89892 14.2466 8.91216 14.1362 8.97171 14.0388ZM12.7368 14.9806H8.59454V10.9211C8.59454 10.8432 8.52837 10.7782 8.44896 10.7782C8.36956 10.7782 8.30339 10.8432 8.30339 10.9211V14.9806H7.70124C7.62184 14.9806 7.55566 15.0455 7.55566 15.1235C7.55566 15.2014 7.62184 15.2664 7.70124 15.2664H8.30339V15.8574C8.30339 15.9354 8.36956 16.0003 8.44896 16.0003C8.52837 16.0003 8.59454 15.9354 8.59454 15.8574V15.2664H12.7368C12.8162 15.2664 12.8824 15.2014 12.8824 15.1235C12.8824 15.0391 12.8162 14.9806 12.7368 14.9806ZM9.96427 13.0061L9.21654 14.1882C9.19669 14.2207 9.19007 14.2596 9.19669 14.2921C9.2033 14.3246 9.22316 14.3571 9.25624 14.383C9.27609 14.396 9.28933 14.4025 9.30918 14.409C9.32903 14.4155 9.34888 14.4155 9.36873 14.409C9.38858 14.4025 9.40844 14.396 9.42167 14.3895C9.4349 14.3765 9.44814 14.3636 9.46137 14.3506L10.0768 13.3763C10.1032 13.3373 10.1495 13.3113 10.1959 13.3113H11.3406L12.0354 12.2202C12.0751 12.1552 12.1545 12.1357 12.2273 12.1747L12.6045 12.376V11.051L11.3803 11.6551L11.7443 11.8824C11.8104 11.9214 11.8303 12.0123 11.7906 12.0773L11.2281 12.9671C11.2017 13.0061 11.1553 13.0321 11.109 13.0321L9.96427 13.0061Z" fill="white"/>
<defs>
<linearGradient id="paint0_linear_1407_21819" x1="0" y1="0" x2="24" y2="24" gradientUnits="userSpaceOnUse">
<stop stop-color="#FE6B6E"/>
<stop offset="1" stop-color="#4F99FB"/>
</linearGradient>
</defs>
</svg>
