<svg width="24" height="24" viewBox="0 0 24 24" fill="none" xmlns="http://www.w3.org/2000/svg">
<path d="M0 5.45455C0 2.44208 2.44208 0 5.45455 0H18.5455C21.5579 0 24 2.44208 24 5.45455V18.5455C24 21.5579 21.5579 24 18.5455 24H5.45455C2.44208 24 0 21.5579 0 18.5455V5.45455Z" fill="url(#paint0_linear_1407_21765)"/>
<path fill-rule="evenodd" clip-rule="evenodd" d="M12.5941 4.63528C12.4452 4.46782 12.1661 4.44922 11.9986 4.61669L4.64885 11.4827C4.55581 11.5571 4.5 11.6688 4.5 11.799V12.6921C4.5 12.9154 4.68606 13.1015 4.90934 13.1015H6.06298V19.0743H4.92795C4.70467 19.0743 4.5186 19.2604 4.5186 19.4837C4.5186 19.707 4.70467 19.8931 4.92795 19.8931H6.49095H18.1762H19.7391C19.9624 19.8931 20.1485 19.707 20.1485 19.4837C20.1485 19.2604 19.9624 19.0743 19.7391 19.0743H18.5855V13.1387H19.7391C19.9624 13.1387 20.1485 12.9526 20.1485 12.7294V11.8362C20.1485 11.7246 20.1113 11.6129 20.0183 11.5385L12.5941 4.63528ZM19.3298 12.0037L12.2963 5.4912L5.33731 11.9851V12.2828H6.49095C6.71424 12.2828 6.90031 12.4688 6.90031 12.6921V19.0743H17.7482V12.6921C17.7482 12.4688 17.9343 12.2828 18.1576 12.2828H19.3112V12.0037H19.3298Z" fill="white"/>
<path d="M11.9615 17.2506C11.6452 17.2506 11.3475 17.139 11.1056 16.9157C10.3427 16.2087 9.87753 15.2597 9.65425 13.9944C9.61703 13.827 9.65425 13.6967 9.72868 13.5851C9.84032 13.4362 10.0264 13.4176 10.2125 13.399C11.2545 13.3246 12.3151 13.1757 13.3943 12.9152C13.8594 12.8036 14.3432 12.6547 14.7898 12.5059C15.3294 12.3384 15.869 12.1523 16.4458 12.0407L16.7435 11.9849L16.6133 12.264L16.4644 12.2081L16.5947 12.264C16.0923 13.3618 15.6271 14.2177 15.1061 14.9248C14.1944 16.19 13.2454 16.9529 12.2592 17.1948C12.1848 17.232 12.0732 17.2506 11.9615 17.2506Z" fill="white"/>
<path d="M9.07708 13.1385C8.68633 13.1385 8.40722 13.0454 8.27697 12.8222C8.12812 12.5989 8.14672 12.2826 8.33279 11.8546C8.59329 11.2778 8.98404 10.794 9.52364 10.4219C9.54225 10.4033 9.56085 10.4033 9.57946 10.3846C9.6911 10.2916 9.87718 10.1614 10.0819 10.273C10.2679 10.366 10.2307 10.5707 10.2307 10.6824C10.2307 10.7196 10.2307 10.7568 10.2307 10.7754V10.8126C10.2865 11.5569 10.3238 12.2454 11.0122 12.7291L11.3657 12.971L10.9378 13.0082C10.7517 13.0268 10.5656 13.0455 10.3796 13.0641C9.97021 13.1013 9.59807 13.1385 9.20733 13.1571C9.1329 13.1385 9.09568 13.1385 9.07708 13.1385Z" fill="white"/>
<defs>
<linearGradient id="paint0_linear_1407_21765" x1="-7.63636" y1="-7.63636" x2="16.3636" y2="16.3636" gradientUnits="userSpaceOnUse">
<stop stop-color="#BD49C8"/>
<stop offset="1" stop-color="#9A1DAB"/>
</linearGradient>
</defs>
</svg>
