<svg width="24" height="24" viewBox="0 0 24 24" fill="none" xmlns="http://www.w3.org/2000/svg">
<rect width="24" height="24" rx="5" fill="url(#paint0_linear_1407_21754)"/>
<g clip-path="url(#clip0_1407_21754)">
<path fill-rule="evenodd" clip-rule="evenodd" d="M13.9837 12.164C13.8273 12.164 13.6932 12.0326 13.6932 11.8792C13.6932 11.7259 13.8273 11.5945 13.9837 11.5945H15.3694C15.5258 11.5945 15.6599 11.7259 15.6599 11.8792C15.6599 12.0326 15.5258 12.164 15.3694 12.164H13.9837ZM11.3353 12.164C11.1789 12.164 11.0448 12.0326 11.0448 11.8792C11.0448 11.7259 11.1789 11.5945 11.3353 11.5945H12.721C12.8774 11.5945 13.0115 11.7259 13.0115 11.8792C13.0115 12.0326 12.8774 12.164 12.721 12.164H11.3353ZM11.3353 15.5041C11.1789 15.5041 11.0448 15.3727 11.0448 15.2194C11.0448 15.0661 11.1789 14.9347 11.3353 14.9347H12.721C12.8774 14.9347 13.0115 15.0661 13.0115 15.2194C13.0115 15.3727 12.8774 15.5041 12.721 15.5041H11.3353ZM8.68695 15.5041C8.5305 15.5041 8.39641 15.3727 8.39641 15.2194C8.39641 15.0661 8.5305 14.9347 8.68695 14.9347H10.0726C10.229 14.9347 10.3631 15.0661 10.3631 15.2194C10.3631 15.3727 10.229 15.5041 10.0726 15.5041H8.68695ZM13.9837 13.8395C13.8273 13.8395 13.6932 13.7081 13.6932 13.5548C13.6932 13.4015 13.8273 13.2701 13.9837 13.2701H15.3694C15.5258 13.2701 15.6599 13.4015 15.6599 13.5548C15.6599 13.7081 15.5258 13.8395 15.3694 13.8395H13.9837ZM11.3353 13.8395C11.1789 13.8395 11.0448 13.7081 11.0448 13.5548C11.0448 13.4015 11.1789 13.2701 11.3353 13.2701H12.721C12.8774 13.2701 13.0115 13.4015 13.0115 13.5548C13.0115 13.7081 12.8774 13.8395 12.721 13.8395H11.3353ZM8.68695 13.8395C8.5305 13.8395 8.39641 13.7081 8.39641 13.5548C8.39641 13.4015 8.5305 13.2701 8.68695 13.2701H10.0726C10.229 13.2701 10.3631 13.4015 10.3631 13.5548C10.3631 13.7081 10.229 13.8395 10.0726 13.8395H8.68695ZM7.70358 10.1599H16.3416V8.56096C16.3416 8.4624 16.2969 8.36383 16.2298 8.29812C16.1628 8.23241 16.0622 8.18861 15.9616 8.18861H15.347V8.97711C15.347 9.13043 15.2129 9.26185 15.0565 9.26185C14.9 9.26185 14.7659 9.13043 14.7659 8.97711V8.18861H9.26803V8.97711C9.26803 9.13043 9.13393 9.26185 8.97749 9.26185C8.82104 9.26185 8.68695 9.13043 8.68695 8.97711V8.18861H8.07234C7.97177 8.18861 7.8712 8.23241 7.80415 8.29812L7.79298 8.30908C7.72593 8.37478 7.69241 8.4624 7.69241 8.56096V10.1599H7.70358ZM16.3416 10.7293H7.70358V16.2708C7.70358 16.3693 7.74828 16.4679 7.81533 16.5336C7.88238 16.5993 7.98295 16.6431 8.08352 16.6431H15.9616C16.0622 16.6431 16.1628 16.5993 16.2298 16.5336C16.2969 16.4679 16.3416 16.3693 16.3416 16.2708V10.7293ZM14.7659 7.63009H9.26803V6.83064C9.26803 6.67732 9.13393 6.5459 8.97749 6.5459C8.82104 6.5459 8.68695 6.67732 8.68695 6.83064V7.63009H8.07234C7.80415 7.63009 7.56949 7.7396 7.40187 7.90387L7.37952 7.92578C7.2119 8.09005 7.11133 8.32002 7.11133 8.57191V10.4556V16.2817C7.11133 16.5445 7.22307 16.7745 7.39069 16.9388C7.55831 17.1031 7.80415 17.2126 8.06117 17.2126H15.9393C16.1963 17.2126 16.4421 17.1031 16.6097 16.9388C16.7774 16.7745 16.8891 16.5336 16.8891 16.2817V10.4556V8.57191C16.8891 8.30907 16.7774 8.0791 16.6097 7.91482C16.4421 7.75055 16.1963 7.64104 15.9393 7.64104H15.3247V6.84159C15.3247 6.68827 15.1906 6.55685 15.0341 6.55685C14.8777 6.55685 14.7436 6.68827 14.7436 6.84159V7.63009H14.7659Z" fill="white"/>
</g>
<defs>
<linearGradient id="paint0_linear_1407_21754" x1="0" y1="0" x2="24" y2="24" gradientUnits="userSpaceOnUse">
<stop offset="0.0001" stop-color="#CDA6FF"/>
<stop offset="1" stop-color="#6621F8"/>
</linearGradient>
<clipPath id="clip0_1407_21754">
<rect x="4.88867" y="2.70703" width="14.2222" height="14.2222" rx="5" fill="white"/>
</clipPath>
</defs>
</svg>
