<svg width="24" height="24" viewBox="0 0 24 24" fill="none" xmlns="http://www.w3.org/2000/svg">
<rect width="24" height="24" rx="5" fill="url(#paint0_linear_1407_21726)"/>
<g clip-path="url(#clip0_1407_21726)">
<path fill-rule="evenodd" clip-rule="evenodd" d="M15.8264 14.6517L15.1255 13.4274C15.0086 13.233 15.0865 12.9804 15.2812 12.8638L16.1964 12.3391C16.3327 12.2613 16.508 12.2613 16.6443 12.3585C16.7806 12.4556 16.9363 12.5334 17.1116 12.5723C17.2673 12.6111 17.4426 12.65 17.6179 12.65C18.1047 12.65 18.5525 12.4556 18.864 12.1253C19.1756 11.8143 19.3898 11.3674 19.3898 10.8815C19.3898 10.3957 19.195 9.94866 18.864 9.63772C18.5525 9.32678 18.1047 9.11302 17.6179 9.11302C17.1311 9.11302 16.6832 9.30738 16.3716 9.61833C16.0601 9.92927 15.8654 10.3762 15.8654 10.8621V10.9398V11.0175C15.8849 11.1924 15.7875 11.3674 15.6123 11.4257L14.7555 11.9115C14.5608 12.0281 14.3076 11.9504 14.1908 11.756L11.971 7.92752H7.00569C6.98622 7.92752 6.98624 7.92754 6.96677 7.94697C6.96677 7.94697 6.94728 7.96639 6.94728 7.98582V8.62717C6.94728 8.64661 6.9473 8.64659 6.96677 8.66602C6.96677 8.66602 6.98622 8.68547 7.00569 8.68547H10.7832C10.9585 8.68547 11.0948 8.78263 11.1532 8.91867L12.2436 10.7843C12.3604 10.9787 12.2826 11.2313 12.0879 11.3479L9.61491 12.7666H13.2367C13.4704 12.7666 13.6651 12.961 13.6651 13.1942C13.6651 13.4274 13.4704 13.6217 13.2367 13.6217H3.53971C3.30605 13.6217 3.11133 13.4274 3.11133 13.1942C3.11133 12.961 3.30605 12.7666 3.53971 12.7666H7.94036L11.3089 10.8232L10.5496 9.50167H7.00569C6.77203 9.50167 6.53835 9.40455 6.38258 9.24908C6.2268 9.0936 6.1295 8.86038 6.1295 8.62717V7.98582C6.1295 7.75261 6.2268 7.51945 6.38258 7.36398C6.53835 7.20851 6.77203 7.11133 7.00569 7.11133H12.2047C12.341 7.11133 12.4968 7.18904 12.5747 7.32507L14.6971 10.9981L15.0086 10.8232C15.0281 10.1236 15.3007 9.48225 15.768 9.03527C16.2353 8.56886 16.8974 8.27738 17.5984 8.27738C18.3188 8.27738 18.9614 8.56886 19.4482 9.03527C19.9155 9.50169 20.2076 10.1625 20.2076 10.8815C20.2076 11.6006 19.9155 12.2419 19.4482 12.7277C18.9809 13.1941 18.3188 13.4857 17.5984 13.4857C17.3452 13.4857 17.0921 13.4468 16.8584 13.3691C16.7027 13.3302 16.5469 13.2525 16.3911 13.1747L16.0601 13.3691L16.8 14.6517H20.4607C20.6944 14.6517 20.8891 14.8461 20.8891 15.0793C20.8891 15.3125 20.6944 15.5068 20.4607 15.5068H10.7637C10.5301 15.5068 10.3354 15.3125 10.3354 15.0793C10.3354 14.8461 10.5301 14.6517 10.7637 14.6517H15.8264ZM15.807 16.4785C16.0407 16.4785 16.2353 16.6729 16.2353 16.9061C16.2353 17.1393 16.0407 17.3336 15.807 17.3336H6.11C5.87634 17.3336 5.68162 17.1393 5.68162 16.9061C5.68162 16.6729 5.87634 16.4785 6.11 16.4785H15.807Z" fill="white"/>
</g>
<defs>
<linearGradient id="paint0_linear_1407_21726" x1="0" y1="0" x2="24" y2="24" gradientUnits="userSpaceOnUse">
<stop offset="0.0001" stop-color="#289F94"/>
<stop offset="1" stop-color="#791FBC"/>
</linearGradient>
<clipPath id="clip0_1407_21726">
<rect x="3.11133" y="3.11133" width="17.7778" height="17.7778" rx="5" fill="white"/>
</clipPath>
</defs>
</svg>
