<svg width="24" height="24" viewBox="0 0 24 24" fill="none" xmlns="http://www.w3.org/2000/svg">
<rect width="24" height="24" rx="5" fill="url(#paint0_linear_1407_21774)"/>
<path fill-rule="evenodd" clip-rule="evenodd" d="M10.2905 8.83816C9.09577 8.83816 7.9979 9.32252 7.20679 10.1136C6.41568 10.9047 5.93134 11.9865 5.93134 13.1973C5.93134 14.3921 6.41568 15.4899 7.20679 16.281C7.9979 17.0722 9.07962 17.5565 10.2905 17.5565C11.4852 17.5565 12.5831 17.0722 13.3742 16.281C14.1653 15.4899 14.6497 14.4082 14.6497 13.1973C14.6497 12.0026 14.1653 10.9047 13.3742 10.1136C12.567 9.32252 11.4852 8.83816 10.2905 8.83816ZM8.90203 8.41839V6.52942C8.90203 6.36797 9.03119 6.22266 9.20879 6.22266H18.0724C18.2339 6.22266 18.3792 6.35182 18.3792 6.52942V8.98346V11.4375V13.8916V16.3456C18.3792 16.5071 18.25 16.6524 18.0724 16.6524H13.8424L13.794 16.7008C12.8899 17.6049 11.6628 18.1539 10.2905 18.1539C8.91817 18.1539 7.67501 17.6049 6.78703 16.7008C5.88291 15.7967 5.33398 14.5697 5.33398 13.1973C5.33398 11.825 5.88291 10.5818 6.78703 9.69385C7.36825 9.09648 8.09478 8.66057 8.90203 8.41839ZM14.3429 16.0389C14.7304 15.4899 15.0049 14.8764 15.1502 14.1983H17.7657V16.0389H14.3429ZM15.2309 13.5848H17.7657V11.7443H15.0372C15.1825 12.1963 15.247 12.6807 15.247 13.1812C15.247 13.3265 15.2309 13.4557 15.2309 13.5848ZM14.795 11.1308C14.5528 10.5818 14.1976 10.0975 13.7778 9.6777C13.6325 9.5324 13.4872 9.40324 13.3419 9.29022H17.7495V11.1308H14.795ZM12.3571 8.67672H17.7495V6.83618H9.49941V8.28923C9.75773 8.25694 10.016 8.22466 10.2744 8.22466C11.0332 8.22466 11.7274 8.3861 12.3571 8.67672Z" fill="white"/>
<path d="M8.57422 10.2593C8.37734 10.2593 8.28255 10.4746 8.25977 10.5823V15.2593H10.748C10.3379 14.6779 10.3789 14.5099 10.3242 14.1094C9.3125 14.1094 9.2168 13.1663 9.2168 13.1663C9.2168 13.1663 9.10742 12.081 10.4473 12.081C11.0762 11.9905 11.2949 11.4479 11.2949 11.2153C11.2949 10.5332 10.7298 10.2937 10.4473 10.2593H8.57422Z" fill="white"/>
<path d="M10.4473 12.2748C10.7316 12.2644 10.9486 12.1413 11.0215 12.081C11.7187 11.6417 11.5273 10.8794 11.3496 10.5048C12.0879 10.944 12.306 11.6417 12.2519 12.1714C12.1439 13.2309 11.4043 13.5926 11.0762 13.7606C9.83203 14.1869 9.55859 13.4376 9.51758 13.3342C9.32617 12.3652 10.2012 12.2877 10.4473 12.2748Z" fill="white"/>
<defs>
<linearGradient id="paint0_linear_1407_21774" x1="0" y1="0" x2="24" y2="24" gradientUnits="userSpaceOnUse">
<stop stop-color="#E6D295"/>
<stop offset="1" stop-color="#83BC97"/>
</linearGradient>
</defs>
</svg>
