<svg width="24" height="24" viewBox="0 0 24 24" fill="none" xmlns="http://www.w3.org/2000/svg">
<rect width="24" height="24" rx="5" fill="url(#paint0_linear_1407_21784)"/>
<g clip-path="url(#clip0_1407_21784)">
<path fill-rule="evenodd" clip-rule="evenodd" d="M10.2905 8.83816C9.09577 8.83816 7.9979 9.32252 7.20679 10.1136C6.41568 10.9047 5.93134 11.9865 5.93134 13.1973C5.93134 14.3921 6.41568 15.4899 7.20679 16.281C7.9979 17.0722 9.07962 17.5565 10.2905 17.5565C11.4852 17.5565 12.5831 17.0722 13.3742 16.281C14.1653 15.4899 14.6497 14.4082 14.6497 13.1973C14.6497 12.0026 14.1653 10.9047 13.3742 10.1136C12.567 9.32252 11.4852 8.83816 10.2905 8.83816ZM8.90203 8.41839V6.52942C8.90203 6.36797 9.03119 6.22266 9.20879 6.22266H18.0724C18.2339 6.22266 18.3792 6.35182 18.3792 6.52942V8.98346V11.4375V13.8916V16.3456C18.3792 16.5071 18.25 16.6524 18.0724 16.6524H13.8424L13.794 16.7008C12.8899 17.6049 11.6628 18.1539 10.2905 18.1539C8.91817 18.1539 7.67501 17.6049 6.78703 16.7008C5.88291 15.7967 5.33398 14.5697 5.33398 13.1973C5.33398 11.825 5.88291 10.5818 6.78703 9.69385C7.36825 9.09648 8.09478 8.66057 8.90203 8.41839ZM14.3429 16.0389C14.7304 15.4899 15.0049 14.8764 15.1502 14.1983H17.7657V16.0389H14.3429ZM15.2309 13.5848H17.7657V11.7443H15.0372C15.1825 12.1963 15.247 12.6807 15.247 13.1812C15.247 13.3265 15.2309 13.4557 15.2309 13.5848ZM14.795 11.1308C14.5528 10.5818 14.1976 10.0975 13.7778 9.6777C13.6325 9.5324 13.4872 9.40324 13.3419 9.29022H17.7495V11.1308H14.795ZM12.3571 8.67672H17.7495V6.83618H9.49941V8.28923C9.75773 8.25694 10.016 8.22466 10.2744 8.22466C11.0332 8.22466 11.7274 8.3861 12.3571 8.67672Z" fill="white"/>
<path d="M9.16357 11.1177C9.43994 11.1177 9.6416 11.1743 9.76855 11.2876C9.89551 11.4009 9.95898 11.5596 9.95898 11.7637C9.95898 11.8564 9.94434 11.9448 9.91504 12.0288C9.88672 12.1118 9.83984 12.1855 9.77441 12.25C9.70898 12.3135 9.62256 12.3638 9.51514 12.4009C9.40869 12.438 9.27734 12.4565 9.12109 12.4565H8.89258V13.2593H8.54102V11.1177H9.16357ZM9.14014 11.4092H8.89258V12.1636H9.08447C9.19482 12.1636 9.28857 12.1509 9.36572 12.1255C9.44287 12.0991 9.50146 12.0576 9.5415 12.001C9.58154 11.9443 9.60156 11.8696 9.60156 11.7769C9.60156 11.6528 9.56396 11.5605 9.48877 11.5C9.41455 11.4395 9.29834 11.4092 9.14014 11.4092ZM11.1294 13.2593H10.7764V11.4165H10.1494V11.1177H11.7549V11.4165H11.1294V13.2593Z" fill="white"/>
</g>
<defs>
<linearGradient id="paint0_linear_1407_21784" x1="0" y1="0" x2="24" y2="24" gradientUnits="userSpaceOnUse">
<stop stop-color="#6FCA7C"/>
<stop offset="1" stop-color="#4F99FB"/>
</linearGradient>
<clipPath id="clip0_1407_21784">
<rect x="3.11133" y="3.11133" width="17.7778" height="17.7778" rx="5" fill="white"/>
</clipPath>
</defs>
</svg>
