<svg width="28" height="28" viewBox="0 0 28 28" fill="none" xmlns="http://www.w3.org/2000/svg">
<path fill-rule="evenodd" clip-rule="evenodd" d="M24.8711 20.0853C24.0019 20.6627 23.2777 21.0577 22.4376 21.1185C21.6264 21.1793 20.7863 20.8754 19.8013 20.0853C19.0481 20.2676 18.4107 20.5411 17.9472 20.9058C17.5416 21.2096 17.3099 21.6047 17.3099 22.0302V23.9447C17.3099 24.0358 17.3388 24.127 17.3968 24.1878C17.4547 24.2485 17.5416 24.2789 17.6285 24.2789H26.9569C27.0438 24.2789 27.1307 24.2485 27.1887 24.1878C27.2466 24.127 27.2756 24.0358 27.2756 23.9447V22.0302C27.2756 21.5743 27.0438 21.2097 26.6382 20.8754C26.2326 20.5411 25.5953 20.2676 24.8711 20.0853ZM19.9461 15.1926C19.9751 15.2534 19.9172 15.1623 19.9461 15.1926C19.9461 15.5573 19.9461 15.8004 20.062 16.1651C20.2069 16.5601 20.4096 16.9552 20.6414 17.2895C20.6993 17.3807 20.7863 17.4718 20.8442 17.563C20.8442 17.563 20.8442 17.563 20.8732 17.5934C21.076 17.8061 21.2788 17.9884 21.4816 18.11C21.5105 18.1404 21.5684 18.1707 21.5974 18.1707C21.8002 18.2619 21.9741 18.3227 22.1769 18.3531H22.2058C22.2348 18.3531 22.2637 18.3531 22.2927 18.3227C22.4086 18.2923 22.5245 18.2315 22.6403 18.1707C22.5245 18.2304 22.816 18.5658 22.816 18.3227L22.9337 18.1707C23.3972 18.1707 23.6523 17.8669 23.913 17.563C24.4635 16.9214 24.3496 16.5601 24.4655 16.1651C24.6103 15.8004 24.7552 15.375 24.7552 14.9799L24.4655 15.0103C24.3496 15.1623 23.973 15.375 23.8281 15.2534C23.7992 15.223 23.7702 15.223 23.7412 15.1926C23.7122 15.1623 23.7122 15.1622 23.6833 15.1319C23.3356 14.828 22.6403 14.6456 21.9161 14.6456C21.1918 14.6456 20.4966 14.7976 20.12 15.1622C20.091 15.1926 20.062 15.223 20.0331 15.2534C19.9172 15.4054 20.0201 15.4768 19.8753 15.3249C20.3098 15.2945 19.9461 15.223 19.9461 15.1926ZM19.8302 13.0958C20.4966 12.7311 21.4236 12.5792 22.3507 12.5792C23.2487 12.5792 24.1468 12.7615 24.7841 13.0654C24.6972 12.0018 24.2337 11.2725 22.2927 11.2725C20.3807 11.2725 19.9172 12.0018 19.8302 13.0958ZM20.1489 14.2202L20.2938 14.4633C20.8152 14.0986 21.5974 13.9163 22.3796 13.9163C23.1328 13.9163 23.7714 14.3418 24.2639 14.6456L24.7552 13.8251C24.2627 13.4605 23.3646 13.2781 22.4086 13.2781C21.4526 13.2781 20.4676 13.4605 19.9751 13.8859L20.1489 14.2202ZM21.974 10.5431C22.003 10.3608 22.1479 10.2393 22.3217 10.2393C22.4955 10.2393 22.6404 10.3608 22.6693 10.5431C25.5663 10.6647 25.5374 12.1841 25.5084 14.1898C25.5084 14.3417 25.5084 14.5241 25.5084 14.7976V14.9495V14.9799V15.0103C25.5084 15.4965 25.4215 15.9827 25.2477 16.4386C25.0739 16.9248 24.8421 17.3806 24.5524 17.7453C24.4944 17.8061 24.4365 17.8972 24.3786 17.958C24.3786 18.0188 24.3786 18.0796 24.3786 18.1707C24.4075 18.505 24.4365 18.9001 24.4655 19.1128L24.8131 19.3559C25.7112 19.5687 26.5224 19.9029 27.1018 20.3284C27.6812 20.7842 27.9998 21.3616 27.9998 22.0302V23.9447C27.9998 24.2485 27.8839 24.522 27.7101 24.7044L27.6812 24.7348C27.5073 24.9171 27.2466 25.0387 26.9859 25.0387H17.6575C17.3678 25.0387 17.1071 24.9171 16.9332 24.7348C16.7594 24.5524 16.6436 24.2789 16.6436 23.9751V22.0606C16.6436 21.3616 16.9912 20.7842 17.5416 20.3588C18.121 19.9029 18.9032 19.599 19.8302 19.3863L20.1779 19.1432C20.2069 18.9305 20.2358 18.505 20.2358 18.1707V17.958C20.1779 17.8972 20.1199 17.8365 20.062 17.7453C19.7723 17.3502 19.5406 16.8944 19.3668 16.4386C19.1929 15.9827 19.106 15.4965 19.106 15.0103V14.9799V14.9495C19.106 14.8887 19.106 14.828 19.106 14.7976C19.106 14.5241 19.106 14.3417 19.106 14.1898C19.106 12.1841 19.077 10.6647 21.974 10.5431ZM20.5255 19.7206L20.6704 19.599C20.7283 19.5383 20.7863 19.4775 20.8153 19.4167C20.8732 19.2648 20.9021 18.9001 20.9311 18.5354C20.9891 18.5962 21.076 18.6266 21.1629 18.6874C21.2208 18.7178 21.2788 18.7482 21.3367 18.7785C21.5685 18.9001 21.8002 18.9913 22.032 19.0217H22.061C22.0899 19.0217 22.0899 19.0217 22.1189 19.0217H22.1479H22.1769H22.2058H22.2348H22.2638H22.2927H22.3217H22.3507H22.3796H22.4086H22.4376H22.4665H22.4955H22.5245C22.7273 18.9913 22.93 18.9001 23.1328 18.8089H23.1618H23.1908L23.2198 18.7785L23.7412 18.5354C23.7702 18.9001 24.0998 19.4705 23.913 19.599C24.0998 19.5009 24.0149 19.4471 24.0149 19.7206L23.6254 19.9637C23.017 20.3588 22.4665 20.6019 21.9161 20.6323C21.8292 20.4499 21.2498 20.2372 20.5255 19.7206Z" fill="#BE1128"/>
<path fill-rule="evenodd" clip-rule="evenodd" d="M16.7307 7.923H6.01182C5.69314 7.923 5.43242 8.19651 5.43242 8.53079C5.43242 8.86507 5.69314 9.13856 6.01182 9.13856H16.7307C17.0494 9.13856 17.3102 8.86507 17.3102 8.53079C17.2812 8.19651 17.0204 7.923 16.7307 7.923ZM6.01182 14.9733C5.69314 14.9733 5.43242 15.2468 5.43242 15.581C5.43242 15.9153 5.69314 16.1888 6.01182 16.1888H14.4421V14.9733H6.01182ZM11.3713 11.4481H6.01182C5.69314 11.4481 5.43242 11.7216 5.43242 12.0559C5.43242 12.3902 5.69314 12.6637 6.01182 12.6637H11.3713C11.69 12.6637 11.9507 12.3902 11.9507 12.0559C11.9507 11.7216 11.69 11.4481 11.3713 11.4481ZM11.3713 18.468H6.01182C5.69314 18.468 5.43242 18.7415 5.43242 19.0758C5.43242 19.41 5.69314 19.6835 6.01182 19.6835H11.3713C11.69 19.6835 11.9507 19.41 11.9507 19.0758C11.9507 18.7415 11.69 18.468 11.3713 18.468ZM16.7307 7.923H6.01182C5.69314 7.923 5.43242 8.19651 5.43242 8.53079C5.43242 8.86507 5.69314 9.13856 6.01182 9.13856H16.7307C17.0494 9.13856 17.3102 8.86507 17.3102 8.53079C17.2812 8.19651 17.0204 7.923 16.7307 7.923ZM11.3713 11.4481H6.01182C5.69314 11.4481 5.43242 11.7216 5.43242 12.0559C5.43242 12.3902 5.69314 12.6637 6.01182 12.6637H11.3713C11.69 12.6637 11.9507 12.3902 11.9507 12.0559C11.9507 11.7216 11.69 11.4481 11.3713 11.4481ZM6.01182 14.9733C5.69314 14.9733 5.43242 15.2468 5.43242 15.581C5.43242 15.9153 5.69314 16.1888 6.01182 16.1888H14.4421V14.9733H6.01182ZM11.3713 18.468H6.01182C5.69314 18.468 5.43242 18.7415 5.43242 19.0758C5.43242 19.41 5.69314 19.6835 6.01182 19.6835H11.3713C11.69 19.6835 11.9507 19.41 11.9507 19.0758C11.9507 18.7415 11.69 18.468 11.3713 18.468ZM11.3713 18.468H6.01182C5.69314 18.468 5.43242 18.7415 5.43242 19.0758C5.43242 19.41 5.69314 19.6835 6.01182 19.6835H11.3713C11.69 19.6835 11.9507 19.41 11.9507 19.0758C11.9507 18.7415 11.69 18.468 11.3713 18.468ZM11.3713 11.4481H6.01182C5.69314 11.4481 5.43242 11.7216 5.43242 12.0559C5.43242 12.3902 5.69314 12.6637 6.01182 12.6637H11.3713C11.69 12.6637 11.9507 12.3902 11.9507 12.0559C11.9507 11.7216 11.69 11.4481 11.3713 11.4481ZM6.01182 14.9733C5.69314 14.9733 5.43242 15.2468 5.43242 15.581C5.43242 15.9153 5.69314 16.1888 6.01182 16.1888H14.4421V14.9733H6.01182ZM16.7307 7.923H6.01182C5.69314 7.923 5.43242 8.19651 5.43242 8.53079C5.43242 8.86507 5.69314 9.13856 6.01182 9.13856H16.7307C17.0494 9.13856 17.3102 8.86507 17.3102 8.53079C17.2812 8.19651 17.0204 7.923 16.7307 7.923ZM21.0763 3.63817C20.6996 3.24311 20.2072 3 19.6278 3H3.05685C2.50642 3 1.98496 3.24311 1.60835 3.63817C1.23174 4.03322 1 4.54983 1 5.15761V22.4489C1 23.0263 1.23174 23.5733 1.60835 23.9684C1.98496 24.3635 2.47745 24.6066 3.05685 24.6066H14.4132V23.391H3.05685C2.82509 23.391 2.59336 23.2998 2.44851 23.1175C2.27468 22.9352 2.18778 22.7224 2.18778 22.4489V5.15761C2.18778 4.9145 2.27468 4.67139 2.44851 4.51945C2.62233 4.3675 2.82509 4.24594 3.05685 4.24594H19.6278C19.8595 4.24594 20.0913 4.33711 20.2361 4.51945C20.41 4.70178 20.4969 4.9145 20.4969 5.15761V10.1414H21.6557V5.15761C21.6847 4.58022 21.4529 4.03322 21.0763 3.63817ZM11.3713 18.468H6.01182C5.69314 18.468 5.43242 18.7415 5.43242 19.0758C5.43242 19.41 5.69314 19.6835 6.01182 19.6835H11.3713C11.69 19.6835 11.9507 19.41 11.9507 19.0758C11.9507 18.7415 11.69 18.468 11.3713 18.468ZM11.3713 11.4481H6.01182C5.69314 11.4481 5.43242 11.7216 5.43242 12.0559C5.43242 12.3902 5.69314 12.6637 6.01182 12.6637H11.3713C11.69 12.6637 11.9507 12.3902 11.9507 12.0559C11.9507 11.7216 11.69 11.4481 11.3713 11.4481ZM6.01182 14.9733C5.69314 14.9733 5.43242 15.2468 5.43242 15.581C5.43242 15.9153 5.69314 16.1888 6.01182 16.1888H14.4421V14.9733H6.01182ZM16.7307 7.923H6.01182C5.69314 7.923 5.43242 8.19651 5.43242 8.53079C5.43242 8.86507 5.69314 9.13856 6.01182 9.13856H16.7307C17.0494 9.13856 17.3102 8.86507 17.3102 8.53079C17.2812 8.19651 17.0204 7.923 16.7307 7.923ZM16.7307 7.923H6.01182C5.69314 7.923 5.43242 8.19651 5.43242 8.53079C5.43242 8.86507 5.69314 9.13856 6.01182 9.13856H16.7307C17.0494 9.13856 17.3102 8.86507 17.3102 8.53079C17.2812 8.19651 17.0204 7.923 16.7307 7.923ZM6.01182 14.9733C5.69314 14.9733 5.43242 15.2468 5.43242 15.581C5.43242 15.9153 5.69314 16.1888 6.01182 16.1888H14.4421V14.9733H6.01182ZM11.3713 11.4481H6.01182C5.69314 11.4481 5.43242 11.7216 5.43242 12.0559C5.43242 12.3902 5.69314 12.6637 6.01182 12.6637H11.3713C11.69 12.6637 11.9507 12.3902 11.9507 12.0559C11.9507 11.7216 11.69 11.4481 11.3713 11.4481ZM11.3713 18.468H6.01182C5.69314 18.468 5.43242 18.7415 5.43242 19.0758C5.43242 19.41 5.69314 19.6835 6.01182 19.6835H11.3713C11.69 19.6835 11.9507 19.41 11.9507 19.0758C11.9507 18.7415 11.69 18.468 11.3713 18.468Z" fill="#BE1128"/>
</svg>
