<svg width="28" height="28" viewBox="0 0 28 28" fill="none" xmlns="http://www.w3.org/2000/svg">
<path fill-rule="evenodd" clip-rule="evenodd" d="M5.77795 7.10046C5.90936 7.1657 6.04077 7.23087 6.13932 7.32874L6.17216 7.36139C6.27071 7.45926 6.3364 7.5898 6.36926 7.72029C6.43496 7.85078 6.43497 7.98125 6.43497 8.11174V10.2974C6.43497 10.4605 6.40213 10.591 6.33642 10.7215C6.27072 10.852 6.20499 10.9825 6.10644 11.0804C6.00788 11.1783 5.87648 11.276 5.74507 11.3087C5.61366 11.3739 5.44944 11.4065 5.31803 11.4065H3.11694C2.95268 11.4065 2.82131 11.3739 2.6899 11.3087C2.5585 11.2434 2.42709 11.1783 2.32854 11.0804C2.22998 10.9825 2.1314 10.852 2.09855 10.7215C2.03285 10.591 2 10.4279 2 10.2974V8.11174C2 7.98125 2.03287 7.85071 2.06572 7.75285L2.09855 7.68764C2.1314 7.58977 2.1971 7.45929 2.29565 7.39405L2.36137 7.32874C2.45992 7.23087 2.59133 7.13308 2.72274 7.10046C2.85414 7.03521 3.01842 7.0026 3.14982 7.0026H5.35087C5.48227 7.0026 5.64655 7.03521 5.77795 7.10046ZM17.933 14.4405V8.9273C17.933 8.56846 17.8016 8.27479 17.5716 8.04643C17.3417 7.81808 17.0131 7.68764 16.6846 7.68764C16.3233 7.68764 16.0276 7.81808 15.7976 8.04643C15.5677 8.27479 15.4363 8.60108 15.4363 8.9273V20.443C15.4363 20.8344 15.1078 21.1607 14.7136 21.1607C14.6479 21.1607 14.615 21.1607 14.5493 21.1607L10.0486 20.5408C9.95005 20.5408 9.85154 20.5408 9.78584 20.5734C9.68729 20.606 9.62156 20.6387 9.55586 20.7039C9.49015 20.7692 9.42444 20.8344 9.39159 20.8996C9.35874 20.9649 9.32587 21.0628 9.32587 21.1607V21.6826C9.32587 21.7805 9.35874 21.8784 9.39159 21.9762C9.45729 22.0741 9.55587 22.172 9.72012 22.2698L14.9107 25.5973H25.6202V20.0841C25.6202 18.7466 25.0618 17.5069 24.1748 16.6261C23.2878 15.7453 22.0394 15.1907 20.6925 15.1907H18.6557C18.2287 15.1255 17.933 14.832 17.933 14.4405ZM19.3456 8.9273V13.7553H20.6597C22.4008 13.7553 23.9777 14.4731 25.1275 15.6148C26.2773 16.7566 27 18.3225 27 20.0515V26.2823C27 26.6738 26.6715 27 26.2773 27H14.6807C14.5493 27 14.4179 26.9674 14.2865 26.9021L8.93167 23.4768C8.63601 23.2811 8.37321 23.0201 8.1761 22.7265C7.97899 22.4329 7.88045 22.074 7.88045 21.7152V21.1932C7.88045 20.8996 7.94611 20.6061 8.04467 20.3451C8.17607 20.0841 8.34034 19.8557 8.5703 19.66C8.80026 19.4642 9.06306 19.3338 9.32587 19.236C9.58868 19.1707 9.88438 19.138 10.18 19.1707L13.9251 19.6926V8.99251C13.9251 8.2422 14.2208 7.58979 14.7136 7.10046C15.2063 6.61112 15.8633 6.31746 16.6189 6.31746C17.3745 6.31746 18.0315 6.61112 18.5243 7.10046C19.0499 7.52455 19.3456 8.17699 19.3456 8.9273ZM11.0999 14.4078V16.0389H9.45731V14.4078H11.0999ZM9.19449 13.0051H11.3955C11.5269 13.0051 11.6583 13.0377 11.7569 13.0703L11.8226 13.103C11.954 13.1682 12.0854 13.2334 12.184 13.3312L12.2168 13.3639C12.3154 13.4618 12.3811 13.5923 12.4468 13.7228C12.5125 13.8533 12.5125 13.9838 12.5125 14.1142V16.2999C12.5125 16.4304 12.4796 16.5935 12.4139 16.724C12.3482 16.8545 12.2825 16.985 12.184 17.0829C12.0854 17.1807 11.954 17.2459 11.8226 17.3112C11.6912 17.3764 11.5598 17.409 11.3955 17.409H9.19449C9.06308 17.409 8.93167 17.3764 8.83312 17.3438L8.7674 17.3112C8.636 17.2459 8.50459 17.1807 8.40603 17.0829C8.30748 16.985 8.20895 16.8545 8.1761 16.724C8.1104 16.5935 8.07755 16.4304 8.07755 16.2999V14.1142C8.07755 13.9511 8.1104 13.8206 8.1761 13.6901C8.2418 13.5596 8.30748 13.4291 8.40603 13.3312L8.43892 13.2987C8.53747 13.2008 8.66888 13.1356 8.80029 13.103C8.89884 13.0377 9.03023 13.0051 9.19449 13.0051ZM11.0999 8.40533V10.0364H9.45731V8.40533H11.0999ZM9.19449 7.0026H11.3955C11.5598 7.0026 11.6912 7.03521 11.8226 7.10046C11.9212 7.13308 12.0197 7.19832 12.1183 7.29619C12.1511 7.32881 12.1511 7.32877 12.184 7.36139C12.2825 7.45926 12.3811 7.5898 12.4139 7.72029C12.4796 7.85078 12.5125 8.01381 12.5125 8.1443V10.33C12.5125 10.4931 12.4796 10.6237 12.4139 10.7541C12.3482 10.8846 12.2825 11.0151 12.184 11.1129C12.0854 11.2108 11.954 11.3087 11.8226 11.3413C11.6912 11.4066 11.5269 11.4392 11.3955 11.4392H9.19449C9.03023 11.4392 8.89881 11.4066 8.7674 11.3413C8.636 11.2761 8.50459 11.2108 8.40603 11.1129C8.30748 11.0151 8.20895 10.8846 8.1761 10.7541C8.1104 10.6237 8.07755 10.4605 8.07755 10.33V8.1443C8.07755 7.98119 8.1104 7.85078 8.1761 7.72029C8.2418 7.5898 8.30748 7.45926 8.40603 7.36139L8.43892 7.32874C8.53747 7.23087 8.66888 7.16564 8.80029 7.13301C8.89884 7.03515 9.03023 7.0026 9.19449 7.0026ZM3.41264 4.03395H5.05522V2.40284H3.41264V4.03395ZM5.35087 5.43669H3.14982C2.98557 5.43669 2.85414 5.40407 2.72274 5.33883C2.62418 5.3062 2.49279 5.24097 2.42709 5.1431L2.36137 5.11045C2.26281 5.01258 2.19714 4.91472 2.13143 4.81686L2.09855 4.75165C2.03285 4.62116 2 4.45803 2 4.32754V2.1418C2 1.97869 2.03285 1.84818 2.09855 1.7177C2.16425 1.58721 2.22998 1.45676 2.32854 1.3589C2.36139 1.32628 2.3614 1.32631 2.39425 1.29369C2.49281 1.19582 2.62416 1.13049 2.75557 1.09786C2.88698 1.03262 3.01842 1.03265 3.14982 1.03265H5.35087C5.51513 1.03265 5.64655 1.06527 5.77795 1.13052C5.90936 1.19576 6.04077 1.26103 6.13932 1.3589C6.23788 1.45676 6.3364 1.58721 6.36926 1.7177C6.43496 1.84818 6.46781 2.01131 6.46781 2.1418V4.32754C6.46781 4.49065 6.43496 4.62116 6.36926 4.75165C6.30355 4.88214 6.23788 5.01258 6.13932 5.11045C6.04077 5.20831 5.94217 5.27358 5.84362 5.33883L5.77795 5.37148C5.64655 5.4041 5.48227 5.43669 5.35087 5.43669ZM15.5349 4.03395H17.1774V2.40284H15.5349V4.03395ZM17.4402 5.43669H15.2392C15.1077 5.43669 14.9764 5.4041 14.845 5.37148C14.7135 5.30623 14.5821 5.24097 14.4836 5.1431L14.4507 5.11045C14.3522 5.01258 14.2536 4.88214 14.2208 4.75165C14.1551 4.62116 14.1222 4.45803 14.1222 4.32754V2.1418C14.1222 2.01131 14.1551 1.88084 14.1879 1.75035C14.2536 1.61986 14.3193 1.48942 14.385 1.39155L14.4507 1.32624C14.5493 1.22838 14.6807 1.16311 14.8121 1.09786C14.9435 1.03262 15.1077 1 15.2392 1H17.4402C17.5716 1 17.703 1.03269 17.8016 1.06531L17.8673 1.09786C17.9987 1.16311 18.1301 1.22838 18.2287 1.32624C18.3272 1.42411 18.4258 1.55465 18.4586 1.68514C18.5243 1.81563 18.5572 1.97876 18.5572 2.10925V4.29489C18.5572 4.42538 18.5243 4.5885 18.4586 4.71899C18.3929 4.84948 18.3272 4.97992 18.2287 5.07779C18.1301 5.17566 17.9987 5.27355 17.8673 5.30617C17.7359 5.40404 17.6045 5.43669 17.4402 5.43669ZM9.45731 4.03395H11.0999V2.40284H9.45731V4.03395ZM11.3955 5.43669H9.19449C9.06308 5.43669 8.93167 5.4041 8.83312 5.37148L8.7674 5.33883C8.636 5.27358 8.50459 5.20831 8.40603 5.11045C8.30748 5.01258 8.20895 4.88214 8.1761 4.75165C8.1104 4.62116 8.07755 4.45803 8.07755 4.32754V2.1418C8.07755 1.97869 8.1104 1.84818 8.1761 1.7177C8.2418 1.58721 8.30748 1.45676 8.40603 1.3589C8.50459 1.26103 8.636 1.16314 8.7674 1.13052C8.89881 1.06527 9.06308 1.03265 9.19449 1.03265H11.3955C11.5598 1.03265 11.6912 1.06527 11.8226 1.13052C11.954 1.19576 12.0854 1.26103 12.184 1.3589C12.2825 1.45676 12.3811 1.58721 12.4139 1.7177C12.4796 1.84818 12.5125 2.01131 12.5125 2.1418V4.32754C12.5125 4.45803 12.4796 4.62116 12.4139 4.75165C12.3811 4.84951 12.3154 4.97999 12.2497 5.04524C12.2169 5.07786 12.2168 5.07782 12.184 5.11045C12.0854 5.20831 11.9869 5.27358 11.8883 5.33883L11.8226 5.37148C11.6912 5.4041 11.5269 5.43669 11.3955 5.43669ZM5.77795 13.103C5.90936 13.1682 6.04077 13.2334 6.13932 13.3312C6.23788 13.4291 6.3364 13.5596 6.36926 13.6901C6.43496 13.8206 6.46781 13.9838 6.46781 14.1142V16.2999C6.46781 16.463 6.43496 16.5935 6.36926 16.724C6.30355 16.8545 6.23788 16.985 6.13932 17.0829C6.04077 17.1807 5.94217 17.2459 5.84362 17.3112L5.77795 17.3438C5.64655 17.4091 5.48227 17.4417 5.35087 17.4417H3.14982C3.01842 17.4417 2.91986 17.4091 2.78845 17.3765L2.72274 17.3438C2.62418 17.3112 2.49279 17.246 2.42709 17.1481L2.36137 17.0829C2.26281 16.985 2.16429 16.8545 2.13143 16.724C2.06573 16.5935 2.03288 16.4304 2.03288 16.2999V14.1142C2.03288 13.9838 2.0657 13.8532 2.09855 13.7553L2.13143 13.6901C2.16429 13.5923 2.22998 13.4618 2.32854 13.3965L2.39425 13.3312C2.49281 13.2334 2.62416 13.1356 2.75557 13.103C2.88698 13.0377 3.05125 13.0051 3.18266 13.0051H5.3837C5.51511 13.0051 5.64652 13.0377 5.74507 13.0703L5.77795 13.103ZM5.05522 14.4078H3.41264V16.0389H5.05522V14.4078ZM5.05522 8.40533H3.41264V10.0364H5.05522V8.40533Z" fill="#BB2126"/>
</svg>
