<svg width="26" height="25" viewBox="0 0 26 25" fill="none" xmlns="http://www.w3.org/2000/svg">
<path fill-rule="evenodd" clip-rule="evenodd" d="M9.75815 5.14928C7.40602 5.14928 5.24459 6.10285 3.68709 7.66035C2.1296 9.21785 1.17605 11.3475 1.17605 13.7314C1.17605 16.0835 2.1296 18.245 3.68709 19.8025C5.24459 21.36 7.37423 22.3135 9.75815 22.3135C12.1103 22.3135 14.2717 21.36 15.8292 19.8025C17.3867 18.245 18.3402 16.1153 18.3402 13.7314C18.3402 11.3793 17.3867 9.21785 15.8292 7.66035C14.2399 6.10285 12.1103 5.14928 9.75815 5.14928ZM7.02459 4.32285V0.603935C7.02459 0.286078 7.27888 0 7.62852 0H25.0788C25.3967 0 25.6828 0.254293 25.6828 0.603935V5.43534V10.2668V15.0982V19.9296C25.6828 20.2475 25.4285 20.5335 25.0788 20.5335H16.751L16.6556 20.6289C14.8756 22.4089 12.4599 23.4896 9.75815 23.4896C7.05638 23.4896 4.60889 22.4089 2.86068 20.6289C1.08069 18.8489 0 16.4332 0 13.7314C0 11.0296 1.08069 8.58213 2.86068 6.83392C4.00496 5.65785 5.43531 4.79963 7.02459 4.32285ZM17.7364 19.3257C18.4992 18.245 19.0396 17.0371 19.3256 15.7021H24.4749V19.3257H17.7364ZM19.4845 14.4943H24.4749V10.8707H19.1031C19.3892 11.7607 19.5163 12.7143 19.5163 13.6996C19.5163 13.9857 19.4845 14.24 19.4845 14.4943ZM18.6264 9.66284C18.1496 8.58212 17.4503 7.62855 16.6238 6.80212C16.3378 6.51605 16.0517 6.26177 15.7656 6.03928H24.4431V9.66284H18.6264ZM13.8267 4.83143H24.4431V1.20787H8.20069V4.06856C8.70926 4.00499 9.21781 3.94144 9.72638 3.94144C11.2203 3.94144 12.5871 4.25929 13.8267 4.83143Z" fill="#BE1128"/>
<path d="M4.7041 10.4258H6.57944C7.40587 10.4258 8.04157 10.5529 8.45478 10.7754C8.86799 11.0297 9.09053 11.4429 9.09053 12.0151C9.09053 12.2693 9.05872 12.4919 8.96336 12.6826C8.868 12.8733 8.74089 13.0322 8.55018 13.1911C8.39125 13.3183 8.16871 13.4136 7.91443 13.4454V13.4772C8.16871 13.509 8.423 13.6043 8.61372 13.7315C8.83622 13.8586 8.99517 14.0176 9.09053 14.2083C9.21767 14.4308 9.28124 14.6851 9.28124 15.0347C9.28124 15.4161 9.18589 15.7658 8.99518 16.0518C8.80446 16.3379 8.55018 16.5286 8.20054 16.6875C7.8509 16.8465 7.43767 16.91 6.99267 16.91H4.7041V10.4258ZM5.59409 13.1593H6.73838C7.24695 13.1593 7.62836 13.064 7.81908 12.9051C8.00979 12.7461 8.13695 12.4918 8.13695 12.1422C8.13695 11.7926 8.00981 11.5701 7.78731 11.4112C7.53302 11.2522 7.15159 11.1887 6.64303 11.1887H5.62586V13.1593H5.59409ZM5.59409 13.8904V16.1472H6.83373C7.37409 16.1472 7.75552 16.0518 7.97801 15.8293C8.20051 15.6068 8.29589 15.3208 8.29589 14.9711C8.29589 14.7486 8.23231 14.5579 8.13695 14.399C8.0416 14.2401 7.88264 14.1129 7.66014 14.0176C7.43764 13.9222 7.15157 13.8904 6.77015 13.8904H5.59409Z" fill="#BE1128"/>
<path d="M12.7775 11.0934C12.4278 11.0934 12.1418 11.157 11.8875 11.2841C11.6332 11.4113 11.4107 11.5702 11.22 11.7927C11.0293 12.0152 10.9022 12.2695 10.8068 12.5873C10.7114 12.9052 10.6479 13.2548 10.6479 13.6363C10.6479 14.1448 10.7115 14.6216 10.8704 15.0031C11.0293 15.3845 11.2518 15.6706 11.5697 15.8931C11.8875 16.1156 12.2689 16.2109 12.7457 16.2109C13.0318 16.2109 13.286 16.1791 13.5721 16.1473C13.8264 16.0838 14.0807 16.0202 14.335 15.9566V16.7513C14.0807 16.8466 13.8264 16.9102 13.5721 16.9738C13.3178 17.0056 13 17.0373 12.6504 17.0373C11.9829 17.0373 11.4425 16.9102 10.9975 16.6241C10.5525 16.3381 10.2347 15.9566 10.0122 15.4481C9.78966 14.9395 9.69434 14.3674 9.69434 13.6681C9.69434 13.1913 9.7579 12.7145 9.88504 12.3331C10.0122 11.9199 10.2347 11.5702 10.489 11.2841C10.7433 10.9981 11.0611 10.7438 11.4743 10.5849C11.8557 10.4259 12.3007 10.3306 12.8093 10.3306C13.1271 10.3306 13.445 10.3623 13.7629 10.4259C14.0807 10.4895 14.3668 10.5849 14.621 10.712L14.2714 11.4749C14.0489 11.3795 13.8264 11.2841 13.5721 11.2206C13.3178 11.157 13.0318 11.0934 12.7775 11.0934Z" fill="#BE1128"/>
<path d="M20.1516 21.8685C20.1516 22.0274 20.1198 22.1545 20.0562 22.2499C19.9926 22.3452 19.9291 22.4406 19.8019 22.5042C19.7066 22.5678 19.5794 22.6313 19.4523 22.6631V22.6949C19.7066 22.7267 19.9291 22.822 20.0562 22.9492C20.1833 23.0763 20.2469 23.267 20.2469 23.4895C20.2469 23.6802 20.2151 23.8392 20.1198 23.9981C20.0244 24.157 19.8973 24.2524 19.7066 24.3478C19.5158 24.4431 19.2616 24.4749 18.9755 24.4749C18.7848 24.4749 18.6258 24.4749 18.4987 24.4431C18.3716 24.4113 18.2126 24.3795 18.0537 24.316V23.871C18.1809 23.9345 18.3398 23.9981 18.4987 24.0299C18.6576 24.0617 18.8166 24.0935 18.9755 24.0935C19.2616 24.0935 19.4841 24.0299 19.6112 23.9345C19.7383 23.8074 19.8019 23.6803 19.8019 23.4578C19.8019 23.3306 19.7701 23.2352 19.7066 23.1399C19.643 23.0445 19.5476 22.981 19.3887 22.9492C19.2615 22.9174 19.1027 22.8856 18.8802 22.8856H18.5623V22.5042H18.8802C19.0709 22.5042 19.2298 22.4724 19.3252 22.4406C19.4523 22.3771 19.5476 22.3135 19.5794 22.2181C19.643 22.1228 19.6748 22.0274 19.6748 21.9002C19.6748 21.7413 19.6112 21.6142 19.5159 21.5506C19.4205 21.4552 19.2616 21.4235 19.0709 21.4235C18.9437 21.4235 18.8483 21.4235 18.753 21.4553C18.6576 21.487 18.5623 21.5188 18.4987 21.5506C18.4351 21.5824 18.3398 21.646 18.2762 21.6777L18.0537 21.3599C18.1809 21.2645 18.3398 21.201 18.4987 21.1056C18.6894 21.042 18.8801 21.0103 19.1026 21.0103C19.4523 21.0103 19.7066 21.0738 19.8655 21.2328C20.0562 21.4553 20.1516 21.646 20.1516 21.8685Z" fill="#BE1128"/>
<path d="M20.7559 23.0127C20.7559 22.822 20.7558 22.6312 20.7876 22.4405C20.8194 22.2498 20.8512 22.0591 20.9148 21.9001C20.9784 21.7412 21.0737 21.5823 21.2009 21.4551C21.328 21.328 21.4551 21.2327 21.6458 21.1691C21.8366 21.1055 22.0273 21.0737 22.2816 21.0737C22.3451 21.0737 22.4087 21.0737 22.5041 21.0737C22.5994 21.0737 22.663 21.1055 22.6948 21.1055V21.4869C22.6312 21.4552 22.5676 21.4551 22.5041 21.4551C22.4405 21.4551 22.3769 21.4551 22.2816 21.4551C21.9955 21.4551 21.773 21.5187 21.6141 21.6141C21.4552 21.7412 21.328 21.8684 21.2644 22.0909C21.2009 22.2816 21.1691 22.5041 21.1373 22.7584H21.169C21.2008 22.6948 21.2644 22.6312 21.328 22.5676C21.3915 22.5041 21.4869 22.4723 21.5823 22.4087C21.6776 22.3769 21.8048 22.3451 21.9319 22.3451C22.1226 22.3451 22.2816 22.3769 22.4405 22.4723C22.5994 22.5676 22.6947 22.663 22.7583 22.8219C22.8219 22.9809 22.8855 23.1716 22.8855 23.3623C22.8855 23.5848 22.8537 23.7755 22.7583 23.9662C22.663 24.1252 22.5358 24.2523 22.3769 24.3477C22.218 24.443 22.0273 24.4748 21.8048 24.4748C21.6459 24.4748 21.4869 24.443 21.3598 24.3795C21.2326 24.3159 21.1055 24.2205 21.0101 24.0934C20.9148 23.9662 20.8194 23.8073 20.7559 23.6484C20.7559 23.4894 20.7559 23.267 20.7559 23.0127ZM21.8683 24.0934C22.059 24.0934 22.218 24.0298 22.3133 23.9027C22.4087 23.7755 22.4723 23.5848 22.4723 23.3305C22.4723 23.1398 22.4087 22.9491 22.3133 22.8537C22.218 22.7266 22.059 22.663 21.8683 22.663C21.7412 22.663 21.614 22.6948 21.5187 22.7584C21.4233 22.8219 21.328 22.8855 21.2644 22.9809C21.2009 23.0762 21.169 23.1716 21.169 23.2669C21.169 23.3623 21.1691 23.4577 21.2009 23.553C21.2326 23.6484 21.2644 23.7437 21.328 23.8073C21.3915 23.9027 21.4551 23.9662 21.5505 23.998C21.6776 24.0934 21.773 24.0934 21.8683 24.0934Z" fill="#BE1128"/>
<path d="M25.5864 22.7583C25.5864 23.0126 25.5546 23.2668 25.5228 23.4893C25.491 23.7118 25.4274 23.8708 25.3321 24.0297C25.2367 24.1886 25.1414 24.284 24.9824 24.3793C24.8553 24.4429 24.6646 24.5065 24.4739 24.5065C24.2196 24.5065 24.0289 24.4429 23.8381 24.3158C23.6792 24.1886 23.5521 23.9979 23.4885 23.7436C23.3931 23.4893 23.3613 23.1715 23.3613 22.8218C23.3613 22.4722 23.3931 22.1543 23.4567 21.9001C23.5203 21.6458 23.6474 21.4551 23.8063 21.3279C23.9653 21.2008 24.1878 21.1372 24.4421 21.1372C24.6964 21.1372 24.9189 21.2008 25.0778 21.3279C25.2367 21.4551 25.3638 21.6458 25.4592 21.9001C25.5546 22.1225 25.5864 22.4086 25.5864 22.7583ZM23.8381 22.7583C23.8381 23.0443 23.8699 23.2986 23.9017 23.4893C23.9335 23.68 24.0288 23.839 24.1242 23.9343C24.2196 24.0297 24.3467 24.0933 24.5056 24.0933C24.6646 24.0933 24.7917 24.0297 24.8871 23.9343C24.9824 23.839 25.046 23.68 25.1096 23.4893C25.1413 23.2986 25.1731 23.0443 25.1731 22.7583C25.1731 22.4722 25.1413 22.2179 25.1096 22.0272C25.0778 21.8365 25.0142 21.6776 24.9189 21.5822C24.8235 21.4868 24.6964 21.4233 24.5374 21.4233C24.3785 21.4233 24.2513 21.4868 24.156 21.5822C24.0606 21.6776 23.9971 21.8365 23.9653 22.0272C23.8699 22.2497 23.8381 22.4722 23.8381 22.7583Z" fill="#BE1128"/>
</svg>
