<svg width="28" height="28" viewBox="0 0 28 28" fill="none" xmlns="http://www.w3.org/2000/svg">
<path d="M9.77663 25.1871C8.76138 25.1871 7.85025 24.8226 7.06929 24.0937C4.64831 21.8549 3.16449 18.8352 2.46162 14.8263C2.35749 14.2796 2.43558 13.8631 2.6959 13.5507C3.06035 13.1082 3.65909 13.004 4.23179 12.978C7.51183 12.7698 10.922 12.2491 14.3322 11.4681C15.8421 11.1297 17.3259 10.6351 18.7837 10.1665C20.4758 9.61987 22.22 9.04716 24.0162 8.68271L24.9533 8.50049L24.5628 9.38559L24.1203 9.22938L24.5628 9.41161C23.0009 12.8999 21.5171 15.5812 19.8771 17.872C16.9875 21.907 13.9678 24.302 10.87 25.0569C10.5055 25.135 10.1411 25.1871 9.77663 25.1871Z" fill="#BE1128"/>
<path d="M2.87811 9.25563C1.60253 9.25563 0.769499 8.94325 0.326954 8.26642C-0.167655 7.56355 -0.0895555 6.54829 0.48315 5.22065C1.29014 3.39841 2.56571 1.86253 4.23176 0.639021C4.28383 0.612989 4.3359 0.560917 4.38796 0.508853C4.75241 0.248532 5.32512 -0.220049 5.97592 0.118368C6.54862 0.430752 6.47052 1.05552 6.41846 1.39393C6.39243 1.49806 6.39243 1.62823 6.39243 1.70633V1.81046C6.54862 4.15334 6.67878 6.34004 8.83944 7.87593L9.93279 8.65688L8.57913 8.76101C7.95436 8.81308 7.38165 8.86516 6.78292 8.91722C5.50734 9.04738 4.30986 9.15149 3.08636 9.20356C3.06033 9.25562 2.9562 9.25563 2.87811 9.25563Z" fill="#BE1128"/>
</svg>
