<svg width="26" height="23" viewBox="0 0 26 23" fill="none" xmlns="http://www.w3.org/2000/svg">
<path fill-rule="evenodd" clip-rule="evenodd" d="M6.78272 1.9085H1.48464C1.45553 1.9085 1.45552 1.90851 1.42641 1.93571C1.42641 1.93571 1.42641 1.96291 1.42641 1.99011V20.9522C1.42641 20.9794 1.42641 20.9794 1.45552 21.0067C1.45552 21.0067 1.48463 21.0338 1.51374 21.0338H6.81183C6.84094 21.0338 6.84094 21.0339 6.87005 21.0067C6.87005 21.0067 6.89916 20.9794 6.89916 20.9522V1.99011C6.89916 1.96291 6.89916 1.96292 6.87005 1.93571C6.81183 1.90851 6.81183 1.9085 6.78272 1.9085ZM21.105 4.65625C21.4835 4.60184 21.8328 4.84668 21.891 5.22756C21.9492 5.58122 21.6872 5.9077 21.2797 5.96211L18.2231 6.34298C17.8447 6.39739 17.4953 6.15255 17.4371 5.77167C17.3789 5.418 17.6409 5.09153 18.0484 5.03712L21.105 4.65625ZM21.1632 15.6472C20.9304 15.6744 20.7266 15.7832 20.6102 15.9465C20.4937 16.1097 20.4064 16.3001 20.4355 16.5178C20.4646 16.7354 20.581 16.9259 20.7557 17.0347C20.9304 17.1435 21.1341 17.2251 21.367 17.1979C21.5999 17.1707 21.8037 17.0619 21.9201 16.8986C22.0366 16.7354 22.1239 16.545 22.0948 16.3273C22.0657 16.1097 21.9492 15.9192 21.7746 15.8104C21.5999 15.6744 21.3961 15.62 21.1632 15.6472ZM19.4748 15.1575C19.8242 14.7222 20.3482 14.423 20.9595 14.3413C21.5708 14.2597 22.153 14.423 22.6188 14.7494C23.0845 15.0759 23.4047 15.5656 23.4921 16.1369C23.5794 16.7082 23.4048 17.2523 23.0554 17.6876C22.7061 18.1229 22.1821 18.4221 21.5708 18.5037C20.9595 18.5854 20.3773 18.4221 19.9115 18.0957C19.4457 17.7692 19.1255 17.2795 19.0382 16.7082C18.98 16.1369 19.1546 15.5656 19.4748 15.1575ZM21.7455 1.30998L16.5056 1.99011C16.4765 1.99011 16.4765 1.99012 16.4474 2.01733C16.4474 2.04453 16.4183 2.04454 16.4183 2.07175C17.146 8.30177 18.5142 14.6678 19.1837 20.8706C19.1837 20.8978 19.1837 20.8978 19.2128 20.925C19.242 20.925 19.242 20.9522 19.2711 20.9522L24.5109 20.2721C24.5401 20.2721 24.54 20.2721 24.5692 20.2449C24.5692 20.2177 24.5983 20.2177 24.5983 20.1905C23.8705 13.9605 22.5023 7.59443 21.8328 1.39161C21.8328 1.36441 21.8328 1.3644 21.8037 1.33719C21.8037 1.30999 21.7746 1.30998 21.7455 1.30998ZM16.36 0.68427L21.5126 0.0313482C21.5417 0.0313482 21.5999 0.0313424 21.629 0.00413703C22.0074 -0.0230683 22.3568 0.0857489 22.6479 0.276186C22.939 0.466623 23.1428 0.765875 23.201 1.11954C23.201 1.14675 23.2301 1.20116 23.2301 1.22837L25.9665 19.9184C25.9665 19.9456 25.9665 20.0001 25.9956 20.0273C26.0247 20.3809 25.9082 20.7074 25.7045 20.9794C25.5007 21.2515 25.1805 21.4419 24.802 21.4964C24.7729 21.4964 24.7147 21.5235 24.6856 21.5235L19.5331 22.1765C19.504 22.1765 19.4457 22.1765 19.4166 22.2037C19.0382 22.2309 18.6889 22.1221 18.3978 21.9316C18.1067 21.7412 17.9029 21.4419 17.8447 21.0883C17.8447 21.0611 17.8156 21.0066 17.8156 20.9794L15.1374 2.72467V20.925C15.1374 21.3059 14.9627 21.6596 14.7007 21.9044C14.4387 22.1493 14.0603 22.3125 13.6528 22.3125H8.35468C8.06357 22.3125 7.80158 22.2309 7.56869 22.0949C7.33581 22.2309 7.07383 22.3125 6.78272 22.3125H1.48464C1.07709 22.3125 0.698654 22.1493 0.43666 21.9044C0.174667 21.6596 0 21.3059 0 20.925V1.96292C0 1.60925 0.145555 1.28278 0.378438 1.03793L0.43666 0.983531C0.698654 0.738683 1.07709 0.575446 1.48464 0.575446H6.78272C7.07383 0.575446 7.33581 0.657067 7.56869 0.793094C7.80158 0.657067 8.06357 0.575446 8.35468 0.575446H13.6528C14.0603 0.575446 14.4387 0.738683 14.7007 0.983531C14.9045 1.17397 15.0501 1.41882 15.1083 1.66366C15.1665 1.50043 15.2538 1.3372 15.3412 1.20118C15.5449 0.929125 15.8652 0.738681 16.2436 0.68427C16.2727 0.68427 16.3309 0.68427 16.36 0.68427ZM10.9746 16.0281C10.7417 16.0281 10.538 16.1097 10.3924 16.2457C10.2469 16.3817 10.1595 16.5722 10.1595 16.7898C10.1595 17.0075 10.2469 17.1979 10.3924 17.3339C10.538 17.47 10.7417 17.5516 10.9746 17.5516C11.2075 17.5516 11.4113 17.47 11.5568 17.3339L11.5859 17.3067C11.7315 17.1707 11.8188 16.9803 11.8188 16.7898C11.8188 16.5722 11.7315 16.3817 11.5859 16.2457C11.4113 16.1097 11.2075 16.0281 10.9746 16.0281ZM9.37355 15.3207C8.966 15.7016 8.70401 16.2185 8.70401 16.7898C8.70401 17.3611 8.966 17.878 9.37355 18.2589C9.78109 18.6398 10.3342 18.8846 10.9455 18.8846C11.5568 18.8846 12.1099 18.6398 12.5175 18.2589L12.5466 18.2045C12.925 17.8236 13.1579 17.3339 13.1579 16.7626C13.1579 16.1913 12.8959 15.6744 12.4884 15.2935C12.0808 14.9127 11.5277 14.6678 10.9164 14.6678C10.3342 14.695 9.78109 14.9399 9.37355 15.3207ZM12.4884 5.14594H9.40265C9.02422 5.14594 8.70401 5.4452 8.70401 5.79886C8.70401 6.15253 9.02422 6.45181 9.40265 6.45181H12.4884C12.8668 6.45181 13.187 6.15253 13.187 5.79886C13.187 5.4452 12.8959 5.14594 12.4884 5.14594ZM13.6528 1.9085H8.35468C8.32557 1.9085 8.32556 1.90851 8.29645 1.93571V1.96292V20.925C8.29645 20.9522 8.29646 20.9522 8.32557 20.9794C8.35468 20.9794 8.35468 21.0067 8.38379 21.0067H13.6819C13.711 21.0067 13.711 21.0066 13.7401 20.9794C13.7401 20.9794 13.7692 20.9522 13.7692 20.925V1.96292C13.7692 1.93572 13.7692 1.93571 13.7401 1.9085C13.6819 1.9085 13.6528 1.9085 13.6528 1.9085ZM4.10456 16.0281C4.33745 16.0281 4.54122 16.1097 4.68677 16.2457C4.83233 16.3817 4.91965 16.5722 4.91965 16.7898C4.91965 17.0075 4.83233 17.1707 4.68677 17.3067L4.65766 17.3339C4.5121 17.47 4.30834 17.5516 4.07546 17.5516C3.84257 17.5516 3.66791 17.47 3.52235 17.3339L3.49325 17.3067C3.3477 17.1707 3.26036 16.9803 3.26036 16.7626C3.26036 16.545 3.3477 16.3545 3.49325 16.2185C3.66791 16.1097 3.87168 16.0281 4.10456 16.0281ZM2.5326 15.3207C2.94015 14.9399 3.49325 14.695 4.10456 14.695C4.71588 14.695 5.26898 14.9399 5.67653 15.3207C6.08407 15.7016 6.34606 16.2185 6.34606 16.7898C6.34606 17.3339 6.11318 17.8508 5.73475 18.2317L5.70563 18.2861C5.29809 18.667 4.745 18.9118 4.13368 18.9118C3.55147 18.9118 2.99837 18.6942 2.59082 18.3405L2.5326 18.3133C2.12505 17.9324 1.86306 17.4156 1.86306 16.8442C1.86306 16.2185 2.12505 15.7016 2.5326 15.3207ZM5.64741 5.14594C6.02584 5.14594 6.34606 5.4452 6.34606 5.79886C6.34606 6.15253 6.02584 6.45181 5.64741 6.45181H2.56172C2.18328 6.45181 1.86306 6.15253 1.86306 5.79886C1.86306 5.4452 2.18328 5.14594 2.56172 5.14594H5.64741Z" fill="#BE1128"/>
</svg>
