<svg width="18" height="25" viewBox="0 0 18 25" fill="none" xmlns="http://www.w3.org/2000/svg">
<path fill-rule="evenodd" clip-rule="evenodd" d="M13.7455 9.82018C13.7455 9.84995 13.7455 9.87972 13.7455 9.87972C13.7157 9.96902 13.7157 10.0881 13.686 10.1774C13.4479 11.2489 12.9422 12.5287 12.1984 13.511L12.2281 14.4932C12.2281 14.5825 12.2579 14.642 12.2876 14.6718C12.3174 14.7015 12.3173 14.7015 12.3471 14.7313L12.5554 14.7611C12.7339 14.7908 12.9124 14.8206 13.1207 14.8504C14.3405 12.4097 14.8463 9.93925 14.6975 7.73669C14.5488 5.38531 13.6264 3.36134 12.0793 2.02194C11.5736 1.57548 11.038 1.3076 10.5322 1.18855C10.1157 1.09925 9.69916 1.18855 9.37189 1.3969C9.34214 1.42666 9.3124 1.42665 9.3124 1.45641C9.22314 1.54571 9.16362 1.60523 9.04461 1.63499C9.01486 1.63499 8.98511 1.66476 8.95536 1.66476C8.50908 1.78382 8.30083 1.66476 8.15207 1.21829C8.03306 1.21829 7.85453 1.24806 7.67602 1.30758C7.14048 1.45641 6.48594 1.78382 5.86114 2.28981C4.16527 3.68873 3.36197 5.74247 3.24297 7.91527C3.09421 10.3857 3.83802 12.9454 5.20662 14.7908L5.50413 14.7313L5.7124 14.7015C5.74215 14.7015 5.74214 14.6718 5.77189 14.6718C5.80164 14.6122 5.83141 14.5527 5.83141 14.4932L5.86114 13.511C5.65288 13.2431 5.47438 12.9454 5.29587 12.6478C4.52231 11.3084 4.10578 9.61184 4.10578 8.27245C4.10578 8.21292 4.10578 8.09386 4.10578 7.97481C4.16528 6.96282 4.40331 6.12941 4.79009 5.3853C5.20662 4.67096 5.74215 4.04591 6.4562 3.45062L6.48596 3.42087C6.51571 3.39111 6.57519 3.36132 6.60494 3.33156C6.90247 3.18274 7.28926 3.30181 7.43802 3.62922C7.67604 4.13521 8.15207 4.46262 8.6876 4.67097C9.3124 4.90908 10.0562 5.02813 10.8 5.14718C11.4843 5.26624 12.1388 5.3853 12.6744 5.59365C13.3587 5.86153 13.8347 6.27824 13.924 7.02235V7.0521C13.924 7.26045 13.9537 7.46882 13.9537 7.67717C13.9537 7.88552 13.9537 8.09387 13.9537 8.30222C13.924 8.62962 13.8942 8.92727 13.8645 9.25467C13.8347 9.46302 13.805 9.64159 13.7455 9.82018ZM9.96694 12.7669C9.9967 12.7371 9.99669 12.7073 10.0264 12.7073C10.5322 12.6478 11.0678 12.499 11.5438 12.2906C11.4248 12.499 11.276 12.6776 11.157 12.8562C11.1273 12.8859 11.0678 12.9454 11.038 13.005L11.0083 13.0347C10.4727 13.63 9.81818 14.017 9.01488 14.017H8.89587C8.15207 13.9872 7.46776 13.5705 6.93222 12.9454L6.90248 12.9157C6.69422 12.6776 6.48595 12.3799 6.33719 12.0823C5.68264 10.9215 5.3256 9.49277 5.3256 8.33196C5.3256 8.21291 5.3256 8.1534 5.3256 8.09387C5.35536 7.29023 5.53387 6.63542 5.86114 6.06989C6.09916 5.65319 6.3967 5.29602 6.78347 4.90909C7.17025 5.35555 7.67603 5.68294 8.24132 5.89129C8.98512 6.18893 9.81818 6.33776 10.5917 6.45682C11.2165 6.54611 11.7818 6.66518 12.2281 6.814C12.4959 6.93306 12.6744 7.05211 12.7041 7.20093C12.7041 7.37951 12.7339 7.5581 12.7339 7.73669C12.7339 7.91527 12.7339 8.09387 12.7339 8.30222C12.7339 8.5701 12.7041 8.83796 12.6446 9.10584C12.6149 9.25466 12.5851 9.4035 12.5554 9.58208C12.5256 9.67138 12.4364 9.87973 12.4364 9.90949C12.2281 10.356 11.8413 10.7429 11.3653 11.0108C10.9488 11.2489 10.5025 11.3977 10.0264 11.4572L9.9967 11.4275C9.81819 11.2489 9.58016 11.1596 9.3124 11.1596C9.04463 11.1596 8.8066 11.2786 8.62809 11.4275C8.44957 11.606 8.36033 11.8442 8.36033 12.112C8.36033 12.3799 8.47933 12.618 8.62809 12.7966C8.8066 12.9752 9.04463 13.0645 9.3124 13.0645C9.55041 13.0347 9.78843 12.9157 9.96694 12.7669ZM10.9785 14.6718C11.0083 14.9694 11.1273 15.2671 11.3058 15.4754C11.514 15.7433 11.7818 15.9219 12.1388 15.9814L12.3471 16.0112C12.6446 16.0707 12.9421 16.1004 13.2099 16.1897C12.1686 16.666 11.4546 17.0827 10.8298 17.7375C10.1752 18.4221 9.66941 19.3448 9.04461 20.8628C7.70577 17.7673 7.11074 17.291 4.76033 16.2195C5.05785 16.16 5.35536 16.1005 5.65288 16.0409L5.86114 16.0112L5.92066 15.9814C6.21818 15.9219 6.48595 15.7433 6.66446 15.5052C6.84297 15.2671 6.96198 14.9992 6.99174 14.6718C7.52727 15.0289 8.15207 15.2373 8.80661 15.2671H8.95536C9.75867 15.2671 10.4132 15.0289 10.9785 14.6718ZM14.3405 15.2075C14.519 15.2671 14.6975 15.3266 14.8463 15.4159C16.3636 16.1005 17.1669 17.291 17.5835 18.6602V18.7197C17.9702 19.9996 18 21.458 18 22.857V23.1546C18 23.6606 17.7917 24.1368 17.4645 24.4642C17.1372 24.7916 16.6612 25 16.1554 25H1.84461C1.33883 25 0.862811 24.7916 0.535538 24.4642C0.208266 24.1368 0 23.6606 0 23.1546V22.857V22.7974C0 21.3985 0.0297339 19.9401 0.446263 18.6602C0.862792 17.2613 1.66612 16.1005 3.18347 15.4159C3.42149 15.2968 3.62974 15.2373 3.86776 15.148C2.52891 13.124 1.81487 10.475 1.96363 7.91527C2.11239 5.41506 3.06446 3.00417 5.05785 1.3969C5.8314 0.771845 6.66445 0.355134 7.34875 0.176548C7.67602 0.0872552 8.00331 0.0574882 8.27108 0.0574882C8.53885 0.0872525 8.77685 0.146787 8.95536 0.295608C9.52065 -0.00203497 10.1454 -0.0615691 10.7702 0.0574882C11.4843 0.176545 12.2281 0.56349 12.9124 1.15878C14.6975 2.70652 15.7686 5.0579 15.9471 7.73669C16.0661 10.0285 15.5603 12.618 14.3405 15.2075ZM3.15371 16.8148C2.35041 17.3506 1.87436 18.1244 1.60659 19.0174C1.24957 20.1484 1.21982 21.4878 1.21982 22.7974V22.857V23.1546C1.21982 23.3332 1.27932 23.482 1.39833 23.5713C1.51734 23.6904 1.66612 23.7499 1.81488 23.7499H16.1256C16.3041 23.7499 16.4529 23.6904 16.5422 23.5713C16.6612 23.4522 16.7207 23.3034 16.7207 23.1546V22.857C16.7207 21.5473 16.6909 20.2079 16.3636 19.0769L16.3339 19.0174C16.0661 18.1244 15.5901 17.3506 14.7868 16.8148C13.2099 17.4696 12.3471 17.8863 11.6926 18.5709C10.9785 19.315 10.4727 20.4461 9.60991 22.6486C9.55041 22.8272 9.43141 22.9463 9.2529 23.0355C8.92563 23.1546 8.56859 23.0058 8.44958 22.7081C6.69421 18.4518 6.42644 18.3328 3.54048 17.0232L3.15371 16.8148Z" fill="#BE1128"/>
</svg>
