<svg width="39" height="39" viewBox="0 0 39 39" fill="none" xmlns="http://www.w3.org/2000/svg">
<path d="M27.2188 3.25H10.9688C9.17637 3.25 7.71875 4.70762 7.71875 6.5V32.5C7.71875 34.2924 9.17637 35.75 10.9688 35.75H27.2188C29.0111 35.75 30.4688 34.2924 30.4688 32.5V6.5C30.4688 4.70762 29.0111 3.25 27.2188 3.25ZM10.9688 32.5V6.5H27.2188L27.222 32.5H10.9688Z" fill="#EB2629"/>
<path d="M19.0938 30.875C19.9912 30.875 20.7188 30.1475 20.7188 29.25C20.7188 28.3525 19.9912 27.625 19.0938 27.625C18.1963 27.625 17.4688 28.3525 17.4688 29.25C17.4688 30.1475 18.1963 30.875 19.0938 30.875Z" fill="#EB2629"/>
</svg>
