<svg width="19" height="20" viewBox="0 0 19 20" fill="none" xmlns="http://www.w3.org/2000/svg">
<path d="M9.06954 5.54607C6.61803 5.54607 4.62486 7.54108 4.62486 9.99283C4.62486 12.4446 6.61803 14.4387 9.06954 14.4387C11.5183 14.4387 13.5116 12.4446 13.5116 9.99283C13.5116 7.54108 11.5183 5.54607 9.06954 5.54607ZM9.06954 13.4924C7.13472 13.4924 5.56975 11.9258 5.56975 9.99272C5.56975 8.05881 7.13472 6.4922 9.06954 6.4922C11.0008 6.4922 12.5658 8.05881 12.5658 9.99272C12.5658 11.9258 11.0008 13.4924 9.06954 13.4924ZM9.06954 5.54607C6.61803 5.54607 4.62486 7.54108 4.62486 9.99283C4.62486 12.4446 6.61803 14.4387 9.06954 14.4387C11.5183 14.4387 13.5116 12.4446 13.5116 9.99283C13.5116 7.54108 11.5183 5.54607 9.06954 5.54607ZM9.06954 13.4924C7.13472 13.4924 5.56975 11.9258 5.56975 9.99272C5.56975 8.05881 7.13472 6.4922 9.06954 6.4922C11.0008 6.4922 12.5658 8.05881 12.5658 9.99272C12.5658 11.9258 11.0008 13.4924 9.06954 13.4924ZM9.06954 2.49683C4.93102 2.49683 1.57715 5.85318 1.57715 9.99272C1.57715 14.1315 4.93102 17.4869 9.06954 17.4869C13.2045 17.4869 16.5593 14.1315 16.5593 9.99272C16.5593 5.85318 13.2045 2.49683 9.06954 2.49683ZM9.06954 14.8653C6.38362 14.8653 4.19756 12.68 4.19756 9.99283C4.19756 7.30657 6.38362 5.11948 9.06954 5.11948C11.7538 5.11948 13.938 7.30657 13.938 9.99283C13.9379 12.68 11.7536 14.8653 9.06954 14.8653ZM9.06954 5.54607C6.61803 5.54607 4.62486 7.54108 4.62486 9.99283C4.62486 12.4446 6.61803 14.4387 9.06954 14.4387C11.5183 14.4387 13.5116 12.4446 13.5116 9.99283C13.5116 7.54108 11.5183 5.54607 9.06954 5.54607ZM9.06954 13.4924C7.13472 13.4924 5.56975 11.9258 5.56975 9.99272C5.56975 8.05881 7.13472 6.4922 9.06954 6.4922C11.0008 6.4922 12.5658 8.05881 12.5658 9.99272C12.5658 11.9258 11.0008 13.4924 9.06954 13.4924Z" fill="#EB2629"/>
<path d="M9.94769 2.63206H8.23248L8.40319 0.919922H9.77698L9.94769 2.63206Z" fill="#EB2629"/>
<path d="M6.15186 3.17873L4.66641 4.03679L3.95831 2.46803L5.14795 1.78076L6.15186 3.17873Z" fill="#EB2629"/>
<path d="M3.13721 5.55023L2.27965 7.03639L0.882324 6.032L1.56916 4.8418L3.13721 5.55023Z" fill="#EB2629"/>
<path d="M1.71208 9.11206V10.8273L-6.10352e-05 10.6564V9.28277L1.71208 9.11206Z" fill="#EB2629"/>
<path d="M2.25744 12.9097L3.11511 14.3958L1.54695 15.1043L0.860107 13.9142L2.25744 12.9097Z" fill="#EB2629"/>
<path d="M4.62809 15.9255L6.11359 16.7836L5.10965 18.1816L3.91998 17.4944L4.62809 15.9255Z" fill="#EB2629"/>
<path d="M8.18823 17.3516H9.90344L9.73261 19.0637H8.35895L8.18823 17.3516Z" fill="#EB2629"/>
<path d="M11.9841 16.8057L13.4694 15.9478L14.1777 17.5165L12.988 18.2037L11.9841 16.8057Z" fill="#EB2629"/>
<path d="M14.9985 14.4342L15.8561 12.948L17.2535 13.9524L16.5666 15.1426L14.9985 14.4342Z" fill="#EB2629"/>
<path d="M16.4239 10.8717V9.15649L18.1359 9.32732V10.701L16.4239 10.8717Z" fill="#EB2629"/>
<path d="M15.8784 7.07472L15.0207 5.58856L16.5887 4.88013L17.2757 6.07033L15.8784 7.07472Z" fill="#EB2629"/>
<path d="M13.5077 4.0589L12.0222 3.20095L13.0262 1.80298L14.2159 2.49013L13.5077 4.0589Z" fill="#EB2629"/>
</svg>
