<svg width="55" height="52" viewBox="0 0 55 52" fill="none" xmlns="http://www.w3.org/2000/svg">
<path d="M12.1403 50.9972H3.98724C3.59495 50.9972 3.2065 50.9214 2.84408 50.7742C2.48165 50.6269 2.15233 50.4111 1.87494 50.1391C1.31473 49.5897 1 48.8445 1 48.0676V3.92961C1 3.15263 1.31473 2.40748 1.87494 1.85808C2.43516 1.30867 3.19498 1.00002 3.98724 1.00002H14.0713C14.7585 0.997299 15.4247 1.23227 15.9527 1.66363L28.6444 11.9253C28.8904 12.1219 29.0945 12.3641 29.245 12.638C29.3956 12.912 29.4896 13.2124 29.5218 13.522C29.554 13.8316 29.5237 14.1444 29.4326 14.4425C29.3415 14.7406 29.1914 15.0182 28.991 15.2595C28.7905 15.5007 28.5435 15.7009 28.2642 15.8485C27.9848 15.9962 27.6785 16.0884 27.3628 16.12C27.0471 16.1515 26.7282 16.1218 26.4242 16.0325C26.1202 15.9432 25.8371 15.796 25.5911 15.5994L14.2363 6.42218C13.7018 5.99089 13.0305 5.75618 12.3383 5.75857H8.83945C8.04719 5.75857 7.28737 6.06722 6.72715 6.61663C6.16693 7.16603 5.85221 7.91118 5.85221 8.68815V43.3252C5.85221 44.1022 6.16693 44.8473 6.72715 45.3967C7.28737 45.9461 8.04719 46.2548 8.83945 46.2548H10.6714C11.2546 46.2632 11.8278 46.1058 12.3218 45.8016L32.6714 33.1607C33.0189 32.9429 33.3169 32.6572 33.5469 32.3215C33.777 31.9858 33.934 31.6073 34.0083 31.2094C34.0827 30.8116 34.0726 30.403 33.9789 30.0092C33.8852 29.6153 33.7098 29.2446 33.4636 28.9201C33.1174 28.4138 32.9826 27.7966 33.087 27.1957C33.1913 26.5948 33.5268 26.0561 34.0243 25.6907C34.5218 25.3253 35.1433 25.1611 35.7606 25.2319C36.378 25.3028 36.944 25.6033 37.3421 26.0714L40.4778 30.1826C40.7289 30.5053 40.9084 30.8759 41.0049 31.2706C41.1013 31.6653 41.1126 32.0754 41.0381 32.4747C40.9635 32.8739 40.8046 33.2535 40.5717 33.589C40.3389 33.9246 40.037 34.2087 39.6856 34.4232L13.7247 50.6087C13.2464 50.8867 12.6957 51.0217 12.1403 50.9972Z" stroke="#ED1C24" stroke-width="2" stroke-miterlimit="10"/>
<path d="M53.4001 4.23747C53.4406 4.82488 53.4406 5.41429 53.4001 6.0017C53.4001 9.96715 53.2515 13.9326 53.4001 17.8981C53.4001 18.9501 53.4001 19.986 53.4001 21.0219V26.4926C53.4001 27.1365 53.1393 27.754 52.675 28.2093C52.2107 28.6646 51.581 28.9204 50.9245 28.9204C50.2679 28.9204 49.6382 28.6646 49.1739 28.2093C48.7097 27.754 48.4488 27.1365 48.4488 26.4926V10.5984C48.4534 10.4784 48.422 10.3597 48.3585 10.257C48.2951 10.1542 48.2023 10.072 48.0918 10.0204C47.9812 9.96872 47.8576 9.94996 47.7363 9.96639C47.615 9.98282 47.5012 10.0337 47.4091 10.1128L19.5667 31.9633C19.3087 32.1631 19.0132 32.3111 18.697 32.3989C18.3807 32.4867 18.0499 32.5126 17.7235 32.475C17.0643 32.3991 16.4627 32.0695 16.0513 31.5587C15.6398 31.0478 15.4521 30.3976 15.5295 29.7511C15.6069 29.1046 15.943 28.5147 16.4639 28.1111L42.4083 7.78211C42.5092 7.69999 42.5821 7.58961 42.6173 7.46575C42.6525 7.34189 42.6483 7.21044 42.6052 7.08899C42.5621 6.96755 42.4823 6.8619 42.3763 6.78619C42.2703 6.71047 42.1433 6.66829 42.0122 6.6653H26.9935C26.3369 6.6653 25.7072 6.40952 25.243 5.95421C24.7787 5.4989 24.5179 4.88137 24.5179 4.23747C24.5179 3.59357 24.7787 2.97604 25.243 2.52074C25.7072 2.06543 26.3369 1.80964 26.9935 1.80964H50.2148C50.6846 1.76353 51.1589 1.8226 51.602 1.98241C52.0452 2.14223 52.4455 2.3986 52.7729 2.73222C53.1226 3.16588 53.34 3.68774 53.4001 4.23747V4.23747Z" stroke="#ED1C24" stroke-width="2" stroke-miterlimit="10"/>
<path d="M29.7996 49.3785C29.1502 49.3828 28.5254 49.1351 28.0616 48.6893C27.5978 48.2436 27.3327 47.636 27.324 46.9992C27.3151 46.3538 27.567 45.7311 28.0246 45.2671C28.4823 44.8032 29.1085 44.5356 29.7666 44.5228L45.9736 44.2962C46.6302 44.2962 47.2599 44.0405 47.7241 43.5851C48.1884 43.1298 48.4492 42.5123 48.4492 41.8684V33.193C48.4492 32.5491 48.71 31.9315 49.1743 31.4762C49.6386 31.0209 50.2683 30.7651 50.9248 30.7651C51.5814 30.7651 52.2111 31.0209 52.6754 31.4762C53.1396 31.9315 53.4005 32.5491 53.4005 33.193V46.6593C53.407 46.983 53.348 47.3047 53.2267 47.6058C53.1054 47.9069 52.9244 48.1813 52.6941 48.4132C52.4637 48.6451 52.1887 48.8298 51.885 48.9566C51.5813 49.0835 51.2549 49.1498 50.9248 49.1519L29.8326 49.4432L29.7996 49.3785Z" stroke="#ED1C24" stroke-width="2" stroke-miterlimit="10"/>
</svg>
