<svg width="48" height="49" viewBox="0 0 48 49" fill="none" xmlns="http://www.w3.org/2000/svg">
<path fill-rule="evenodd" clip-rule="evenodd" d="M12.7444 30.9784L19.8313 19.521C20.0695 19.1033 20.4863 18.9244 20.9628 18.9244H31.206L35.2556 12.4199L31.1464 9.79424C30.5509 9.4362 30.3722 8.60075 30.7295 8.00401C30.9082 7.76531 31.0869 7.58628 31.3251 7.5266L46.1539 0.126998C46.8089 -0.171372 47.5831 0.0673603 47.8809 0.723774C48 0.902796 48 1.08185 48 1.32055V17.7309C48 18.447 47.4045 19.0436 46.6898 19.0436C46.4516 19.0436 46.1539 18.984 45.9752 18.805L41.8064 16.5373L35.8511 26.1449C35.6129 26.5626 35.1365 26.8013 34.6601 26.7416H24.4764L19.2953 35.096C18.9975 35.5733 18.6402 35.9314 18.2233 36.2298C17.8064 36.5281 17.33 36.7072 16.794 36.8265C16.2581 36.9459 15.7221 36.9459 15.2456 36.8265C14.7692 36.7072 14.2928 36.5282 13.8164 36.1701C12.9826 35.5734 12.4466 34.7379 12.268 33.7831C12.0893 32.888 12.2084 31.8735 12.7444 30.9784ZM46.6303 39.6312H9.34988V2.335C9.34988 1.61891 8.75434 1.02216 8.0397 1.02216C7.32505 1.02216 6.72951 1.61891 6.72951 2.335V39.6312H1.31018C0.595541 39.6312 0 40.228 0 40.9441C0 41.6602 0.595541 42.2569 1.31018 42.2569H6.72951V47.6872C6.72951 48.4033 7.32505 49 8.0397 49C8.75434 49 9.34988 48.4033 9.34988 47.6872V42.2569H46.6303C47.3449 42.2569 47.9404 41.6602 47.9404 40.9441C47.9404 40.1683 47.3449 39.6312 46.6303 39.6312ZM21.6774 21.4903L14.9479 32.351C14.7692 32.6494 14.7097 33.0074 14.7692 33.3058C14.8288 33.6042 15.0074 33.9025 15.3052 34.1412C15.4839 34.2606 15.603 34.3202 15.7817 34.3799C15.9603 34.4396 16.1389 34.4396 16.3176 34.3799C16.4963 34.3202 16.6749 34.2606 16.794 34.2009C16.9132 34.0815 17.0322 33.9622 17.1514 33.8428L22.6898 24.8918C22.928 24.5337 23.3449 24.295 23.7618 24.295H34.0645L40.3176 14.2698C40.6749 13.6731 41.3896 13.494 42.0447 13.852L45.4392 15.7019V3.52846L34.4218 9.07809L37.6973 11.1667C38.2928 11.5248 38.4715 12.3602 38.1142 12.957L33.0521 21.1323C32.8139 21.4903 32.397 21.729 31.9801 21.729L21.6774 21.4903Z" fill="#ED1C24"/>
</svg>
