<svg width="46" height="45" viewBox="0 0 46 45" fill="none" xmlns="http://www.w3.org/2000/svg">
<path d="M22.6214 0C20.1358 0 17.706 0.680816 15.6393 1.95636C13.5726 3.2319 11.9618 5.04487 11.0106 7.16601C10.0594 9.28716 9.8105 11.6212 10.2954 13.873C10.7803 16.1248 11.9773 18.1932 13.7348 19.8167C15.4924 21.4401 17.7317 22.5457 20.1696 22.9936C22.6074 23.4415 25.1343 23.2116 27.4307 22.333C29.7271 21.4544 31.6899 19.9666 33.0708 18.0576C34.4517 16.1486 35.1888 13.9042 35.1888 11.6083C35.1888 8.52961 33.8647 5.57699 31.5079 3.4C29.151 1.22302 25.9544 0 22.6214 0ZM22.6214 18.5733C21.13 18.5733 19.6721 18.1648 18.4321 17.3995C17.1921 16.6342 16.2256 15.5464 15.6549 14.2737C15.0842 13.001 14.9348 11.6006 15.2258 10.2495C15.5167 8.89845 16.2349 7.65741 17.2895 6.68333C18.344 5.70926 19.6876 5.04591 21.1503 4.77716C22.613 4.50842 24.1291 4.64635 25.507 5.17351C26.8848 5.70068 28.0625 6.5934 28.891 7.73878C29.7196 8.88417 30.1618 10.2308 30.1618 11.6083C30.1618 13.4556 29.3674 15.2271 27.9533 16.5333C26.5392 17.8395 24.6212 18.5733 22.6214 18.5733ZM45.2427 44.1117V41.79C45.2427 37.4798 43.389 33.3461 40.0894 30.2983C36.7898 27.2506 32.3146 25.5383 27.6483 25.5383H17.5944C12.9281 25.5383 8.45287 27.2506 5.15328 30.2983C1.85369 33.3461 0 37.4798 0 41.79V44.1117H5.02697V41.79C5.02697 38.7113 6.35103 35.7586 8.70788 33.5817C11.0647 31.4047 14.2613 30.1817 17.5944 30.1817H27.6483C30.9814 30.1817 34.178 31.4047 36.5348 33.5817C38.8917 35.7586 40.2157 38.7113 40.2157 41.79V44.1117H45.2427Z" fill="#ED1C24"/>
</svg>
