<svg width="56" height="53" viewBox="0 0 56 53" fill="none" xmlns="http://www.w3.org/2000/svg">
<path fill-rule="evenodd" clip-rule="evenodd" d="M36.077 7.3305C36.6828 6.81153 37.625 6.87638 38.0961 7.46022C38.6346 8.04407 38.5674 8.95229 37.9616 9.40639L26.3847 19.1371C25.8462 19.5912 24.9712 19.5912 24.4327 19.1371L19.3846 14.9204L10.1635 22.705C9.55775 23.224 8.61553 23.1591 8.14437 22.5753C7.60591 21.9914 7.67314 21.0832 8.27891 20.6291L18.4424 12.0661C18.9809 11.612 19.7884 11.612 20.3942 12.0661L25.4423 16.3476L36.077 7.3305ZM34.5288 30.295C34.5288 30.3599 34.5962 30.4247 34.5962 30.4896C34.9328 31.2681 35.4038 31.9817 35.9423 32.6304C36.1442 32.8899 36.3461 33.1493 36.6154 33.3439C36.6827 33.4088 36.7501 33.4737 36.7501 33.4737C37.154 33.8629 37.625 34.1873 38.0961 34.4468C38.7692 34.836 39.4423 35.0306 40.1827 35.0306C40.8557 35.0306 41.5961 34.836 42.2692 34.4468C42.7403 34.1873 43.2116 33.8629 43.6154 33.4737C43.6827 33.4088 43.75 33.3439 43.8173 33.3439C44.0193 33.1493 44.2885 32.8899 44.4905 32.6304C45.1635 31.8519 45.7019 30.9437 46.0384 29.9706C46.3749 29.0624 46.577 28.0893 46.577 27.1811V27.0514C46.577 26.9217 46.577 26.7919 46.577 26.6622C46.577 26.4027 46.577 25.754 46.577 25.1053C46.6443 21.213 46.7116 18.2937 40.25 18.2937C33.7885 18.2937 33.8558 21.2778 33.9231 25.1053C33.9231 25.754 33.9231 26.4027 33.9231 26.6622C33.9231 26.8568 33.9231 26.7919 33.9231 26.8568V26.9865C33.9231 27.0514 33.9231 27.1812 33.9231 27.246C33.9231 28.1542 34.1249 29.1273 34.4615 29.9706C34.4615 30.0355 34.5288 30.1653 34.5288 30.295ZM24.702 33.4088V32.306H32.3078C32.7116 33.0196 33.1154 33.6683 33.6538 34.317C33.7884 34.5116 33.9904 34.7062 34.125 34.9009V35.0955V35.1604C34.0577 35.8091 33.9904 36.6524 33.9231 37.1714L33.25 37.5606C30.6923 38.0795 28.4713 38.9229 26.8559 40.0905C25.1732 41.3231 24.1634 42.88 24.1634 44.8262V51.5079V51.5728V51.6377C24.1634 52.4162 24.8366 53 25.577 53L54.5866 52.9351C55.3943 52.9351 56 52.2864 56 51.5079V51.4431V51.3782V44.6964C56 42.7503 54.9904 41.1934 53.3077 39.9608C51.6924 38.7931 49.4711 37.9498 46.9134 37.4308L46.2403 37.0416C46.173 36.5227 46.1057 35.6793 46.0384 35.0306V34.9657V34.7711C46.2403 34.5765 46.375 34.3819 46.5096 34.1873C47.3173 33.1493 48.0578 31.9817 48.529 30.7491C49.0001 29.5165 49.2692 28.284 49.2692 26.9865V26.9217V26.7919V26.4027C49.2692 25.6242 49.2692 25.235 49.2692 24.8458C49.3365 20.4345 49.4039 16.8666 44.4905 15.634V2.85436H44.8269C45.6346 2.85436 46.3077 2.20564 46.3077 1.42718C46.3077 0.648722 45.6346 0 44.8269 0H43.0768H3.23084H1.48078C0.673085 0 0 0.648722 0 1.42718C0 2.20564 0.673085 2.85436 1.48078 2.85436H1.81744V30.7491C1.81744 31.5276 2.49052 32.1763 3.29821 32.1763H21.8078V33.2791C21.8078 34.0575 22.4809 34.7063 23.2886 34.7063C24.0963 34.7711 24.702 34.1873 24.702 33.4088ZM41.7308 3.04897H4.77899V29.5165H23.2886H31.298C31.0961 28.7381 30.9616 27.8947 30.9616 27.1163V26.9217V26.5973C30.9616 25.8189 30.9616 25.4296 30.9616 25.0404C30.8269 19.5263 30.7596 15.3745 40.1827 15.3745C40.7211 15.3745 41.2597 15.3746 41.7308 15.4394V3.04897ZM27.125 50.2105V44.8262C27.125 43.8531 27.7308 43.0747 28.6731 42.3611C29.952 41.388 31.9039 40.7393 34.125 40.2852C34.2596 40.2852 34.3942 40.2203 34.5288 40.1554C35.0673 40.869 35.8077 41.388 36.6154 41.7772C37.2884 42.1016 38.0289 42.2962 38.7693 42.4259L38.8366 50.2754L27.125 50.2105ZM41.6634 50.2105L41.5963 42.3611C42.2694 42.2313 42.9423 42.0367 43.548 41.7123C44.423 41.3231 45.2309 40.7393 45.7693 40.0905C45.9039 40.1554 46.0385 40.2203 46.1731 40.2203C48.3943 40.6744 50.3462 41.388 51.625 42.2962C52.5674 43.0098 53.173 43.8531 53.173 44.7613V50.0808L41.6634 50.2105ZM36.6827 38.2742C36.7501 37.9498 36.8173 37.4957 36.8847 37.0416C37.8943 37.5606 39.0384 37.8849 40.1827 37.8849C41.3269 37.8849 42.404 37.5606 43.4809 37.0416C43.5482 37.4957 43.6155 37.9498 43.6828 38.2742C43.4136 38.5985 42.9424 38.9878 42.4039 39.2472C41.7309 39.5716 40.9904 39.7662 40.25 39.7662C39.5097 39.7662 38.6347 39.5716 37.9616 39.2472C37.3558 38.9878 36.952 38.6634 36.6827 38.2742Z" fill="#ED1C24"/>
</svg>
