<svg width="60" height="43" viewBox="0 0 60 43" fill="none" xmlns="http://www.w3.org/2000/svg">
<path d="M54.1328 3.56251C54.6279 3.56251 55.1027 3.75018 55.4528 4.08423C55.8028 4.41828 55.9995 4.87135 55.9995 5.34377V37.4064C55.9995 37.8788 55.8028 38.3319 55.4528 38.6659C55.1027 39 54.6279 39.1876 54.1328 39.1876H5.59995C5.10488 39.1876 4.63009 39 4.28003 38.6659C3.92996 38.3319 3.7333 37.8788 3.7333 37.4064V5.34377C3.7333 4.87135 3.92996 4.41828 4.28003 4.08423C4.63009 3.75018 5.10488 3.56251 5.59995 3.56251H54.1328ZM5.59995 0C4.11475 0 2.69038 0.563003 1.64019 1.56515C0.589993 2.56731 0 3.92651 0 5.34377L0 37.4064C0 38.8236 0.589993 40.1829 1.64019 41.185C2.69038 42.1872 4.11475 42.7502 5.59995 42.7502H54.1328C55.618 42.7502 57.0424 42.1872 58.0926 41.185C59.1428 40.1829 59.7328 38.8236 59.7328 37.4064V5.34377C59.7328 3.92651 59.1428 2.56731 58.0926 1.56515C57.0424 0.563003 55.618 0 54.1328 0H5.59995Z" fill="#ED1C24"/>
<path d="M11.1996 23.1565C11.1996 22.6841 11.3963 22.2311 11.7464 21.897C12.0964 21.563 12.5712 21.3753 13.0663 21.3753H46.666C47.1611 21.3753 47.6358 21.563 47.9859 21.897C48.336 22.2311 48.5326 22.6841 48.5326 23.1565C48.5326 23.629 48.336 24.082 47.9859 24.4161C47.6358 24.7501 47.1611 24.9378 46.666 24.9378H13.0663C12.5712 24.9378 12.0964 24.7501 11.7464 24.4161C11.3963 24.082 11.1996 23.629 11.1996 23.1565ZM11.1996 30.2816C11.1996 29.8092 11.3963 29.3561 11.7464 29.022C12.0964 28.688 12.5712 28.5003 13.0663 28.5003H35.4661C35.9612 28.5003 36.4359 28.688 36.786 29.022C37.1361 29.3561 37.3327 29.8092 37.3327 30.2816C37.3327 30.754 37.1361 31.2071 36.786 31.5411C36.4359 31.8752 35.9612 32.0628 35.4661 32.0628H13.0663C12.5712 32.0628 12.0964 31.8752 11.7464 31.5411C11.3963 31.2071 11.1996 30.754 11.1996 30.2816ZM11.1996 12.469C11.1996 11.9966 11.3963 11.5435 11.7464 11.2095C12.0964 10.8754 12.5712 10.6877 13.0663 10.6877H46.666C47.1611 10.6877 47.6358 10.8754 47.9859 11.2095C48.336 11.5435 48.5326 11.9966 48.5326 12.469V16.0315C48.5326 16.5039 48.336 16.957 47.9859 17.2911C47.6358 17.6251 47.1611 17.8128 46.666 17.8128H13.0663C12.5712 17.8128 12.0964 17.6251 11.7464 17.2911C11.3963 16.957 11.1996 16.5039 11.1996 16.0315V12.469Z" fill="#ED1C24"/>
</svg>
