<svg width="59" height="46" viewBox="0 0 59 46" fill="none" xmlns="http://www.w3.org/2000/svg">
<path d="M15.6939 9.91583C15.6939 7.81642 16.5595 5.803 18.1004 4.31849C19.6412 2.83399 21.7311 2 23.9102 2H36.2346C38.4137 2 40.5036 2.83399 42.0444 4.31849C43.5853 5.803 44.4509 7.81642 44.4509 9.91583V12.5544H15.6939V9.91583ZM2 24.4282L28.7236 30.8651C29.159 30.9706 29.6164 30.9706 30.0519 30.8651L56.7754 24.4282V41.5792C56.7754 42.279 56.4869 42.9501 55.9733 43.445C55.4596 43.9398 54.763 44.2178 54.0366 44.2178H4.73877C4.0124 44.2178 3.31579 43.9398 2.80217 43.445C2.28855 42.9501 2 42.279 2 41.5792V24.4282Z" stroke="#ED1C24" stroke-width="3" stroke-linecap="round" stroke-linejoin="round"/>
<path d="M56.7754 27.0663V15.1926C56.7754 14.4928 56.4869 13.8216 55.9733 13.3268C55.4596 12.832 54.763 12.554 54.0366 12.554H4.73877C4.0124 12.554 3.31579 12.832 2.80217 13.3268C2.28855 13.8216 2 14.4928 2 15.1926V27.0663" stroke="#ED1C24" stroke-width="3" stroke-linecap="round" stroke-linejoin="round"/>
</svg>
