<svg width="58" height="43" viewBox="0 0 58 43" fill="none" xmlns="http://www.w3.org/2000/svg">
<path d="M49.4438 35.1659H8.24064C7.1482 35.1649 6.10081 34.7529 5.32834 34.0204C4.55586 33.2878 4.12141 32.2946 4.12032 31.2586V3.90733C4.12141 2.87136 4.55586 1.87811 5.32834 1.14557C6.10081 0.41303 7.1482 0.00103442 8.24064 0H49.4438C50.5363 0.00103442 51.5837 0.41303 52.3561 1.14557C53.1286 1.87811 53.5631 2.87136 53.5641 3.90733V31.2586C53.5625 32.2944 53.1279 33.2874 52.3555 34.0198C51.5832 34.7522 50.5361 35.1644 49.4438 35.1659V35.1659ZM8.24064 3.90733V31.2586H49.4438V3.90733H8.24064ZM0 39.0733H57.6845V42.9806H0V39.0733Z" fill="#ED1C24"/>
</svg>
