<svg width="50" height="48" viewBox="0 0 50 48" fill="none" xmlns="http://www.w3.org/2000/svg">
<path d="M47.1791 32.2354L36.1942 22.0558L47.1791 11.8762L49.767 14.2684L41.3699 22.0558L49.767 29.8432L47.1791 32.2354ZM36.1942 47.5049H32.5748V39.0218C32.5748 36.772 31.6214 34.6143 29.9245 33.0235C28.2276 31.4326 25.926 30.5388 23.5262 30.5388H12.668C10.2681 30.5388 7.96661 31.4326 6.26967 33.0235C4.57274 34.6143 3.61942 36.772 3.61942 39.0218V47.5049H0V39.0218C0 35.8721 1.33466 32.8513 3.71036 30.6241C6.08606 28.3969 9.30821 27.1456 12.668 27.1456H23.5262C26.886 27.1456 30.1081 28.3969 32.4838 30.6241C34.8595 32.8513 36.1942 35.8721 36.1942 39.0218V47.5049ZM18.0971 3.3932C19.8867 3.3932 21.6362 3.89072 23.1242 4.82285C24.6122 5.75497 25.772 7.07984 26.4569 8.62991C27.1417 10.18 27.3209 11.8856 26.9718 13.5312C26.6226 15.1767 25.7608 16.6882 24.4954 17.8746C23.2299 19.061 21.6176 19.8689 19.8624 20.1962C18.1071 20.5235 16.2878 20.3556 14.6344 19.7135C12.981 19.0714 11.5678 17.9841 10.5735 16.5891C9.57923 15.1941 9.04854 13.554 9.04854 11.8762C9.04854 9.62638 10.0019 7.46869 11.6988 5.87782C13.3957 4.28695 15.6973 3.3932 18.0971 3.3932V3.3932ZM18.0971 0C15.5916 0 13.1424 0.696528 11.0591 2.0015C8.97591 3.30648 7.35222 5.16129 6.39342 7.33138C5.43461 9.50148 5.18374 11.8894 5.67254 14.1931C6.16133 16.4969 7.36784 18.613 9.13949 20.274C10.9111 21.9349 13.1683 23.066 15.6257 23.5242C18.083 23.9825 20.6301 23.7473 22.9449 22.8484C25.2597 21.9495 27.2381 20.4273 28.6301 18.4743C30.0221 16.5213 30.765 14.2251 30.765 11.8762C30.765 8.72645 29.4304 5.70568 27.0547 3.47846C24.679 1.25124 21.4568 0 18.0971 0V0Z" fill="#ED1C24"/>
</svg>
