<svg width="43" height="41" viewBox="0 0 43 41" fill="none" xmlns="http://www.w3.org/2000/svg">
<path d="M1.50032 9.00105L1.50108 8.97727V8.95349V4.31578C1.50108 3.56719 1.7974 2.85039 2.32308 2.32275C2.84858 1.7953 3.56011 1.5 4.30086 1.5H38.7029C39.4428 1.50099 40.1533 1.79663 40.678 2.32382C41.203 2.85137 41.4989 3.56772 41.4989 4.31578V8.95349V8.97727L41.4997 9.00105C41.5039 9.13346 41.4669 9.26345 41.3945 9.37293C41.3262 9.47635 41.2298 9.55634 41.1179 9.60402C39.9816 9.99622 38.9951 10.7323 38.294 11.7103C37.5842 12.7005 37.2027 13.8889 37.2027 15.1075C37.2027 16.3262 37.5842 17.5146 38.294 18.5048C38.9951 19.4828 39.9816 20.2189 41.1179 20.6111C41.2298 20.6588 41.3262 20.7388 41.3945 20.8422C41.4669 20.9516 41.5039 21.0816 41.4997 21.2141L41.4989 21.2378V21.2616V25.8947C41.4989 26.6432 41.2026 27.36 40.6769 27.8877C40.1514 28.4151 39.4399 28.7104 38.6991 28.7104H4.30086C3.56011 28.7104 2.84857 28.4151 2.32308 27.8877C1.7974 27.36 1.50108 26.6432 1.50108 25.8947V21.2616V21.2378L1.50032 21.2141C1.49612 21.0816 1.53311 20.9517 1.60546 20.8422C1.67379 20.7388 1.77024 20.6588 1.88205 20.6111C3.01835 20.2189 4.00493 19.4828 4.70599 18.5048C5.41583 17.5146 5.7973 16.3262 5.7973 15.1075C5.7973 13.8889 5.41583 12.7005 4.70599 11.7103C4.00493 10.7323 3.01835 9.99622 1.88205 9.60402C1.77024 9.55634 1.67379 9.47635 1.60546 9.37294C1.53311 9.26345 1.49612 9.13346 1.50032 9.00105ZM19.1041 36.0262H38.5444L38.4786 36.2879C38.4783 36.2894 38.4779 36.2909 38.4775 36.2924C38.2381 37.2149 37.7001 38.0302 36.9493 38.6105C36.1974 39.1917 35.2748 39.5043 34.3273 39.4999L34.3189 39.4999L34.3104 39.4999C33.9803 39.5021 33.651 39.4647 33.3296 39.3886L33.329 39.3885L19.1041 36.0262Z" stroke="#ED1C24" stroke-width="3"/>
</svg>
