<svg width="43" height="49" viewBox="0 0 43 49" fill="none" xmlns="http://www.w3.org/2000/svg">
<path d="M0 7.53068C1.84594 7.18316 3.58018 6.90438 5.30116 6.5244C10.8651 5.29732 16.1844 3.13424 21.0361 0.125873C21.2 0.0448737 21.3797 0.00180967 21.5621 -0.000172462C21.7446 -0.0021546 21.9252 0.0369952 22.0907 0.114417C28.2968 3.91993 34.9763 6.36401 42.1916 7.292C42.3481 7.31289 42.503 7.34414 42.6554 7.38556C42.7747 7.41802 42.8902 7.46766 42.9451 7.48676C42.9451 9.43057 43.0814 11.3419 42.9205 13.2265C42.4453 18.7467 41.2752 24.1199 39.1813 29.2658C35.7526 37.6673 30.3813 44.3828 22.3558 48.7669C21.7878 49.0743 21.3769 49.0915 20.8033 48.7784C12.7739 44.3867 7.38755 37.7036 3.97209 29.283C1.35748 22.8348 0.166608 16.0926 0 9.15179C0 8.61524 0 8.07868 0 7.53068ZM2.44989 9.78572C2.44989 9.88119 2.44989 10.1008 2.44989 10.3223C2.68655 16.6234 3.88689 22.7183 6.25916 28.5555C9.27514 35.9699 13.9761 41.9731 20.915 46.067C21.4299 46.3706 21.7651 46.3362 22.2573 46.046C27.3483 43.0348 31.3299 38.9218 34.3099 33.8045C37.3921 28.5116 39.1604 22.7565 40.09 16.7304C40.4498 14.3875 40.5804 12.0083 40.8152 9.64824C40.3949 9.53177 40.1582 9.44393 39.914 9.40384C33.6169 8.35746 27.7308 6.15779 22.1967 2.97476C21.7064 2.69216 21.3902 2.77236 20.9169 2.99194C17.7854 4.45266 14.6956 6.03368 11.4675 7.23471C8.59546 8.30018 5.56054 8.92457 2.44989 9.78572Z" fill="#ED1C24"/>
<path d="M5.79723 12.8333C5.5814 12.2031 6.03389 12.0103 6.83664 11.8423C11.7728 10.8159 16.529 9.05052 20.9472 6.60468C21.1461 6.47238 21.3791 6.40186 21.6174 6.40186C21.8557 6.40186 22.0887 6.47238 22.2876 6.60468C26.8363 9.1124 31.7336 10.9148 36.8147 11.9511C37.0495 11.9988 37.4092 12.3712 37.3959 12.5698C36.6841 22.623 33.8271 31.7902 26.3752 38.9697C25.1332 40.1669 23.6375 41.0929 22.2763 42.168C21.8219 42.5269 21.4792 42.5021 20.9813 42.1832C15.9262 38.9563 12.3271 34.4767 9.81097 29.0597C7.4671 23.9977 6.28191 18.6456 5.79723 12.8333Z" stroke="#ED1C24" stroke-width="2" stroke-miterlimit="10"/>
</svg>
