<svg width="60" height="36" viewBox="0 0 60 36" fill="none" xmlns="http://www.w3.org/2000/svg">
<path fill-rule="evenodd" clip-rule="evenodd" d="M26.513 2.72061V33.2795H33.2985V2.72061H26.513ZM48.1256 8.35154C47.3717 8.35154 46.7434 7.71884 46.7434 6.95961C46.7434 6.20039 47.3717 5.56769 48.1256 5.56769H51.4554C52.2093 5.56769 52.8376 6.20039 52.8376 6.95961C52.8376 7.71884 52.2093 8.35154 51.4554 8.35154H48.1256ZM51.5183 27.6486C52.2722 27.6486 52.9005 28.2812 52.9005 29.0404C52.9005 29.7996 52.2722 30.4323 51.5183 30.4323H48.1885C47.4345 30.4323 46.8063 29.7996 46.8063 29.0404C46.8063 28.2812 47.4345 27.6486 48.1885 27.6486H51.5183ZM8.41881 8.35154C7.66488 8.35154 7.03661 7.71884 7.03661 6.95961C7.03661 6.20039 7.66488 5.56769 8.41881 5.56769H11.7486C12.5026 5.56769 13.1308 6.20039 13.1308 6.95961C13.1308 7.71884 12.5026 8.35154 11.7486 8.35154H8.41881ZM11.7486 27.6486C12.5026 27.6486 13.1308 28.2812 13.1308 29.0404C13.1308 29.7996 12.5026 30.4323 11.7486 30.4323H8.41881C7.66488 30.4323 7.03661 29.7996 7.03661 29.0404C7.03661 28.2812 7.66488 27.6486 8.41881 27.6486H11.7486ZM36.0627 7.21265C37.8219 8.22495 39.3297 9.68016 40.3978 11.3884C41.5915 13.2865 42.2827 15.5641 42.2827 17.9683C42.2827 20.3726 41.5915 22.6503 40.3978 24.5484C39.3297 26.2566 37.8219 27.7118 36.0627 28.7241V33.2162H57.1098H57.1727V33.1529V2.84708C57.1727 2.78381 57.1727 2.78385 57.1727 2.78385H57.1098H36.0627V7.21265ZM36.0627 25.4341V10.5027C36.8794 11.1353 37.5078 11.9578 38.0732 12.8436C39.0156 14.2988 39.5183 16.0703 39.5183 17.9683C39.5183 19.8664 38.9528 21.638 38.0732 23.0932C37.5078 23.979 36.8794 24.8014 36.0627 25.4341ZM23.8115 28.7241C22.0524 27.7118 20.5445 26.2566 19.4764 24.5484C18.2827 22.6503 17.5917 20.3726 17.5917 17.9683C17.5917 15.5641 18.2827 13.2865 19.4764 11.3884C20.5445 9.68016 22.0524 8.22495 23.8115 7.21265V2.72061H2.76441H2.70152L2.63882 2.78385V33.0897C2.63882 33.153 2.63869 33.1529 2.70152 33.1529H2.76441H23.8115V28.7241ZM23.8115 10.5027V25.4341C22.9948 24.8014 22.3665 23.979 21.801 23.0932C20.8586 21.638 20.3559 19.8664 20.3559 17.9683C20.3559 16.0703 20.9214 14.2988 21.801 12.8436C22.3665 11.9578 23.0576 11.1986 23.8115 10.5027ZM2.76441 0H25.1937H34.7434H57.1727C57.9266 0 58.6178 0.316375 59.1832 0.822526C59.6858 1.32868 60 2.02458 60 2.84708V33.1529C60 33.9121 59.6858 34.6081 59.1832 35.1775C58.6806 35.6836 57.9895 36 57.1727 36H2.8273C2.07337 36 1.38223 35.6836 0.816783 35.1775C0.314166 34.6713 0 33.9754 0 33.1529V2.84708C0 2.08785 0.314166 1.39195 0.816783 0.822526C1.3194 0.316375 2.01048 0 2.76441 0ZM49.8218 15.2478C50.5758 15.2478 51.267 15.5642 51.7068 16.0703C52.2094 16.5765 52.5236 17.2724 52.5236 17.9683C52.5236 18.7276 52.2094 19.4236 51.7068 19.9298L51.581 19.993C51.0784 20.4359 50.4503 20.6889 49.7592 20.6889C49.0052 20.6889 48.314 20.3726 47.8742 19.8664C47.3716 19.3603 47.0574 18.6643 47.0574 17.9051C47.0574 17.1459 47.3716 16.4499 47.8742 16.007C48.3768 15.5641 49.0679 15.2478 49.8218 15.2478ZM10.0524 15.2478C10.8063 15.2478 11.4973 15.5642 11.9371 16.0703L12 16.1968C12.4398 16.703 12.691 17.3357 12.691 18.0317C12.691 18.7909 12.377 19.4869 11.8744 19.9298C11.3718 20.4359 10.6806 20.7522 9.98949 20.7522C9.23556 20.7522 8.54448 20.4359 8.04186 19.9298C7.53925 19.4236 7.22508 18.7276 7.22508 17.9683C7.22508 17.2091 7.53925 16.5132 8.04186 16.0703L8.16764 15.9438C8.73308 15.5009 9.36128 15.2478 10.0524 15.2478Z" fill="#ED1C24"/>
</svg>
