<svg width="48" height="51" viewBox="0 0 48 51" fill="none" xmlns="http://www.w3.org/2000/svg">
<path fill-rule="evenodd" clip-rule="evenodd" d="M13.5573 30.9295L7.45039 26.3541C5.37405 24.829 3.78626 22.9988 2.62596 20.8636C1.46565 18.7895 0.732849 16.4103 0.549643 13.8481L0 7.68666C0 7.56465 0 7.50363 0 7.38162C0 6.34454 0.427496 5.36845 1.16032 4.69739C1.83208 4.02634 2.74811 3.59933 3.78628 3.47732H3.84736C3.9695 3.47732 4.03054 3.47732 4.15267 3.47732H9.1603L9.03819 1.52512C9.03819 1.46411 9.03819 1.40312 9.03819 1.34211C9.03819 0.610055 9.64888 0 10.3817 0H37.7405H37.8015C38.5344 0.0610048 39.084 0.67112 39.0229 1.40318L38.9008 3.41625H43.9084C44.0305 3.41625 44.0916 3.41625 44.2137 3.41625H44.2748C45.2519 3.47726 46.1679 3.96537 46.8397 4.63642C47.5725 5.30748 48 6.28347 48 7.32056C48 7.44256 48 7.50359 48 7.6256L47.4504 13.7871C47.2061 16.3493 46.5343 18.6675 45.374 20.8027C44.2137 22.8768 42.5649 24.7069 40.5496 26.293L34.4427 30.8684C33.8931 31.3564 33.3435 31.7835 32.6717 32.1495L32.6107 32.2105L31.0229 33.1866C30.8397 33.3086 30.7786 33.4306 30.6565 33.5526C30.5344 33.7356 30.5343 34.0407 30.5343 34.2848V41.3612H34.8702C35.9695 41.3612 37.0076 41.8493 37.7405 42.5814C38.4733 43.3135 38.9619 44.3505 38.9619 45.4485V49.6579C38.9619 50.3899 38.3512 51 37.6183 51H10.2595C9.52672 51 8.91602 50.3899 8.91602 49.6579V45.4485C8.91602 44.3505 9.34351 43.3744 10.0153 42.6424L10.0763 42.5814C10.8092 41.8493 11.8473 41.3612 12.9466 41.3612H17.2825V34.2848C17.2825 33.9797 17.2214 33.7356 17.1603 33.5526C17.0992 33.4306 16.9771 33.2476 16.7939 33.1866L15.2061 32.2105H15.1451H15.084C14.6565 31.8445 14.1069 31.4175 13.5573 30.9295ZM38.7786 6.16154L37.9847 23.3648C37.9847 23.9749 37.8626 24.585 37.7405 25.195L39.0229 24.28C40.7939 22.9379 42.1374 21.4127 43.1145 19.6435C44.0916 17.8744 44.7023 15.9222 44.8855 13.7261L45.4351 7.56463V7.50366C45.4351 7.19863 45.313 6.89358 45.0687 6.71056C44.8245 6.46654 44.458 6.28349 44.0916 6.28349H43.9695H38.7786V6.16154ZM31.2672 30.0143L32.7939 28.8553C33.3435 28.3063 33.832 27.7572 34.1985 27.1471C34.8702 25.988 35.2977 24.7069 35.3588 23.2428L36.3359 2.80626H11.7252L12.7023 23.2428C12.7634 24.7069 13.1909 25.988 13.8626 27.1471L13.9237 27.2082C14.2901 27.8182 14.7786 28.3673 15.2672 28.8553L16.7939 30.0143L18.3206 30.9295C18.9313 31.2955 19.3588 31.7835 19.6641 32.3935C19.9695 33.0036 20.0916 33.6137 20.0916 34.2848V41.3612H27.9695V34.2848C27.9695 33.6137 28.0916 32.9426 28.397 32.3935C28.7023 31.7835 29.1298 31.2955 29.7405 30.9295L31.2672 30.0143ZM36.3969 48.3768V45.4485C36.3969 45.0215 36.2137 44.6555 35.9695 44.4115C35.7252 44.1675 35.3588 43.9845 34.9313 43.9845H29.2519H18.7481H13.0687C12.6412 43.9845 12.2748 44.1675 12.0305 44.4115L11.9695 44.4725C11.7252 44.7166 11.6031 45.0825 11.6031 45.4485V48.3768H36.3969ZM16.3664 12.628C16 12.628 15.6336 12.811 15.3893 13.055C14.9008 13.6041 14.9618 14.4581 15.5115 14.8852L19.0535 17.9964L18.0153 22.5108C17.8932 22.8158 17.9542 23.1818 18.1374 23.5478C18.5038 24.1579 19.2977 24.4019 19.9084 24.0359L23.9389 21.6567L27.9695 24.0359C28.2748 24.2189 28.5801 24.2799 28.9465 24.1579C29.6794 23.9749 30.1069 23.3038 29.9237 22.5718L28.8855 17.9964L32.4275 14.8852C32.6717 14.6412 32.855 14.3971 32.855 14.0311C32.9161 13.2991 32.3664 12.689 31.6947 12.628L27.0534 12.201L25.1603 7.86967C25.0382 7.56465 24.7939 7.32062 24.4886 7.19861C23.8168 6.89359 23.0229 7.19862 22.7786 7.86967L20.8855 12.201L16.3664 12.628ZM21.9237 14.7631L19.4809 15.0072L21.313 16.5933C21.6794 16.8983 21.8626 17.3864 21.7404 17.8744L21.1908 20.2536L23.2672 19.0336C23.6946 18.7895 24.1832 18.7895 24.6107 19.0336L26.687 20.2536L26.1985 17.9964C26.0763 17.5084 26.1985 16.9593 26.5649 16.5933L28.397 15.0072L26.0764 14.7631C25.5878 14.7631 25.0992 14.4582 24.916 13.9701L23.9389 11.7129L22.9618 13.9091C22.9008 14.3971 22.4733 14.7021 21.9237 14.7631ZM9.22139 6.16154H4.09159H3.96947C3.60306 6.16154 3.23663 6.34451 2.99235 6.58853C2.74808 6.83255 2.62596 7.0766 2.62596 7.38162V7.44259L3.1756 13.6041C3.3588 15.8003 3.96945 17.7524 4.94655 19.5215C5.92365 21.2907 7.32826 22.8158 9.03819 24.1579L10.3206 25.073C10.1985 24.4629 10.1374 23.8529 10.0763 23.2428L9.22139 6.16154Z" fill="#ED1C24"/>
</svg>
