<svg width="28" height="33" viewBox="0 0 28 33" fill="none" xmlns="http://www.w3.org/2000/svg">
<path d="M25.6667 11.9231H28V15.4769H25.6667V11.9231ZM21 6H23.3333V21.4H21V6ZM16.3333 10.7385H18.6667V16.6615H16.3333V10.7385ZM11.6667 8.36923H14V19.0308H11.6667V8.36923ZM7 11.9231H9.33333V15.4769H7V11.9231Z" fill="#ED1C24"/>
<path d="M9.1 26.9998C10.2598 26.9998 11.2 26.373 11.2 25.5998C11.2 24.8266 10.2598 24.1998 9.1 24.1998C7.9402 24.1998 7 24.8266 7 25.5998C7 26.373 7.9402 26.9998 9.1 26.9998Z" fill="#ED1C24"/>
<path d="M16.0588 32.6H2.14118C1.57348 32.5994 1.02919 32.3569 0.627762 31.9257C0.226337 31.4945 0.000566852 30.9098 0 30.3V2.70002C0.000566852 2.09021 0.226337 1.50555 0.627762 1.07435C1.02919 0.64315 1.57348 0.400633 2.14118 0.400024H16.0588V2.70002H2.14118V30.3H16.0588V25.7H18.2V30.3C18.1994 30.9098 17.9737 31.4945 17.5722 31.9257C17.1708 32.3569 16.6265 32.5994 16.0588 32.6Z" fill="#ED1C24"/>
</svg>
